Gemunu-sinhala-1.ufo
<glyph name="visarga" format="1">
  <advance width="210"/>
  <unicode hex="0D83"/>
  <outline>
    <contour>
      <point x="22" y="135.796" type="curve" smooth="yes"/>
      <point x="22" y="12.9971" type="line" smooth="yes"/>
      <point x="22" y="2.78711"/>
      <point x="27.7686" y="-0.00292969"/>
      <point x="36.8018" y="-0.00292969" type="curve" smooth="yes"/>
      <point x="166" y="-0.00292969" type="line" smooth="yes"/>
      <point x="174.362" y="-0.00292969"/>
      <point x="180" y="3.0918"/>
      <point x="180" y="11.9971" type="curve" smooth="yes"/>
      <point x="180" y="135.997" type="line" smooth="yes"/>
      <point x="180" y="147.248"/>
      <point x="174.11" y="149.997"/>
      <point x="164" y="149.997" type="curve" smooth="yes"/>
      <point x="38" y="149.997" type="line" smooth="yes"/>
      <point x="27.4102" y="149.997"/>
      <point x="22" y="144.345"/>
    </contour>
    <contour>
      <point x="83.002" y="101.997" type="curve" smooth="yes"/>
      <point x="116.999" y="101.997" type="line" smooth="yes"/>
      <point x="122.34" y="101.997"/>
      <point x="124" y="101.337"/>
      <point x="124" y="95.7959" type="curve" smooth="yes"/>
      <point x="124" y="55.1982" type="line" smooth="yes"/>
      <point x="124" y="49.2188"/>
      <point x="123.199" y="47.9971"/>
      <point x="117.199" y="47.9971" type="curve" smooth="yes"/>
      <point x="83.001" y="47.9971" type="line" smooth="yes"/>
      <point x="77.0215" y="47.9971"/>
      <point x="76" y="48.998"/>
      <point x="76" y="54.998" type="curve" smooth="yes"/>
      <point x="76" y="95.9961" type="line" smooth="yes"/>
      <point x="76" y="100.979"/>
      <point x="78.002" y="101.997"/>
    </contour>
    <contour>
      <point x="22" y="483.799" type="curve" smooth="yes"/>
      <point x="22" y="361" type="line" smooth="yes"/>
      <point x="22" y="350.79"/>
      <point x="27.7686" y="348"/>
      <point x="36.8018" y="348" type="curve" smooth="yes"/>
      <point x="166" y="348" type="line" smooth="yes"/>
      <point x="174.363" y="348"/>
      <point x="180" y="351.095"/>
      <point x="180" y="360" type="curve" smooth="yes"/>
      <point x="180" y="484" type="line" smooth="yes"/>
      <point x="180" y="495.251"/>
      <point x="174.11" y="498"/>
      <point x="164" y="498" type="curve" smooth="yes"/>
      <point x="38" y="498" type="line" smooth="yes"/>
      <point x="27.4097" y="498"/>
      <point x="22" y="492.348"/>
    </contour>
    <contour>
      <point x="83.002" y="450" type="curve" smooth="yes"/>
      <point x="116.999" y="450" type="line" smooth="yes"/>
      <point x="122.34" y="450"/>
      <point x="124" y="449.34"/>
      <point x="124" y="443.799" type="curve" smooth="yes"/>
      <point x="124" y="403.201" type="line" smooth="yes"/>
      <point x="124" y="397.222"/>
      <point x="123.199" y="396"/>
      <point x="117.199" y="396" type="curve" smooth="yes"/>
      <point x="83.001" y="396" type="line" smooth="yes"/>
      <point x="77.0215" y="396"/>
      <point x="76" y="397.001"/>
      <point x="76" y="403.001" type="curve" smooth="yes"/>
      <point x="76" y="443.999" type="line" smooth="yes"/>
      <point x="76" y="448.982"/>
      <point x="78.002" y="450"/>
    </contour>
  </outline>
</glyph>
<glyph name="si_I" format="1">
  <advance width="519"/>
  <unicode hex="0D89"/>
  <outline>
    <contour>
      <point x="311.197" y="346" type="line"/>
      <point x="311.197" y="206" type="line" smooth="yes"/>
      <point x="311.197" y="172.077"/>
      <point x="291.191" y="156"/>
      <point x="258" y="156" type="curve" smooth="yes"/>
      <point x="78" y="156" type="line" smooth="yes"/>
      <point x="41.2336" y="156"/>
      <point x="22" y="172.981"/>
      <point x="22" y="210" type="curve" smooth="yes"/>
      <point x="22" y="442" type="line" smooth="yes"/>
      <point x="22" y="476.486"/>
      <point x="43.9766" y="497"/>
      <point x="83.001" y="497" type="curve" smooth="yes"/>
      <point x="428" y="497" type="line" smooth="yes"/>
      <point x="471.529" y="497"/>
      <point x="489.001" y="474.966"/>
      <point x="489.001" y="442" type="curve" smooth="yes"/>
      <point x="489.001" y="122.996" type="line" smooth="yes"/>
      <point x="489.001" y="83.1543"/>
      <point x="466.443" y="66.2295"/>
      <point x="444" y="59.9961" type="curve"/>
      <point x="460" y="48.6631"/>
      <point x="472.001" y="33.9961"/>
      <point x="472.001" y="9.99609" type="curve" smooth="yes"/>
      <point x="472.001" y="-99.0049" type="line" smooth="yes"/>
      <point x="472.001" y="-141.628"/>
      <point x="454.968" y="-159.005"/>
      <point x="416" y="-159.005" type="curve" smooth="yes"/>
      <point x="46.2031" y="-159.005" type="line"/>
      <point x="46.2031" y="-50.0049" type="line"/>
      <point x="324" y="-50.0049" type="line" smooth="yes"/>
      <point x="343.751" y="-50.0049"/>
      <point x="348.001" y="-49.6621"/>
      <point x="348.001" y="-37.0049" type="curve" smooth="yes"/>
      <point x="348.001" y="-12.999" type="line" smooth="yes"/>
      <point x="348.001" y="-4.33203"/>
      <point x="344.189" y="-7.1178e-05"/>
      <point x="324" y="0" type="curve" smooth="yes"/>
      <point x="47.001" y="0.000976562" type="line"/>
      <point x="47.001" y="107.001" type="line"/>
      <point x="332.001" y="107.001" type="line" smooth="yes"/>
      <point x="354.001" y="107.001"/>
      <point x="365.001" y="117.334"/>
      <point x="365.001" y="138.001" type="curve" smooth="yes"/>
      <point x="365.001" y="374" type="line" smooth="yes"/>
      <point x="365.001" y="387.333"/>
      <point x="359.001" y="394"/>
      <point x="347.001" y="394" type="curve" smooth="yes"/>
      <point x="168.002" y="394" type="line" smooth="yes"/>
      <point x="153.335" y="394"/>
      <point x="146.002" y="388"/>
      <point x="146.002" y="376" type="curve" smooth="yes"/>
      <point x="146.002" y="276.994" type="line" smooth="yes"/>
      <point x="146.002" y="261.564"/>
      <point x="148.775" y="256.994"/>
      <point x="162" y="256.994" type="curve" smooth="yes"/>
      <point x="182.196" y="256.994" type="line" smooth="yes"/>
      <point x="196.521" y="256.994"/>
      <point x="199.197" y="260.994"/>
      <point x="199.197" y="276.994" type="curve" smooth="yes"/>
      <point x="199.197" y="346" type="line"/>
    </contour>
  </outline>
</glyph>
<glyph name="si_Ii" format="1">
  <advance width="451"/>
  <unicode hex="0D8A"/>
  <outline>
    <contour>
      <point x="22" y="48.2002" type="line" smooth="yes"/>
      <point x="22" y="11.8604"/>
      <point x="38.2246" y="0"/>
      <point x="67.6016" y="0" type="curve" smooth="yes"/>
      <point x="365.8" y="0" type="line" smooth="yes"/>
      <point x="416.645" y="-6.22668e-15"/>
      <point x="421.001" y="32.0948"/>
      <point x="421.001" y="61" type="curve" smooth="yes"/>
      <point x="421.001" y="438" type="line" smooth="yes"/>
      <point x="421.001" y="473.887"/>
      <point x="402.535" y="497"/>
      <point x="360" y="497" type="curve" smooth="yes"/>
      <point x="212.001" y="497.001" type="line"/>
      <point x="365.001" y="663.001" type="line"/>
      <point x="222.001" y="663.001" type="line"/>
      <point x="63.001" y="498.001" type="line" smooth="yes"/>
      <point x="39" y="474"/>
      <point x="22" y="453.477"/>
      <point x="22" y="430" type="curve" smooth="yes"/>
    </contour>
    <contour>
      <point x="146.006" y="367.001" type="curve" smooth="yes"/>
      <point x="146.006" y="388.975"/>
      <point x="148.754" y="394.001"/>
      <point x="171.206" y="394.001" type="curve" smooth="yes"/>
      <point x="272" y="394" type="line" smooth="yes"/>
      <point x="292.793" y="394"/>
      <point x="296.801" y="391.192"/>
      <point x="296.801" y="372.001" type="curve" smooth="yes"/>
      <point x="296.801" y="133.194" type="line" smooth="yes"/>
      <point x="296.801" y="110.47"/>
      <point x="295.242" y="107"/>
      <point x="272" y="107" type="curve" smooth="yes"/>
      <point x="169.601" y="107" type="line" smooth="yes"/>
      <point x="146.288" y="107"/>
      <point x="146.003" y="112.619"/>
      <point x="146" y="129.597" type="curve" smooth="yes"/>
      <point x="146" y="129.666"/>
      <point x="146.006" y="367.001"/>
    </contour>
    <contour>
      <point x="21.9961" y="663.001" type="line"/>
      <point x="123.996" y="663.001" type="line"/>
      <point x="123.996" y="569.001" type="line"/>
      <point x="21.9961" y="569.001" type="line"/>
    </contour>
    <contour>
      <point x="333.001" y="612.001" type="line"/>
      <point x="435.001" y="612.001" type="line"/>
      <point x="435.001" y="518.001" type="line"/>
      <point x="333.001" y="518.001" type="line"/>
    </contour>
    <contour>
      <point x="50.9961" y="640.999" type="line"/>
      <point x="50.9961" y="589.999" type="line"/>
      <point x="94.9961" y="589.999" type="line"/>
      <point x="94.9961" y="640.999" type="line"/>
    </contour>
    <contour>
      <point x="362.001" y="590.001" type="line"/>
      <point x="362.001" y="539.001" type="line"/>
      <point x="406.001" y="539.001" type="line"/>
      <point x="406.001" y="590.001" type="line"/>
    </contour>
  </outline>
</glyph>
<glyph name="si_vocalicR" format="1">
  <advance width="909"/>
  <unicode hex="0D8D"/>
  <outline>
    <contour>
      <point x="278" y="46" type="curve"/>
      <point x="278" y="19.8809"/>
      <point x="251.568" y="0"/>
      <point x="225" y="0" type="curve" smooth="yes"/>
      <point x="72" y="0" type="line" smooth="yes"/>
      <point x="34.9248" y="0"/>
      <point x="22" y="16.2705"/>
      <point x="22" y="54" type="curve" smooth="yes"/>
      <point x="22" y="296" type="line" smooth="yes"/>
      <point x="22" y="339.261"/>
      <point x="42.4717" y="356"/>
      <point x="86" y="356" type="curve" smooth="yes"/>
      <point x="168" y="356" type="line"/>
      <point x="168" y="379" type="line" smooth="yes"/>
      <point x="168" y="389"/>
      <point x="161" y="394"/>
      <point x="147" y="394" type="curve" smooth="yes"/>
      <point x="23" y="394" type="line"/>
      <point x="23" y="497" type="line"/>
      <point x="192" y="497" type="line" smooth="yes"/>
      <point x="230.704" y="497"/>
      <point x="264.001" y="480.775"/>
      <point x="264.001" y="443" type="curve" smooth="yes"/>
      <point x="264" y="253" type="line"/>
      <point x="169" y="253" type="line" smooth="yes"/>
      <point x="153.667" y="253"/>
      <point x="146" y="247.333"/>
      <point x="146" y="236" type="curve" smooth="yes"/>
      <point x="146" y="130" type="line" smooth="yes"/>
      <point x="146" y="114.667"/>
      <point x="152" y="107"/>
      <point x="164" y="107" type="curve" smooth="yes"/>
      <point x="195" y="107" type="line" smooth="yes"/>
      <point x="213" y="107"/>
      <point x="222" y="115.667"/>
      <point x="222" y="133" type="curve" smooth="yes"/>
      <point x="222" y="190" type="line"/>
      <point x="259.333" y="190"/>
      <point x="296.667" y="190"/>
      <point x="334" y="190" type="curve"/>
      <point x="334" y="133" type="line" smooth="yes"/>
      <point x="334" y="115.667"/>
      <point x="343" y="107"/>
      <point x="361" y="107" type="curve" smooth="yes"/>
      <point x="392" y="107" type="line" smooth="yes"/>
      <point x="404" y="107"/>
      <point x="410" y="114.667"/>
      <point x="410" y="130" type="curve" smooth="yes"/>
      <point x="410" y="236" type="line" smooth="yes"/>
      <point x="410" y="247.333"/>
      <point x="402.333" y="253"/>
      <point x="387" y="253" type="curve" smooth="yes"/>
      <point x="292" y="253" type="line"/>
      <point x="291.999" y="443" type="line" smooth="yes"/>
      <point x="291.999" y="480.775"/>
      <point x="325.296" y="497"/>
      <point x="364" y="497" type="curve" smooth="yes"/>
      <point x="533" y="497" type="line"/>
      <point x="533" y="394" type="line"/>
      <point x="409" y="394" type="line" smooth="yes"/>
      <point x="395" y="394"/>
      <point x="388" y="389"/>
      <point x="388" y="379" type="curve" smooth="yes"/>
      <point x="388" y="356" type="line"/>
      <point x="470" y="356" type="line" smooth="yes"/>
      <point x="513.529" y="356"/>
      <point x="534" y="339.26"/>
      <point x="534" y="296" type="curve" smooth="yes"/>
      <point x="534" y="54" type="line" smooth="yes"/>
      <point x="534" y="16.2703"/>
      <point x="521.075" y="0"/>
      <point x="484" y="0" type="curve" smooth="yes"/>
      <point x="331" y="0" type="line" smooth="yes"/>
      <point x="304.431" y="0"/>
      <point x="278" y="19.8811"/>
    </contour>
    <component base="si_MatraR" xOffset="563"/>
  </outline>
</glyph>
<glyph name="si_Os" format="1">
  <advance width="515"/>
  <unicode hex="0D94"/>
  <outline>
    <contour>
      <point x="292.997" y="247" type="curve" smooth="yes"/>
      <point x="209.404" y="247" type="line" smooth="yes"/>
      <point x="187.843" y="247"/>
      <point x="174.405" y="255.307"/>
      <point x="174.405" y="277" type="curve" smooth="yes"/>
      <point x="174.405" y="347" type="line" smooth="yes"/>
      <point x="174.405" y="352.033"/>
      <point x="171.706" y="356.001"/>
      <point x="165.404" y="356.001" type="curve" smooth="yes"/>
      <point x="156" y="356.001" type="line" smooth="yes"/>
      <point x="149.043" y="356.001"/>
      <point x="146.004" y="352.293"/>
      <point x="146.004" y="346.2" type="curve" smooth="yes"/>
      <point x="146.004" y="126" type="line" smooth="yes"/>
      <point x="146.004" y="113.333"/>
      <point x="152.337" y="107"/>
      <point x="165.004" y="107" type="curve" smooth="yes"/>
      <point x="181.803" y="107" type="line" smooth="yes"/>
      <point x="196.469" y="107"/>
      <point x="203.803" y="115.333"/>
      <point x="203.803" y="132" type="curve" smooth="yes"/>
      <point x="203.803" y="197.795" type="line"/>
      <point x="303.398" y="197.795" type="line"/>
      <point x="303.398" y="134" type="line" smooth="yes"/>
      <point x="303.398" y="116"/>
      <point x="311.064" y="107"/>
      <point x="326.398" y="107" type="curve" smooth="yes"/>
      <point x="343.997" y="107" type="line" smooth="yes"/>
      <point x="355.33" y="107"/>
      <point x="360.997" y="114"/>
      <point x="360.997" y="128" type="curve" smooth="yes"/>
      <point x="360.997" y="479" type="line" smooth="yes"/>
      <point x="360.997" y="503.852"/>
      <point x="353.884" y="510"/>
      <point x="330" y="510" type="curve" smooth="yes"/>
      <point x="22.001" y="510" type="line"/>
      <point x="22.001" y="626" type="line"/>
      <point x="412" y="626" type="line" smooth="yes"/>
      <point x="454.309" y="626"/>
      <point x="484.998" y="609.264"/>
      <point x="484.998" y="560" type="curve" smooth="yes"/>
      <point x="484.998" y="50" type="line" smooth="yes"/>
      <point x="484.998" y="19.6379"/>
      <point x="471.396" y="-4.08988e-15"/>
      <point x="438" y="0" type="curve" smooth="yes"/>
      <point x="301.803" y="0" type="line" smooth="yes"/>
      <point x="275.803" y="0"/>
      <point x="259.469" y="12.333"/>
      <point x="252.803" y="37" type="curve"/>
      <point x="249.629" y="16.3779"/>
      <point x="229.072" y="0"/>
      <point x="205.803" y="0" type="curve" smooth="yes"/>
      <point x="69" y="0" type="line" smooth="yes"/>
      <point x="37.6096" y="0"/>
      <point x="22" y="15.0176"/>
      <point x="22" y="48" type="curve" smooth="yes"/>
      <point x="22" y="394" type="line" smooth="yes"/>
      <point x="22" y="432.555"/>
      <point x="40.02" y="459"/>
      <point x="81" y="459" type="curve" smooth="yes"/>
      <point x="195" y="459" type="line" smooth="yes"/>
      <point x="220.992" y="459"/>
      <point x="236.001" y="449.978"/>
      <point x="236.001" y="424" type="curve" smooth="yes"/>
      <point x="236.001" y="359" type="line" smooth="yes"/>
      <point x="236.001" y="351"/>
      <point x="237.224" y="347"/>
      <point x="245.202" y="347" type="curve" smooth="yes"/>
      <point x="253.8" y="347" type="line" smooth="yes"/>
      <point x="260.984" y="347"/>
      <point x="263.001" y="350.667"/>
      <point x="263.001" y="358" type="curve" smooth="yes"/>
      <point x="263.001" y="459" type="line"/>
      <point x="331.997" y="459" type="line"/>
      <point x="331.997" y="282" type="line" smooth="yes"/>
      <point x="331.997" y="258.667"/>
      <point x="318.997" y="247"/>
    </contour>
  </outline>
</glyph>
<glyph name="si_Ka" format="1">
  <advance width="592"/>
  <unicode hex="0D9A"/>
  <outline>
    <contour>
      <point x="275.4" y="242.8" type="curve" smooth="yes"/>
      <point x="275.4" y="129.602" type="line" smooth="yes"/>
      <point x="275.4" y="111.603"/>
      <point x="272.605" y="106.8"/>
      <point x="262.4" y="106.8" type="curve" smooth="yes"/>
      <point x="251.397" y="106.8" type="line" smooth="yes"/>
      <point x="240.106" y="106.8"/>
      <point x="237.397" y="111.133"/>
      <point x="237.397" y="125.8" type="curve" smooth="yes"/>
      <point x="237.397" y="187.8" type="line"/>
      <point x="169.397" y="187.8" type="line"/>
      <point x="169.397" y="123.801" type="line" smooth="yes"/>
      <point x="169.397" y="112.467"/>
      <point x="167.482" y="106.8"/>
      <point x="154.397" y="106.8" type="curve" smooth="yes"/>
      <point x="145.996" y="106.8" type="line" smooth="yes"/>
      <point x="134.656" y="106.8"/>
      <point x="131.996" y="109.466"/>
      <point x="131.996" y="126.8" type="curve" smooth="yes"/>
      <point x="131.996" y="180.603" type="line" smooth="yes"/>
      <point x="131.996" y="204.754"/>
      <point x="138.511" y="218.023"/>
      <point x="143.996" y="221.8" type="curve"/>
      <point x="143.793" y="235.8" type="line"/>
      <point x="115.399" y="235.8" type="line"/>
      <point x="145" y="261.8" type="line"/>
      <point x="260.4" y="261.8" type="line" smooth="yes"/>
      <point x="270.4" y="261.8"/>
      <point x="275.4" y="255.465"/>
    </contour>
    <contour>
      <point x="221.005" y="459.197" type="line"/>
      <point x="221.005" y="461.397" type="line" smooth="yes"/>
      <point x="221.005" y="469.59"/>
      <point x="217.092" y="496.762"/>
      <point x="185.409" y="496.8" type="curve" smooth="yes"/>
      <point x="22" y="497" type="line"/>
      <point x="22" y="394" type="line"/>
      <point x="107.012" y="393.801" type="line" smooth="yes"/>
      <point x="119.919" y="393.771"/>
      <point x="130.608" y="391.027"/>
      <point x="130.608" y="381.798" type="curve" smooth="yes"/>
      <point x="130.608" y="380.2" type="line"/>
      <point x="87.4082" y="341.8"/>
      <point x="11.9971" y="276.196"/>
      <point x="11.9971" y="276.196" type="curve"/>
      <point x="11.9971" y="202.801" type="line"/>
      <point x="48" y="202.801" type="line"/>
      <point x="34.2732" y="195.065"/>
      <point x="22" y="180.795"/>
      <point x="22" y="140" type="curve" smooth="yes"/>
      <point x="22" y="49.8008" type="line" smooth="yes"/>
      <point x="22" y="19.6164"/>
      <point x="34.1328" y="-0.200195"/>
      <point x="65.9961" y="-0.200195" type="curve" smooth="yes"/>
      <point x="165.397" y="-0.200195" type="line" smooth="yes"/>
      <point x="183.09" y="-0.200195"/>
      <point x="199.73" y="9.4668"/>
      <point x="204.397" y="28.8008" type="curve"/>
      <point x="209.064" y="9.4668"/>
      <point x="222.438" y="-0.200195"/>
      <point x="241.397" y="-0.200195" type="curve" smooth="yes"/>
      <point x="331.4" y="-0.200195" type="line" smooth="yes"/>
      <point x="361.045" y="-0.200195"/>
      <point x="384.4" y="14.7539"/>
      <point x="384.4" y="50.7998" type="curve" smooth="yes"/>
      <point x="384.4" y="297.8" type="line" smooth="yes"/>
      <point x="384.4" y="337.495"/>
      <point x="363.213" y="354.8"/>
      <point x="331.4" y="354.8" type="curve" smooth="yes"/>
      <point x="251.407" y="354.8" type="line"/>
      <point x="281.208" y="380.8" type="line" smooth="yes"/>
      <point x="293.372" y="391.342"/>
      <point x="298.741" y="393.8"/>
      <point x="313.408" y="393.8" type="curve" smooth="yes"/>
      <point x="416.6" y="394.001" type="line" smooth="yes"/>
      <point x="429.933" y="394.001"/>
      <point x="437" y="388.001"/>
      <point x="437" y="376.001" type="curve" smooth="yes"/>
      <point x="437" y="124.001" type="line" smooth="yes"/>
      <point x="437" y="112.667"/>
      <point x="432.333" y="107.001"/>
      <point x="423" y="107.001" type="curve" smooth="yes"/>
      <point x="401.6" y="107" type="line"/>
      <point x="401.6" y="0" type="line"/>
      <point x="507.6" y="0" type="line" smooth="yes"/>
      <point x="537.075" y="-3.60972e-15"/>
      <point x="561.608" y="13.2042"/>
      <point x="561.608" y="49" type="curve" smooth="yes"/>
      <point x="561.608" y="444" type="line" smooth="yes"/>
      <point x="561.608" y="475.843"/>
      <point x="539.827" y="497"/>
      <point x="503" y="497" type="curve" smooth="yes"/>
      <point x="303.408" y="496.8" type="line" smooth="yes"/>
      <point x="279.213" y="496.8"/>
      <point x="262.183" y="494.689"/>
      <point x="240.008" y="475.8" type="curve" smooth="yes"/>
    </contour>
  </outline>
</glyph>
<glyph name="si_Kha" format="1">
  <advance width="516"/>
  <unicode hex="0D9B"/>
  <outline>
    <contour>
      <point x="22" y="395" type="line" smooth="yes"/>
      <point x="22" y="430.965"/>
      <point x="40.6509" y="458.975"/>
      <point x="81" y="458.975" type="curve" smooth="yes"/>
      <point x="256" y="458.975" type="line" smooth="yes"/>
      <point x="288.526" y="458.975"/>
      <point x="312" y="441.668"/>
      <point x="312" y="404" type="curve" smooth="yes"/>
      <point x="312" y="212" type="line"/>
      <point x="305" y="144" type="line"/>
      <point x="317" y="125.333"/>
      <point x="328.219" y="107"/>
      <point x="340" y="107" type="curve" smooth="yes"/>
      <point x="346" y="107" type="line" smooth="yes"/>
      <point x="358.667" y="107"/>
      <point x="360.994" y="114"/>
      <point x="360.994" y="128" type="curve" smooth="yes"/>
      <point x="360.994" y="478.993" type="line" smooth="yes"/>
      <point x="360.994" y="499.66"/>
      <point x="346.661" y="509.993"/>
      <point x="317.994" y="509.993" type="curve" smooth="yes"/>
      <point x="21.998" y="509.993" type="line"/>
      <point x="21.998" y="626" type="line"/>
      <point x="414.995" y="626" type="line" smooth="yes"/>
      <point x="454.281" y="626"/>
      <point x="484.995" y="606.242"/>
      <point x="484.995" y="566" type="curve" smooth="yes"/>
      <point x="484.995" y="51" type="line" smooth="yes"/>
      <point x="484.995" y="26.0734"/>
      <point x="473.261" y="-4.1958e-15"/>
      <point x="439" y="0" type="curve" smooth="yes"/>
      <point x="350" y="0" type="line" smooth="yes"/>
      <point x="316.667" y="0"/>
      <point x="294.667" y="20"/>
      <point x="288" y="44" type="curve"/>
      <point x="270.4" y="-5" type="line"/>
      <point x="178.4" y="-5" type="line"/>
      <point x="199" y="203" type="line"/>
      <point x="199.001" y="330.975" type="line" smooth="yes"/>
      <point x="198.912" y="342.308"/>
      <point x="195" y="347.975"/>
      <point x="181" y="347.975" type="curve" smooth="yes"/>
      <point x="166.01" y="347.975" type="line" smooth="yes"/>
      <point x="148.01" y="347.975"/>
      <point x="146.01" y="340.642"/>
      <point x="146.01" y="325.975" type="curve" smooth="yes"/>
      <point x="146" y="128" type="line" smooth="yes"/>
      <point x="146" y="109.333"/>
      <point x="149.666" y="107"/>
      <point x="159" y="107" type="curve" smooth="yes"/>
      <point x="168.007" y="107" type="line"/>
      <point x="157.997" y="0" type="line"/>
      <point x="65" y="0" type="line" smooth="yes"/>
      <point x="38.3047" y="0"/>
      <point x="22" y="16.7639"/>
      <point x="22" y="48" type="curve" smooth="yes"/>
    </contour>
  </outline>
</glyph>
<glyph name="si_Ga" format="1">
  <advance width="592"/>
  <unicode hex="0D9C"/>
  <outline>
    <contour>
      <point x="196.781" y="496.999" type="line"/>
      <point x="77" y="496.999" type="line" smooth="yes"/>
      <point x="40.333" y="496.999"/>
      <point x="22" y="478.332"/>
      <point x="22" y="440.999" type="curve" smooth="yes"/>
      <point x="22" y="51" type="line" smooth="yes"/>
      <point x="22" y="14.0518"/>
      <point x="33.3613" y="0"/>
      <point x="70" y="0" type="curve" smooth="yes"/>
      <point x="288.186" y="0" type="line" smooth="yes"/>
      <point x="335.785" y="0"/>
      <point x="355.186" y="12.6074"/>
      <point x="355.186" y="60" type="curve" smooth="yes"/>
      <point x="355.186" y="256" type="line" smooth="yes"/>
      <point x="355.186" y="276.896"/>
      <point x="347.769" y="287.538"/>
      <point x="332.936" y="287.928" type="curve" smooth="yes"/>
      <point x="330.186" y="288" type="line"/>
      <point x="345.186" y="373" type="line" smooth="yes"/>
      <point x="347.853" y="384.333"/>
      <point x="355.853" y="390"/>
      <point x="369.186" y="390" type="curve" smooth="yes"/>
      <point x="420" y="390" type="line" smooth="yes"/>
      <point x="432" y="390"/>
      <point x="438" y="384"/>
      <point x="438" y="372" type="curve" smooth="yes"/>
      <point x="438" y="133" type="line" smooth="yes"/>
      <point x="438" y="112.033"/>
      <point x="436.64" y="107"/>
      <point x="416" y="107" type="curve" smooth="yes"/>
      <point x="402" y="107" type="line"/>
      <point x="402" y="0" type="line"/>
      <point x="499" y="0" type="line" smooth="yes"/>
      <point x="548.134" y="0"/>
      <point x="562" y="15.29"/>
      <point x="562" y="64" type="curve" smooth="yes"/>
      <point x="562" y="434" type="line" smooth="yes"/>
      <point x="562" y="479.952"/>
      <point x="541.224" y="497"/>
      <point x="495" y="497" type="curve" smooth="yes"/>
      <point x="315.186" y="497" type="line" smooth="yes"/>
      <point x="273.186" y="497"/>
      <point x="249.186" y="480"/>
      <point x="243.186" y="446" type="curve" smooth="yes"/>
      <point x="205.186" y="216" type="line"/>
      <point x="219.186" y="216" type="line" smooth="yes"/>
      <point x="229.186" y="216"/>
      <point x="234.186" y="209.333"/>
      <point x="234.186" y="196" type="curve" smooth="yes"/>
      <point x="234.186" y="132" type="line" smooth="yes"/>
      <point x="234.186" y="111.54"/>
      <point x="233.895" y="107"/>
      <point x="214.186" y="107" type="curve" smooth="yes"/>
      <point x="163" y="107" type="line" smooth="yes"/>
      <point x="151.667" y="107"/>
      <point x="146" y="114"/>
      <point x="146" y="128" type="curve" smooth="yes"/>
      <point x="146" y="368.998" type="line" smooth="yes"/>
      <point x="146" y="389.129"/>
      <point x="148.817" y="393.997"/>
      <point x="169" y="393.998" type="curve" smooth="yes"/>
      <point x="196.781" y="394" type="line"/>
    </contour>
  </outline>
</glyph>
<glyph name="si_Nga" format="1">
  <advance width="578"/>
  <unicode hex="0D9E"/>
  <outline>
    <contour>
      <point x="128" y="408.399" type="line"/>
      <point x="133.016" y="408.294"/>
      <point x="137.192" y="405.452"/>
      <point x="137.192" y="398.8" type="curve" smooth="yes"/>
      <point x="137.192" y="368" type="line" smooth="yes"/>
      <point x="137.192" y="365"/>
      <point x="134.192" y="362"/>
      <point x="131.192" y="362" type="curve" smooth="yes"/>
      <point x="94" y="362" type="line" smooth="yes"/>
      <point x="90" y="362"/>
      <point x="87" y="364"/>
      <point x="87" y="368" type="curve" smooth="yes"/>
      <point x="87" y="402" type="line" smooth="yes"/>
      <point x="87" y="405.591"/>
      <point x="90" y="408.191"/>
      <point x="93" y="408.191" type="curve" smooth="yes"/>
      <point x="223" y="408.191" type="line" smooth="yes"/>
      <point x="237.529" y="408.191"/>
      <point x="244" y="402.258"/>
      <point x="244" y="391" type="curve" smooth="yes"/>
      <point x="244" y="277.757" type="line"/>
      <point x="140.197" y="277.757" type="line" smooth="yes"/>
      <point x="102.38" y="277.757"/>
      <point x="84.1973" y="252.177"/>
      <point x="84.1973" y="218.75" type="curve" smooth="yes"/>
      <point x="84.1973" y="54" type="line" smooth="yes"/>
      <point x="84.1973" y="16.2734"/>
      <point x="95.1973" y="0"/>
      <point x="132.195" y="0" type="curve" smooth="yes"/>
      <point x="268" y="0" type="line" smooth="yes"/>
      <point x="291.197" y="0"/>
      <point x="311.826" y="16.3779"/>
      <point x="315" y="37" type="curve"/>
      <point x="321.666" y="12.333"/>
      <point x="338" y="0"/>
      <point x="364" y="0" type="curve" smooth="yes"/>
      <point x="500.197" y="0" type="line" smooth="yes"/>
      <point x="533.594" y="0"/>
      <point x="547.195" y="19.6377"/>
      <point x="547.195" y="50" type="curve" smooth="yes"/>
      <point x="547.195" y="560" type="line" smooth="yes"/>
      <point x="547.195" y="609.264"/>
      <point x="516.506" y="626"/>
      <point x="474.197" y="626" type="curve" smooth="yes"/>
      <point x="84.1982" y="626" type="line"/>
      <point x="84.1982" y="510" type="line"/>
      <point x="392.197" y="510" type="line" smooth="yes"/>
      <point x="416.081" y="510"/>
      <point x="423.194" y="503.852"/>
      <point x="423.194" y="479" type="curve" smooth="yes"/>
      <point x="423.194" y="128" type="line" smooth="yes"/>
      <point x="423.194" y="114"/>
      <point x="417.527" y="107"/>
      <point x="406.194" y="107" type="curve" smooth="yes"/>
      <point x="388.596" y="107" type="line" smooth="yes"/>
      <point x="373.262" y="107"/>
      <point x="365.596" y="116"/>
      <point x="365.596" y="134" type="curve" smooth="yes"/>
      <point x="365.596" y="166" type="line"/>
      <point x="266" y="166" type="line"/>
      <point x="266" y="132" type="line" smooth="yes"/>
      <point x="266" y="115.333"/>
      <point x="258.197" y="107"/>
      <point x="244" y="107" type="curve" smooth="yes"/>
      <point x="227.001" y="107" type="line" smooth="yes"/>
      <point x="214.197" y="107"/>
      <point x="208.197" y="114.667"/>
      <point x="208.197" y="130" type="curve" smooth="yes"/>
      <point x="208.197" y="189.602" type="line" smooth="yes"/>
      <point x="208.197" y="200.935"/>
      <point x="215.864" y="206.602"/>
      <point x="231.197" y="206.602" type="curve" smooth="yes"/>
      <point x="349" y="206.602" type="line"/>
      <point x="349" y="406.998" type="line" smooth="yes"/>
      <point x="349" y="457.626"/>
      <point x="315.2" y="470.801"/>
      <point x="277" y="470.808" type="curve" smooth="yes"/>
      <point x="78.6084" y="470.791" type="line" smooth="yes"/>
      <point x="42.453" y="470.788"/>
      <point x="22" y="452.455"/>
      <point x="22" y="421.788" type="curve" smooth="yes"/>
      <point x="22" y="362.804" type="line" smooth="yes"/>
      <point x="22" y="331.471"/>
      <point x="37" y="315.804"/>
      <point x="68" y="315.804" type="curve" smooth="yes"/>
      <point x="172" y="315.804" type="line" smooth="yes"/>
      <point x="187.471" y="315.804"/>
      <point x="200" y="324.761"/>
      <point x="200" y="344" type="curve" smooth="yes"/>
      <point x="200" y="397" type="line" smooth="yes"/>
      <point x="200" y="404.16"/>
      <point x="196" y="407.4"/>
      <point x="190" y="408.4" type="curve"/>
    </contour>
  </outline>
</glyph>
<glyph name="si_Nnga" format="1">
  <advance width="760"/>
  <unicode hex="0D9F"/>
  <outline>
    <contour>
      <point x="364.782" y="496.999" type="line"/>
      <point x="364.782" y="394" type="line"/>
      <point x="337.001" y="393.998" type="line" smooth="yes"/>
      <point x="316.818" y="393.997"/>
      <point x="314.001" y="389.129"/>
      <point x="314.001" y="368.998" type="curve" smooth="yes"/>
      <point x="314.001" y="128" type="line" smooth="yes"/>
      <point x="314.001" y="114"/>
      <point x="319.668" y="107"/>
      <point x="331.001" y="107" type="curve" smooth="yes"/>
      <point x="382.187" y="107" type="line" smooth="yes"/>
      <point x="401.896" y="107"/>
      <point x="402.187" y="111.54"/>
      <point x="402.187" y="132" type="curve" smooth="yes"/>
      <point x="402.187" y="196" type="line" smooth="yes"/>
      <point x="402.187" y="209.333"/>
      <point x="397.187" y="216"/>
      <point x="387.187" y="216" type="curve" smooth="yes"/>
      <point x="373.187" y="216" type="line"/>
      <point x="411.187" y="446" type="line" smooth="yes"/>
      <point x="417.187" y="480"/>
      <point x="441.187" y="497"/>
      <point x="483.187" y="497" type="curve" smooth="yes"/>
      <point x="663.001" y="497" type="line" smooth="yes"/>
      <point x="709.225" y="497"/>
      <point x="730.001" y="479.952"/>
      <point x="730.001" y="434" type="curve" smooth="yes"/>
      <point x="730.001" y="64" type="line" smooth="yes"/>
      <point x="730.001" y="15.29"/>
      <point x="716.135" y="0"/>
      <point x="667.001" y="0" type="curve" smooth="yes"/>
      <point x="570.001" y="0" type="line"/>
      <point x="570.001" y="107" type="line"/>
      <point x="584.001" y="107" type="line" smooth="yes"/>
      <point x="604.641" y="107"/>
      <point x="606.001" y="112.033"/>
      <point x="606.001" y="133" type="curve" smooth="yes"/>
      <point x="606.001" y="372" type="line" smooth="yes"/>
      <point x="606.001" y="384"/>
      <point x="600.001" y="390"/>
      <point x="588.001" y="390" type="curve" smooth="yes"/>
      <point x="537.187" y="390" type="line" smooth="yes"/>
      <point x="523.854" y="390"/>
      <point x="515.854" y="384.333"/>
      <point x="513.187" y="373" type="curve" smooth="yes"/>
      <point x="498.187" y="288" type="line"/>
      <point x="500.937" y="287.928" type="line" smooth="yes"/>
      <point x="515.77" y="287.538"/>
      <point x="523.187" y="276.896"/>
      <point x="523.187" y="256" type="curve" smooth="yes"/>
      <point x="523.187" y="60" type="line" smooth="yes"/>
      <point x="523.187" y="12.6074"/>
      <point x="503.786" y="0"/>
      <point x="456.187" y="0" type="curve" smooth="yes"/>
      <point x="238.001" y="0" type="line" smooth="yes"/>
      <point x="201.362" y="0"/>
      <point x="190.001" y="14.0518"/>
      <point x="190.001" y="51" type="curve" smooth="yes"/>
      <point x="190.001" y="440.999" type="line" smooth="yes"/>
      <point x="190.001" y="478.332"/>
      <point x="208.334" y="496.999"/>
      <point x="245.001" y="496.999" type="curve" smooth="yes"/>
    </contour>
    <contour>
      <point x="158.998" y="398" type="line" smooth="yes"/>
      <point x="146.598" y="398"/>
      <point x="140.001" y="391.999"/>
      <point x="140.001" y="373.999" type="curve" smooth="yes"/>
      <point x="140.001" y="-0.000976562" type="line"/>
      <point x="22" y="-0.000976562" type="line"/>
      <point x="22" y="405.999" type="line" smooth="yes"/>
      <point x="22" y="459.543"/>
      <point x="56.2471" y="496.999"/>
      <point x="108.4" y="496.999" type="curve" smooth="yes"/>
      <point x="255.002" y="496.998" type="line"/>
      <point x="202.001" y="397.999" type="line"/>
    </contour>
  </outline>
</glyph>
<glyph name="si_Ca" format="1">
  <advance width="539"/>
  <unicode hex="0DA0"/>
  <outline>
    <contour>
      <point x="-6" y="318.989" type="line"/>
      <point x="162" y="318.989" type="line"/>
      <point x="162" y="224.989" type="line"/>
      <point x="-6.00195" y="224.989" type="line"/>
    </contour>
    <contour>
      <point x="508.997" y="415" type="line"/>
      <point x="508.997" y="54" type="line" smooth="yes"/>
      <point x="508.997" y="16.2705"/>
      <point x="496.072" y="0"/>
      <point x="458.997" y="0" type="curve" smooth="yes"/>
      <point x="95.9971" y="0" type="line" smooth="yes"/>
      <point x="58.9248" y="0"/>
      <point x="45.9971" y="16.2734"/>
      <point x="45.9971" y="54" type="curve" smooth="yes"/>
      <point x="45.9971" y="175.792" type="line" smooth="yes"/>
      <point x="45.9971" y="208.003"/>
      <point x="53.9268" y="221.157"/>
      <point x="62" y="229.792" type="curve" smooth="yes"/>
      <point x="62" y="229.792"/>
      <point x="118.863" y="318.999"/>
      <point x="148" y="318.999" type="curve" smooth="yes"/>
      <point x="167.997" y="318.999" type="line"/>
      <point x="167.997" y="353" type="line" smooth="yes"/>
      <point x="167.997" y="362.333"/>
      <point x="162.664" y="367"/>
      <point x="151.997" y="367" type="curve" smooth="yes"/>
      <point x="45.9961" y="367" type="line"/>
      <point x="45.9961" y="470" type="line"/>
      <point x="228.997" y="470" type="line" smooth="yes"/>
      <point x="270.702" y="470"/>
      <point x="291.996" y="448.41"/>
      <point x="291.996" y="412" type="curve" smooth="yes"/>
      <point x="291.996" y="224.999" type="line"/>
      <point x="205.398" y="224.999" type="line" smooth="yes"/>
      <point x="177.746" y="224.999"/>
      <point x="169.997" y="209.491"/>
      <point x="169.997" y="180" type="curve" smooth="yes"/>
      <point x="169.997" y="129" type="line" smooth="yes"/>
      <point x="169.997" y="114.333"/>
      <point x="175.997" y="107"/>
      <point x="187.997" y="107" type="curve" smooth="yes"/>
      <point x="366.997" y="107" type="line" smooth="yes"/>
      <point x="378.997" y="107"/>
      <point x="384.997" y="114.333"/>
      <point x="384.997" y="129" type="curve" smooth="yes"/>
      <point x="384.997" y="415" type="line"/>
    </contour>
    <contour>
      <point x="439.997" y="625" type="line" smooth="yes"/>
      <point x="494.997" y="625"/>
      <point x="508.997" y="600.687"/>
      <point x="508.997" y="544" type="curve" smooth="yes"/>
      <point x="508.997" y="400" type="line"/>
      <point x="384.997" y="400" type="line"/>
      <point x="384.997" y="494.602" type="line" smooth="yes"/>
      <point x="384.997" y="512.95"/>
      <point x="378.059" y="517.602"/>
      <point x="358.997" y="517.602" type="curve" smooth="yes"/>
      <point x="45.9971" y="517.602" type="line"/>
      <point x="45.9971" y="625" type="line"/>
    </contour>
  </outline>
</glyph>
<glyph name="si_Ja" format="1">
  <advance width="513"/>
  <unicode hex="0DA2"/>
  <outline>
    <contour>
      <point x="429" y="486" type="curve"/>
      <point x="291.999" y="486.4" type="line"/>
      <point x="301.851" y="493.377"/>
      <point x="313" y="498.099"/>
      <point x="331" y="532" type="curve" smooth="yes"/>
      <point x="391" y="643.198" type="line"/>
      <point x="524" y="643.198" type="line"/>
      <point x="465.996" y="524" type="line" smooth="yes"/>
      <point x="455.539" y="502.185"/>
      <point x="437.587" y="489.982"/>
    </contour>
    <contour>
      <point x="164" y="107" type="curve" smooth="yes"/>
      <point x="343" y="107" type="line" smooth="yes"/>
      <point x="355" y="107"/>
      <point x="361" y="114.333"/>
      <point x="361" y="129" type="curve" smooth="yes"/>
      <point x="361" y="234" type="line" smooth="yes"/>
      <point x="361" y="246.667"/>
      <point x="354" y="253"/>
      <point x="340" y="253" type="curve" smooth="yes"/>
      <point x="267" y="253" type="line"/>
      <point x="267" y="443" type="line" smooth="yes"/>
      <point x="267" y="480.766"/>
      <point x="300.331" y="497"/>
      <point x="339" y="497" type="curve" smooth="yes"/>
      <point x="484" y="497" type="line"/>
      <point x="484" y="394" type="line"/>
      <point x="379" y="394" type="line" smooth="yes"/>
      <point x="368.333" y="394"/>
      <point x="363" y="389.333"/>
      <point x="363" y="380" type="curve" smooth="yes"/>
      <point x="363" y="356" type="line"/>
      <point x="429" y="356" type="line" smooth="yes"/>
      <point x="466.333" y="356"/>
      <point x="485" y="337.333"/>
      <point x="485" y="300" type="curve" smooth="yes"/>
      <point x="485" y="54" type="line" smooth="yes"/>
      <point x="485" y="16.273"/>
      <point x="472.072" y="0"/>
      <point x="435" y="0" type="curve" smooth="yes"/>
      <point x="72" y="0" type="line" smooth="yes"/>
      <point x="34.9249" y="0"/>
      <point x="22" y="16.2703"/>
      <point x="22" y="54" type="curve" smooth="yes"/>
      <point x="22" y="300" type="line" smooth="yes"/>
      <point x="22" y="337.333"/>
      <point x="40.6667" y="356"/>
      <point x="78" y="356" type="curve" smooth="yes"/>
      <point x="144" y="356" type="line"/>
      <point x="144" y="380" type="line" smooth="yes"/>
      <point x="144" y="389"/>
      <point x="138.667" y="394"/>
      <point x="128" y="394" type="curve" smooth="yes"/>
      <point x="23" y="394" type="line"/>
      <point x="23" y="497" type="line"/>
      <point x="168" y="497" type="line" smooth="yes"/>
      <point x="206.656" y="497"/>
      <point x="240" y="480.761"/>
      <point x="240" y="443" type="curve" smooth="yes"/>
      <point x="240" y="253" type="line"/>
      <point x="167" y="253" type="line" smooth="yes"/>
      <point x="156" y="253"/>
      <point x="146" y="246.667"/>
      <point x="146" y="234" type="curve" smooth="yes"/>
      <point x="146" y="129" type="line" smooth="yes"/>
      <point x="146" y="114.333"/>
      <point x="152" y="107"/>
    </contour>
  </outline>
</glyph>
<glyph name="si_Tta" format="1">
  <advance width="515"/>
  <unicode hex="0DA7"/>
  <outline>
    <contour>
      <point x="254" y="314" type="line"/>
      <point x="167" y="314" type="line" smooth="yes"/>
      <point x="153" y="314"/>
      <point x="146" y="307.667"/>
      <point x="146" y="295" type="curve" smooth="yes"/>
      <point x="146" y="129" type="line" smooth="yes"/>
      <point x="146" y="114.333"/>
      <point x="152" y="107"/>
      <point x="164" y="107" type="curve" smooth="yes"/>
      <point x="343" y="107" type="line" smooth="yes"/>
      <point x="355" y="107"/>
      <point x="361" y="114.333"/>
      <point x="361" y="129" type="curve" smooth="yes"/>
      <point x="361" y="415" type="line"/>
      <point x="485" y="415" type="line"/>
      <point x="485" y="54" type="line" smooth="yes"/>
      <point x="485" y="16.2703"/>
      <point x="472.075" y="0"/>
      <point x="435" y="0" type="curve" smooth="yes"/>
      <point x="72" y="0" type="line" smooth="yes"/>
      <point x="34.9277" y="0"/>
      <point x="22" y="16.273"/>
      <point x="22" y="54" type="curve" smooth="yes"/>
      <point x="22" y="365.602" type="line" smooth="yes"/>
      <point x="22" y="402.269"/>
      <point x="40.667" y="420.602"/>
      <point x="78" y="420.602" type="curve" smooth="yes"/>
      <point x="253.998" y="420.602" type="line"/>
    </contour>
    <contour>
      <point x="416" y="625" type="line" smooth="yes"/>
      <point x="471" y="625"/>
      <point x="485" y="600.687"/>
      <point x="485" y="544" type="curve" smooth="yes"/>
      <point x="485" y="400" type="line"/>
      <point x="361" y="400" type="line"/>
      <point x="361" y="494.602" type="line" smooth="yes"/>
      <point x="361" y="512.95"/>
      <point x="354.062" y="517.602"/>
      <point x="335" y="517.602" type="curve" smooth="yes"/>
      <point x="22" y="517.602" type="line"/>
      <point x="22" y="625" type="line"/>
    </contour>
  </outline>
</glyph>
<glyph name="si_Dda" format="1">
  <advance width="564"/>
  <unicode hex="0DA9"/>
  <outline>
    <contour>
      <point x="-6" y="329.003" type="line"/>
      <point x="88" y="329.003" type="line"/>
      <point x="88" y="232.003" type="line"/>
      <point x="-6" y="232.003" type="line"/>
    </contour>
    <contour>
      <point x="69.998" y="0" type="line" smooth="yes"/>
      <point x="33" y="0"/>
      <point x="22" y="16.273"/>
      <point x="22" y="54" type="curve" smooth="yes"/>
      <point x="22" y="191.007" type="line" smooth="yes"/>
      <point x="22" y="212.34"/>
      <point x="29.667" y="226.674"/>
      <point x="45" y="234.007" type="curve"/>
      <point x="61.2197" y="256.309"/>
      <point x="40.8584" y="329.007"/>
      <point x="78" y="329.007" type="curve" smooth="yes"/>
      <point x="168.05" y="329.007" type="line"/>
      <point x="168.042" y="329.234"/>
      <point x="168" y="352.007"/>
      <point x="168" y="352.007" type="curve" smooth="yes"/>
      <point x="168" y="362.007"/>
      <point x="161.333" y="367.007"/>
      <point x="148" y="367.007" type="curve" smooth="yes"/>
      <point x="23" y="367.007" type="line"/>
      <point x="23" y="470.007" type="line"/>
      <point x="192" y="470.007" type="line" smooth="yes"/>
      <point x="230.669" y="470.007"/>
      <point x="264" y="453.772"/>
      <point x="264" y="416.007" type="curve" smooth="yes"/>
      <point x="264" y="226.007" type="line"/>
      <point x="169" y="226.007" type="line" smooth="yes"/>
      <point x="153.667" y="226.007"/>
      <point x="146" y="220.34"/>
      <point x="146" y="209.007" type="curve" smooth="yes"/>
      <point x="146" y="130" type="line" smooth="yes"/>
      <point x="146" y="114.667"/>
      <point x="152" y="107"/>
      <point x="164.804" y="107" type="curve" smooth="yes"/>
      <point x="181.803" y="107" type="line" smooth="yes"/>
      <point x="196" y="107"/>
      <point x="203.803" y="115.333"/>
      <point x="203.803" y="132" type="curve" smooth="yes"/>
      <point x="203.803" y="185.405" type="line"/>
      <point x="303.398" y="185.405" type="line"/>
      <point x="303.398" y="134" type="line" smooth="yes"/>
      <point x="303.398" y="116"/>
      <point x="311.064" y="107"/>
      <point x="326.398" y="107" type="curve" smooth="yes"/>
      <point x="343.997" y="107" type="line" smooth="yes"/>
      <point x="355.33" y="107"/>
      <point x="360.997" y="114"/>
      <point x="360.997" y="128" type="curve" smooth="yes"/>
      <point x="360.997" y="479" type="line" smooth="yes"/>
      <point x="360.997" y="503.852"/>
      <point x="353.884" y="510"/>
      <point x="330" y="510" type="curve" smooth="yes"/>
      <point x="22.001" y="510" type="line"/>
      <point x="22.001" y="626" type="line"/>
      <point x="412" y="626" type="line" smooth="yes"/>
      <point x="454.309" y="626"/>
      <point x="484.998" y="609.264"/>
      <point x="484.998" y="560" type="curve" smooth="yes"/>
      <point x="484.998" y="50" type="line" smooth="yes"/>
      <point x="484.998" y="19.6379"/>
      <point x="471.396" y="-4.08988e-15"/>
      <point x="438" y="0" type="curve" smooth="yes"/>
      <point x="301.803" y="0" type="line" smooth="yes"/>
      <point x="275.803" y="0"/>
      <point x="259.469" y="12.333"/>
      <point x="252.803" y="37" type="curve"/>
      <point x="249.629" y="16.3779"/>
      <point x="229" y="0"/>
      <point x="205.803" y="0" type="curve" smooth="yes"/>
    </contour>
  </outline>
</glyph>
<glyph name="si_Ddha" format="1">
  <advance width="515"/>
  <unicode hex="0DAA"/>
  <outline>
    <contour>
      <point x="293.203" y="538" type="line"/>
      <point x="293.203" y="514.6" type="line" smooth="yes"/>
      <point x="293.203" y="496.191"/>
      <point x="300.605" y="496.015"/>
      <point x="314.986" y="496.015" type="curve" smooth="yes"/>
      <point x="358.199" y="496.015" type="line"/>
      <point x="358.2" y="522.001" type="line" smooth="yes"/>
      <point x="358.2" y="529.711"/>
      <point x="356.312" y="538"/>
      <point x="346" y="538" type="curve" smooth="yes"/>
    </contour>
    <contour>
      <point x="485.001" y="394" type="line"/>
      <point x="361" y="394" type="line"/>
      <point x="361" y="427.015" type="line"/>
      <point x="228.986" y="427.015" type="line" smooth="yes"/>
      <point x="195.694" y="427.015"/>
      <point x="183.203" y="437.986"/>
      <point x="183.203" y="474.4" type="curve" smooth="yes"/>
      <point x="183.203" y="539" type="line"/>
      <point x="137.809" y="539" type="line"/>
      <point x="137.809" y="626" type="line"/>
      <point x="419" y="626" type="line" smooth="yes"/>
      <point x="466.56" y="626"/>
      <point x="485.001" y="610.567"/>
      <point x="485.001" y="559" type="curve" smooth="yes"/>
    </contour>
    <contour>
      <point x="-6" y="290.791" type="line"/>
      <point x="88" y="290.791" type="line"/>
      <point x="88" y="207.791" type="line"/>
      <point x="-6" y="207.791" type="line"/>
    </contour>
    <contour>
      <point x="484.998" y="412" type="line"/>
      <point x="484.998" y="50" type="line" smooth="yes"/>
      <point x="484.998" y="19.6379"/>
      <point x="471.396" y="-4.08988e-15"/>
      <point x="438" y="0" type="curve" smooth="yes"/>
      <point x="301.803" y="0" type="line" smooth="yes"/>
      <point x="275.803" y="0"/>
      <point x="259.469" y="12.333"/>
      <point x="252.803" y="37" type="curve"/>
      <point x="249.629" y="16.3779"/>
      <point x="229" y="0"/>
      <point x="205.803" y="0" type="curve" smooth="yes"/>
      <point x="69.998" y="0" type="line" smooth="yes"/>
      <point x="33" y="0"/>
      <point x="22" y="16.273"/>
      <point x="22" y="54" type="curve" smooth="yes"/>
      <point x="22" y="166.795" type="line" smooth="yes"/>
      <point x="22" y="188.128"/>
      <point x="29.667" y="202.462"/>
      <point x="45" y="209.795" type="curve"/>
      <point x="61.2197" y="232.097"/>
      <point x="40.8584" y="290.795"/>
      <point x="78" y="290.795" type="curve" smooth="yes"/>
      <point x="168.05" y="290.795" type="line"/>
      <point x="168.042" y="291.022"/>
      <point x="168" y="310.592"/>
      <point x="168" y="310.592" type="curve" smooth="yes"/>
      <point x="168" y="320.592"/>
      <point x="161.333" y="325.592"/>
      <point x="148" y="325.592" type="curve" smooth="yes"/>
      <point x="23" y="325.592" type="line"/>
      <point x="23" y="419.585" type="line"/>
      <point x="192" y="419.585" type="line" smooth="yes"/>
      <point x="230.669" y="419.585"/>
      <point x="264" y="403.351"/>
      <point x="264" y="365.585" type="curve" smooth="yes"/>
      <point x="264" y="201.795" type="line"/>
      <point x="169" y="201.795" type="line" smooth="yes"/>
      <point x="153.667" y="201.795"/>
      <point x="146" y="196.128"/>
      <point x="146" y="184.795" type="curve" smooth="yes"/>
      <point x="146" y="130" type="line" smooth="yes"/>
      <point x="146" y="114.667"/>
      <point x="152" y="107"/>
      <point x="164.804" y="107" type="curve" smooth="yes"/>
      <point x="181.803" y="107" type="line" smooth="yes"/>
      <point x="196" y="107"/>
      <point x="203.803" y="115.333"/>
      <point x="203.803" y="132" type="curve" smooth="yes"/>
      <point x="203.803" y="161.193" type="line"/>
      <point x="303.398" y="161.193" type="line"/>
      <point x="303.398" y="134" type="line" smooth="yes"/>
      <point x="303.398" y="116"/>
      <point x="311.064" y="107"/>
      <point x="326.398" y="107" type="curve" smooth="yes"/>
      <point x="343.997" y="107" type="line" smooth="yes"/>
      <point x="355.33" y="107"/>
      <point x="360.997" y="114"/>
      <point x="360.997" y="128" type="curve" smooth="yes"/>
      <point x="360.997" y="412.001" type="line"/>
    </contour>
  </outline>
</glyph>
<glyph name="si_Na" format="1">
  <advance width="591"/>
  <unicode hex="0DB1"/>
  <outline>
    <contour>
      <point x="266" y="418" type="line"/>
      <point x="176" y="311" type="line"/>
      <point x="176" y="373.5" type="line" smooth="yes"/>
      <point x="176" y="387.167"/>
      <point x="168.333" y="394"/>
      <point x="153" y="394" type="curve" smooth="yes"/>
      <point x="22" y="394" type="line"/>
      <point x="22" y="497" type="line"/>
      <point x="195" y="497" type="line" smooth="yes"/>
      <point x="238.332" y="497"/>
      <point x="266" y="474.113"/>
      <point x="266" y="431" type="curve" smooth="yes"/>
    </contour>
    <contour>
      <point x="212" y="223" type="line"/>
      <point x="292" y="314.56" type="line"/>
      <point x="322" y="314.5" type="line" smooth="yes"/>
      <point x="357.002" y="314.43"/>
      <point x="370" y="299.698"/>
      <point x="370" y="266.572" type="curve" smooth="yes"/>
      <point x="370" y="60" type="line" smooth="yes"/>
      <point x="370" y="12.6075"/>
      <point x="350.6" y="0"/>
      <point x="303" y="0" type="curve" smooth="yes"/>
      <point x="70" y="0" type="line" smooth="yes"/>
      <point x="33.3613" y="0"/>
      <point x="22" y="14.0518"/>
      <point x="22" y="51" type="curve" smooth="yes"/>
      <point x="22" y="341.25" type="line"/>
      <point x="136.5" y="341.25" type="line"/>
      <point x="136.5" y="278.799" type="line"/>
      <point x="144.5" y="160.803" type="line"/>
      <point x="144.5" y="125.25" type="line" smooth="yes"/>
      <point x="144.5" y="111.04"/>
      <point x="147.676" y="107"/>
      <point x="161.5" y="107" type="curve" smooth="yes"/>
      <point x="229" y="107" type="line" smooth="yes"/>
      <point x="248.709" y="107"/>
      <point x="249" y="111.54"/>
      <point x="249" y="132" type="curve" smooth="yes"/>
      <point x="249" y="203" type="line" smooth="yes"/>
      <point x="249" y="216.333"/>
      <point x="244" y="223"/>
      <point x="234" y="223" type="curve" smooth="yes"/>
    </contour>
    <contour>
      <point x="170" y="162.803" type="line" smooth="yes"/>
      <point x="163.282" y="155.15"/>
      <point x="156.698" y="151.324"/>
      <point x="150.25" y="151.324" type="curve" smooth="yes"/>
      <point x="140.75" y="151.324"/>
      <point x="136" y="153.566"/>
      <point x="136" y="158.053" type="curve"/>
      <point x="134" y="298.147" type="line"/>
      <point x="137.068" y="296.313"/>
      <point x="139.318" y="295.396"/>
      <point x="140.75" y="295.396" type="curve" smooth="yes"/>
      <point x="143.446" y="295.396"/>
      <point x="146.196" y="297.063"/>
      <point x="149" y="300.397" type="curve" smooth="yes"/>
      <point x="276" y="454" type="line" smooth="yes"/>
      <point x="298.473" y="480.181"/>
      <point x="314.072" y="497"/>
      <point x="357.25" y="497" type="curve" smooth="yes"/>
      <point x="495" y="497" type="line" smooth="yes"/>
      <point x="541.224" y="497"/>
      <point x="562" y="479.952"/>
      <point x="562" y="434" type="curve" smooth="yes"/>
      <point x="562" y="64" type="line" smooth="yes"/>
      <point x="562" y="15.2903"/>
      <point x="548.134" y="0"/>
      <point x="499" y="0" type="curve" smooth="yes"/>
      <point x="402" y="0" type="line"/>
      <point x="402" y="107" type="line"/>
      <point x="416" y="107" type="line" smooth="yes"/>
      <point x="436.64" y="107"/>
      <point x="438" y="112.033"/>
      <point x="438" y="133" type="curve" smooth="yes"/>
      <point x="438" y="372" type="line" smooth="yes"/>
      <point x="438" y="384"/>
      <point x="432" y="390"/>
      <point x="420" y="390" type="curve" smooth="yes"/>
      <point x="385" y="390" type="line" smooth="yes"/>
      <point x="376.333" y="390"/>
      <point x="367" y="384.333"/>
      <point x="357" y="373" type="curve" smooth="yes"/>
    </contour>
  </outline>
</glyph>
<glyph name="si_Nda" format="1">
  <advance width="624"/>
  <unicode hex="0DB3"/>
  <outline>
    <contour>
      <point x="158.998" y="407.001" type="line" smooth="yes"/>
      <point x="146.598" y="407.001"/>
      <point x="140.001" y="401"/>
      <point x="140.001" y="383" type="curve" smooth="yes"/>
      <point x="140.001" y="1" type="line"/>
      <point x="22" y="1" type="line"/>
      <point x="22" y="407" type="line" smooth="yes"/>
      <point x="22" y="460.544"/>
      <point x="56.2471" y="498"/>
      <point x="108.4" y="498" type="curve" smooth="yes"/>
      <point x="255.002" y="497.999" type="line"/>
      <point x="202.001" y="407" type="line"/>
    </contour>
    <component base="si_Da" xOffset="164"/>
  </outline>
</glyph>
<glyph name="si_Pa" format="1">
  <advance width="513"/>
  <unicode hex="0DB4"/>
  <outline>
    <contour>
      <point x="22" y="54" type="curve" smooth="yes"/>
      <point x="22" y="300" type="line" smooth="yes"/>
      <point x="22" y="337.333"/>
      <point x="40.6667" y="356"/>
      <point x="78" y="356" type="curve" smooth="yes"/>
      <point x="144" y="356" type="line"/>
      <point x="144" y="380" type="line" smooth="yes"/>
      <point x="144" y="389"/>
      <point x="138.667" y="394"/>
      <point x="128" y="394" type="curve" smooth="yes"/>
      <point x="23" y="394" type="line"/>
      <point x="23" y="497" type="line"/>
      <point x="168" y="497" type="line" smooth="yes"/>
      <point x="206.656" y="497"/>
      <point x="240" y="480.761"/>
      <point x="240" y="443" type="curve" smooth="yes"/>
      <point x="240" y="253" type="line"/>
      <point x="167" y="253" type="line" smooth="yes"/>
      <point x="156" y="253"/>
      <point x="146" y="246.667"/>
      <point x="146" y="234" type="curve" smooth="yes"/>
      <point x="146" y="129" type="line" smooth="yes"/>
      <point x="146" y="114.333"/>
      <point x="152" y="107"/>
      <point x="164" y="107" type="curve" smooth="yes"/>
      <point x="343" y="107" type="line" smooth="yes"/>
      <point x="355" y="107"/>
      <point x="361" y="114.333"/>
      <point x="361" y="129" type="curve" smooth="yes"/>
      <point x="361" y="234" type="line" smooth="yes"/>
      <point x="361" y="246.667"/>
      <point x="354" y="253"/>
      <point x="340" y="253" type="curve" smooth="yes"/>
      <point x="267" y="253" type="line"/>
      <point x="267" y="443" type="line" smooth="yes"/>
      <point x="267" y="480.766"/>
      <point x="300.331" y="497"/>
      <point x="339" y="497" type="curve" smooth="yes"/>
      <point x="484" y="497" type="line"/>
      <point x="484" y="394" type="line"/>
      <point x="379" y="394" type="line" smooth="yes"/>
      <point x="368.333" y="394"/>
      <point x="363" y="389.333"/>
      <point x="363" y="380" type="curve" smooth="yes"/>
      <point x="363" y="356" type="line"/>
      <point x="429" y="356" type="line" smooth="yes"/>
      <point x="466.333" y="356"/>
      <point x="485" y="337.333"/>
      <point x="485" y="300" type="curve" smooth="yes"/>
      <point x="485" y="54" type="line" smooth="yes"/>
      <point x="485" y="16.273"/>
      <point x="472.072" y="0"/>
      <point x="435" y="0" type="curve" smooth="yes"/>
      <point x="72" y="0" type="line" smooth="yes"/>
      <point x="34.9249" y="0"/>
      <point x="22" y="16.2703"/>
    </contour>
  </outline>
</glyph>
<glyph name="si_Pha" format="1">
  <advance width="515"/>
  <unicode hex="0DB5"/>
  <outline>
    <contour>
      <point x="293.203" y="538" type="line"/>
      <point x="293.203" y="514.6" type="line" smooth="yes"/>
      <point x="293.203" y="496.191"/>
      <point x="300.605" y="496.015"/>
      <point x="314.986" y="496.015" type="curve" smooth="yes"/>
      <point x="358.199" y="496.015" type="line"/>
      <point x="358.2" y="522.001" type="line" smooth="yes"/>
      <point x="358.2" y="529.711"/>
      <point x="356.312" y="538"/>
      <point x="346" y="538" type="curve" smooth="yes"/>
    </contour>
    <contour>
      <point x="485.001" y="394" type="line"/>
      <point x="361" y="394" type="line"/>
      <point x="361" y="427.015" type="line"/>
      <point x="228.986" y="427.015" type="line" smooth="yes"/>
      <point x="195.694" y="427.015"/>
      <point x="183.203" y="437.986"/>
      <point x="183.203" y="474.4" type="curve" smooth="yes"/>
      <point x="183.203" y="539" type="line"/>
      <point x="137.809" y="539" type="line"/>
      <point x="137.809" y="626" type="line"/>
      <point x="419" y="626" type="line" smooth="yes"/>
      <point x="466.56" y="626"/>
      <point x="485.001" y="610.567"/>
      <point x="485.001" y="559" type="curve" smooth="yes"/>
    </contour>
    <contour>
      <point x="485" y="415" type="line"/>
      <point x="485" y="54" type="line" smooth="yes"/>
      <point x="485" y="16.2703"/>
      <point x="472.075" y="0"/>
      <point x="435" y="0" type="curve" smooth="yes"/>
      <point x="72" y="0" type="line" smooth="yes"/>
      <point x="34.9277" y="0"/>
      <point x="22" y="16.273"/>
      <point x="22" y="54" type="curve" smooth="yes"/>
      <point x="22" y="216.999" type="line" smooth="yes"/>
      <point x="22" y="253.666"/>
      <point x="40.667" y="271.999"/>
      <point x="78" y="271.999" type="curve" smooth="yes"/>
      <point x="144" y="271.999" type="line"/>
      <point x="144" y="306" type="line" smooth="yes"/>
      <point x="144" y="315.333"/>
      <point x="138.667" y="320"/>
      <point x="128" y="320" type="curve" smooth="yes"/>
      <point x="21.999" y="320" type="line"/>
      <point x="21.999" y="415.393" type="line"/>
      <point x="205" y="415.393" type="line" smooth="yes"/>
      <point x="246.705" y="415.393"/>
      <point x="267.999" y="393.803"/>
      <point x="267.999" y="357.393" type="curve" smooth="yes"/>
      <point x="267.999" y="189.797" type="line"/>
      <point x="167" y="189.797" type="line" smooth="yes"/>
      <point x="153" y="189.797"/>
      <point x="146" y="183.464"/>
      <point x="146" y="170.797" type="curve" smooth="yes"/>
      <point x="146" y="129" type="line" smooth="yes"/>
      <point x="146" y="114.333"/>
      <point x="152" y="107"/>
      <point x="164" y="107" type="curve" smooth="yes"/>
      <point x="343" y="107" type="line" smooth="yes"/>
      <point x="355" y="107"/>
      <point x="361" y="114.333"/>
      <point x="361" y="129" type="curve" smooth="yes"/>
      <point x="361" y="415" type="line"/>
    </contour>
  </outline>
</glyph>
<glyph name="si_Sha" format="1">
  <advance width="592"/>
  <unicode hex="0DC1"/>
  <outline>
    <contour>
      <point x="410.393" y="95.5889" type="line"/>
      <point x="378.182" y="104.794"/>
      <point x="358.793" y="126.841"/>
      <point x="358.793" y="171" type="curve" smooth="yes"/>
      <point x="358.793" y="274" type="line" smooth="yes"/>
      <point x="358.793" y="300.033"/>
      <point x="372.956" y="313.799"/>
      <point x="403" y="313.8" type="curve" smooth="yes"/>
      <point x="441.003" y="313.801" type="line"/>
      <point x="441.003" y="333.2"/>
      <point x="441.003" y="352.601"/>
      <point x="441.003" y="372" type="curve" smooth="yes"/>
      <point x="441.003" y="384"/>
      <point x="435.003" y="390"/>
      <point x="423.003" y="390" type="curve" smooth="yes"/>
      <point x="348.165" y="390" type="line" smooth="yes"/>
      <point x="334.832" y="390"/>
      <point x="326.832" y="384.333"/>
      <point x="324.165" y="373" type="curve" smooth="yes"/>
      <point x="309.165" y="288" type="line"/>
      <point x="311.915" y="287.928" type="line" smooth="yes"/>
      <point x="326.748" y="287.538"/>
      <point x="334.165" y="276.896"/>
      <point x="334.165" y="256" type="curve" smooth="yes"/>
      <point x="334.165" y="60" type="line" smooth="yes"/>
      <point x="334.165" y="12.6074"/>
      <point x="314.765" y="0"/>
      <point x="267.165" y="0" type="curve" smooth="yes"/>
      <point x="74" y="0" type="line" smooth="yes"/>
      <point x="37.3613" y="0"/>
      <point x="22" y="24.0518"/>
      <point x="22" y="61" type="curve" smooth="yes"/>
      <point x="22" y="436" type="line" smooth="yes"/>
      <point x="22" y="473.333"/>
      <point x="44.333" y="497"/>
      <point x="81" y="497" type="curve" smooth="yes"/>
      <point x="188.773" y="496.999" type="line"/>
      <point x="188.773" y="394" type="line"/>
      <point x="169" y="393.998" type="line" smooth="yes"/>
      <point x="148.817" y="393.997"/>
      <point x="146" y="389.129"/>
      <point x="146" y="368.998" type="curve" smooth="yes"/>
      <point x="146" y="128" type="line" smooth="yes"/>
      <point x="146" y="114"/>
      <point x="151.667" y="107"/>
      <point x="163" y="107" type="curve" smooth="yes"/>
      <point x="193.165" y="107" type="line" smooth="yes"/>
      <point x="212.874" y="107"/>
      <point x="213.165" y="111.54"/>
      <point x="213.165" y="132" type="curve" smooth="yes"/>
      <point x="213.165" y="196" type="line" smooth="yes"/>
      <point x="213.165" y="209.333"/>
      <point x="208.165" y="216"/>
      <point x="198.165" y="216" type="curve" smooth="yes"/>
      <point x="184.165" y="216" type="line"/>
      <point x="222.165" y="446" type="line" smooth="yes"/>
      <point x="228.165" y="480"/>
      <point x="252.165" y="497"/>
      <point x="294.165" y="497" type="curve" smooth="yes"/>
      <point x="495" y="497" type="line" smooth="yes"/>
      <point x="541.224" y="497"/>
      <point x="562" y="479.952"/>
      <point x="562" y="434" type="curve" smooth="yes"/>
      <point x="562" y="64" type="line" smooth="yes"/>
      <point x="562" y="15.29"/>
      <point x="548.134" y="-6.01715e-15"/>
      <point x="499" y="0" type="curve" smooth="yes"/>
      <point x="357.801" y="0" type="line"/>
      <point x="357.801" y="95.5889" type="line"/>
    </contour>
    <contour>
      <point x="449.195" y="236.203" type="line"/>
      <point x="424" y="236.203" type="line" smooth="yes"/>
      <point x="417.808" y="236.203"/>
      <point x="416.793" y="232.281"/>
      <point x="416.793" y="227.203" type="curve" smooth="yes"/>
      <point x="416.793" y="176.589" type="line" smooth="yes"/>
      <point x="416.793" y="141.922"/>
      <point x="433.415" y="133.766"/>
      <point x="449.195" y="127.784" type="curve"/>
    </contour>
  </outline>
</glyph>
<glyph name="si_Sa" format="1">
  <advance width="576"/>
  <unicode hex="0DC3"/>
  <outline>
    <contour>
      <point x="225" y="0" type="curve" smooth="yes"/>
      <point x="72" y="0" type="line" smooth="yes"/>
      <point x="34.9277" y="0"/>
      <point x="22" y="16.273"/>
      <point x="22" y="54" type="curve" smooth="yes"/>
      <point x="22" y="218" type="line" smooth="yes"/>
      <point x="22" y="239.333"/>
      <point x="29.6667" y="253.667"/>
      <point x="45" y="261" type="curve"/>
      <point x="61.2198" y="283.302"/>
      <point x="40.8581" y="356"/>
      <point x="78" y="356" type="curve" smooth="yes"/>
      <point x="168.05" y="356" type="line"/>
      <point x="168.042" y="356.227"/>
      <point x="168" y="379"/>
      <point x="168" y="379" type="curve" smooth="yes"/>
      <point x="168" y="389"/>
      <point x="161.333" y="394"/>
      <point x="148" y="394" type="curve" smooth="yes"/>
      <point x="23" y="394" type="line"/>
      <point x="23" y="497" type="line"/>
      <point x="192" y="497" type="line" smooth="yes"/>
      <point x="230.669" y="497"/>
      <point x="264" y="480.766"/>
      <point x="264" y="443" type="curve" smooth="yes"/>
      <point x="264" y="253" type="line"/>
      <point x="169" y="253" type="line" smooth="yes"/>
      <point x="153.667" y="253"/>
      <point x="146" y="247.333"/>
      <point x="146" y="236" type="curve" smooth="yes"/>
      <point x="146" y="130" type="line" smooth="yes"/>
      <point x="146" y="114.667"/>
      <point x="152" y="107"/>
      <point x="164" y="107" type="curve" smooth="yes"/>
      <point x="196" y="107" type="line" smooth="yes"/>
      <point x="213.333" y="107"/>
      <point x="222" y="115.667"/>
      <point x="222" y="133" type="curve" smooth="yes"/>
      <point x="222" y="190" type="line"/>
      <point x="334" y="190" type="line"/>
      <point x="334" y="133" type="line" smooth="yes"/>
      <point x="334" y="115.667"/>
      <point x="343" y="107"/>
      <point x="361" y="107" type="curve" smooth="yes"/>
      <point x="392" y="107" type="line" smooth="yes"/>
      <point x="404" y="107"/>
      <point x="410" y="114.667"/>
      <point x="410" y="130" type="curve" smooth="yes"/>
      <point x="410" y="236" type="line" smooth="yes"/>
      <point x="410" y="247.333"/>
      <point x="402.333" y="253"/>
      <point x="387" y="253" type="curve" smooth="yes"/>
      <point x="292" y="253" type="line"/>
      <point x="291.999" y="443" type="line" smooth="yes"/>
      <point x="291.999" y="480.775"/>
      <point x="325.296" y="497"/>
      <point x="364" y="497" type="curve" smooth="yes"/>
      <point x="533" y="497" type="line"/>
      <point x="533" y="394" type="line"/>
      <point x="409" y="394" type="line" smooth="yes"/>
      <point x="395" y="394"/>
      <point x="388" y="389"/>
      <point x="388" y="379" type="curve" smooth="yes"/>
      <point x="388" y="356" type="line"/>
      <point x="470" y="356" type="line" smooth="yes"/>
      <point x="513.529" y="356"/>
      <point x="534" y="339.26"/>
      <point x="534" y="296" type="curve" smooth="yes"/>
      <point x="534" y="54" type="line" smooth="yes"/>
      <point x="534" y="16.2703"/>
      <point x="521.075" y="0"/>
      <point x="484" y="0" type="curve" smooth="yes"/>
      <point x="331" y="0" type="line" smooth="yes"/>
      <point x="304.431" y="0"/>
      <point x="278" y="19.8811"/>
      <point x="278" y="46" type="curve"/>
      <point x="278" y="19.8848"/>
      <point x="251.562" y="0"/>
    </contour>
    <contour>
      <point x="-6" y="355.996" type="line"/>
      <point x="88" y="355.996" type="line"/>
      <point x="88" y="258.996" type="line"/>
      <point x="-6" y="258.996" type="line"/>
    </contour>
  </outline>
</glyph>
<glyph name="si_Ha" format="1">
  <advance width="590"/>
  <unicode hex="0DC4"/>
  <outline>
    <contour>
      <point x="146" y="128" type="line" smooth="yes"/>
      <point x="146" y="114"/>
      <point x="151.667" y="107"/>
      <point x="163" y="107" type="curve" smooth="yes"/>
      <point x="229" y="107" type="line" smooth="yes"/>
      <point x="248.709" y="107"/>
      <point x="249" y="111.54"/>
      <point x="249" y="132" type="curve" smooth="yes"/>
      <point x="249" y="196" type="line" smooth="yes"/>
      <point x="249" y="209.333"/>
      <point x="244" y="216"/>
      <point x="234" y="216" type="curve" smooth="yes"/>
      <point x="220" y="216" type="line"/>
      <point x="258" y="446" type="line" smooth="yes"/>
      <point x="264" y="480"/>
      <point x="288" y="497"/>
      <point x="330" y="497" type="curve" smooth="yes"/>
      <point x="495" y="497" type="line" smooth="yes"/>
      <point x="541.224" y="497"/>
      <point x="562" y="479.952"/>
      <point x="562" y="434" type="curve" smooth="yes"/>
      <point x="562" y="64" type="line" smooth="yes"/>
      <point x="562" y="15.29"/>
      <point x="548.134" y="0"/>
      <point x="499" y="0" type="curve" smooth="yes"/>
      <point x="402" y="0" type="line"/>
      <point x="402" y="107" type="line"/>
      <point x="416" y="107" type="line" smooth="yes"/>
      <point x="436.64" y="107"/>
      <point x="438" y="112.033"/>
      <point x="438" y="133" type="curve" smooth="yes"/>
      <point x="438" y="372" type="line" smooth="yes"/>
      <point x="438" y="384"/>
      <point x="432" y="390"/>
      <point x="420" y="390" type="curve" smooth="yes"/>
      <point x="384" y="390" type="line" smooth="yes"/>
      <point x="370.667" y="390"/>
      <point x="362.667" y="384.333"/>
      <point x="360" y="373" type="curve" smooth="yes"/>
      <point x="345" y="288" type="line"/>
      <point x="347.75" y="287.928" type="line" smooth="yes"/>
      <point x="362.583" y="287.538"/>
      <point x="370" y="276.896"/>
      <point x="370" y="256" type="curve" smooth="yes"/>
      <point x="370" y="60" type="line" smooth="yes"/>
      <point x="370" y="12.6074"/>
      <point x="350.6" y="0"/>
      <point x="303" y="0" type="curve" smooth="yes"/>
      <point x="70" y="0" type="line" smooth="yes"/>
      <point x="33.3613" y="0"/>
      <point x="22" y="14.0518"/>
      <point x="22" y="51" type="curve" smooth="yes"/>
      <point x="22" y="299" type="line" smooth="yes"/>
      <point x="22" y="336.333"/>
      <point x="40.333" y="355"/>
      <point x="77" y="355" type="curve" smooth="yes"/>
      <point x="106" y="355" type="line"/>
      <point x="106" y="377" type="line" smooth="yes"/>
      <point x="106" y="392.226"/>
      <point x="100.533" y="394"/>
      <point x="85" y="394" type="curve" smooth="yes"/>
      <point x="22" y="394" type="line"/>
      <point x="22" y="497" type="line"/>
      <point x="125" y="497" type="line" smooth="yes"/>
      <point x="168.332" y="497"/>
      <point x="196" y="474.113"/>
      <point x="196" y="431" type="curve" smooth="yes"/>
      <point x="197" y="253" type="line"/>
      <point x="169" y="253" type="line" smooth="yes"/>
      <point x="148.818" y="253"/>
      <point x="146" y="248.131"/>
      <point x="146" y="228" type="curve" smooth="yes"/>
    </contour>
  </outline>
</glyph>
<glyph name="si_Lla" format="1">
  <advance width="553"/>
  <unicode hex="0DC5"/>
  <outline>
    <contour>
      <point x="398.41" y="340.396" type="line"/>
      <point x="398.41" y="384" type="line" smooth="yes"/>
      <point x="398.41" y="396.667"/>
      <point x="392.743" y="403"/>
      <point x="381.41" y="403" type="curve" smooth="yes"/>
      <point x="361.41" y="403" type="line" smooth="yes"/>
      <point x="350.076" y="403"/>
      <point x="344.41" y="397.069"/>
      <point x="344.41" y="384.396" type="curve" smooth="yes"/>
      <point x="344.41" y="340.396" type="line"/>
    </contour>
    <contour>
      <point x="191.41" y="340.396" type="line"/>
      <point x="247.41" y="340.396" type="line"/>
      <point x="247.41" y="384.599" type="line" smooth="yes"/>
      <point x="247.41" y="399.396"/>
      <point x="241.675" y="403"/>
      <point x="230.011" y="403" type="curve" smooth="yes"/>
      <point x="209.614" y="403" type="line" smooth="yes"/>
      <point x="197.343" y="403"/>
      <point x="191.41" y="396.333"/>
      <point x="191.41" y="383" type="curve" smooth="yes"/>
    </contour>
    <contour>
      <point x="146" y="232" type="curve" smooth="yes"/>
      <point x="146.001" y="-4.7998" type="line" smooth="yes"/>
      <point x="146.001" y="-24.7215"/>
      <point x="152.961" y="-36"/>
      <point x="177" y="-36" type="curve" smooth="yes"/>
      <point x="522.811" y="-36" type="line"/>
      <point x="522.811" y="-152" type="line"/>
      <point x="100" y="-152" type="line" smooth="yes"/>
      <point x="51.287" y="-152"/>
      <point x="22" y="-126.804"/>
      <point x="22" y="-74" type="curve" smooth="yes"/>
      <point x="22" y="267" type="line" smooth="yes"/>
      <point x="22" y="307.178"/>
      <point x="43.4932" y="329.272"/>
      <point x="72" y="333.396" type="curve"/>
      <point x="72" y="441" type="line" smooth="yes"/>
      <point x="72" y="477.475"/>
      <point x="91.6445" y="497"/>
      <point x="126" y="497" type="curve" smooth="yes"/>
      <point x="265.41" y="497" type="line" smooth="yes"/>
      <point x="284.333" y="497"/>
      <point x="292.743" y="490"/>
      <point x="299.41" y="476" type="curve"/>
      <point x="307.41" y="490"/>
      <point x="317.367" y="497"/>
      <point x="335.41" y="497" type="curve" smooth="yes"/>
      <point x="464.812" y="497" type="line" smooth="yes"/>
      <point x="492.655" y="497"/>
      <point x="522.812" y="485.728"/>
      <point x="522.812" y="445" type="curve" smooth="yes"/>
      <point x="522.812" y="248.396" type="line"/>
      <point x="154" y="248.396" type="line" smooth="yes"/>
      <point x="147" y="248"/>
      <point x="146" y="239"/>
    </contour>
    <contour>
      <point x="144" y="92" type="curve" smooth="yes"/>
      <point x="144" y="255.999" type="line"/>
      <point x="193" y="256" type="line"/>
      <point x="193.41" y="195.396" type="line" smooth="yes"/>
      <point x="193.523" y="178.734"/>
      <point x="202.41" y="170.396"/>
      <point x="220.41" y="170.396" type="curve" smooth="yes"/>
      <point x="521.01" y="170.396" type="line"/>
      <point x="521.01" y="52.3955" type="line"/>
      <point x="201.203" y="52.3955" type="line" smooth="yes"/>
      <point x="173.203" y="52.3955"/>
      <point x="144" y="66.0361"/>
    </contour>
  </outline>
</glyph>
<glyph name="si_MatraU" format="1">
  <advance width="2"/>
  <unicode hex="0DD4"/>
  <outline>
    <contour>
      <point x="-41.9121" y="-159" type="line"/>
      <point x="-551.195" y="-159" type="line"/>
      <point x="-551.195" y="-53" type="line"/>
      <point x="-164.912" y="-53" type="line"/>
      <point x="-164.912" y="25" type="line"/>
      <point x="-92.9121" y="25" type="line" smooth="yes"/>
      <point x="-64.2451" y="25"/>
      <point x="-47.2451" y="38"/>
      <point x="-41.9121" y="64" type="curve"/>
    </contour>
  </outline>
</glyph>
<glyph name="si_MatraUu" format="1">
  <advance width="2"/>
  <unicode hex="0DD6"/>
  <outline>
    <contour>
      <point x="-41.999" y="-158.999" type="line"/>
      <point x="-158.599" y="-158.999" type="line"/>
      <point x="-192" y="-138" type="line" smooth="yes"/>
      <point x="-205.522" y="-129.499"/>
      <point x="-218.453" y="-127"/>
      <point x="-234" y="-127" type="curve" smooth="yes"/>
      <point x="-240" y="-127" type="line" smooth="yes"/>
      <point x="-251.976" y="-127"/>
      <point x="-261.571" y="-128.901"/>
      <point x="-274" y="-134" type="curve" smooth="yes"/>
      <point x="-313" y="-150" type="line" smooth="yes"/>
      <point x="-324.789" y="-154.836"/>
      <point x="-333" y="-159.001"/>
      <point x="-361" y="-159.001" type="curve" smooth="yes"/>
      <point x="-455" y="-159.001" type="line" smooth="yes"/>
      <point x="-484.333" y="-159.001"/>
      <point x="-499" y="-147.017"/>
      <point x="-499" y="-120" type="curve" smooth="yes"/>
      <point x="-499" y="-27.001" type="line"/>
      <point x="-382" y="-27.001" type="line"/>
      <point x="-382" y="-54.001" type="line" smooth="yes"/>
      <point x="-382" y="-62.668"/>
      <point x="-378.937" y="-67.001"/>
      <point x="-367" y="-67.001" type="curve" smooth="yes"/>
      <point x="-352" y="-67.001" type="line" smooth="yes"/>
      <point x="-339" y="-67.001"/>
      <point x="-329.855" y="-64.6398"/>
      <point x="-313" y="-58" type="curve" smooth="yes"/>
      <point x="-280" y="-45" type="line" smooth="yes"/>
      <point x="-264.77" y="-39.3887"/>
      <point x="-253.725" y="-37"/>
      <point x="-238" y="-37" type="curve" smooth="yes"/>
      <point x="-221" y="-37" type="line" smooth="yes"/>
      <point x="-210.903" y="-37"/>
      <point x="-195.667" y="-37.9611"/>
      <point x="-182" y="-46" type="curve" smooth="yes"/>
      <point x="-165.001" y="-55.999" type="line"/>
      <point x="-165.001" y="5.00098" type="line"/>
      <point x="-86.999" y="5.00098" type="line" smooth="yes"/>
      <point x="-60.999" y="5.00098"/>
      <point x="-45.999" y="19.001"/>
      <point x="-41.999" y="47.001" type="curve"/>
    </contour>
  </outline>
</glyph>
<glyph name="si_MatraR" format="1">
  <advance width="346"/>
  <unicode hex="0DD8"/>
  <outline>
    <contour>
      <point x="22" y="497.001" type="line"/>
      <point x="266.999" y="497" type="line" smooth="yes"/>
      <point x="299.666" y="497"/>
      <point x="315.999" y="481.333"/>
      <point x="315.999" y="450" type="curve" smooth="yes"/>
      <point x="315.999" y="0" type="line"/>
      <point x="213" y="0" type="line"/>
      <point x="199.804" y="40" type="line"/>
      <point x="190.116" y="15.7881"/>
      <point x="175.724" y="0"/>
      <point x="151.804" y="0" type="curve" smooth="yes"/>
      <point x="59" y="0" type="line" smooth="yes"/>
      <point x="34.157" y="0"/>
      <point x="22" y="13.8708"/>
      <point x="22" y="42" type="curve" smooth="yes"/>
      <point x="22" y="280" type="line" smooth="yes"/>
      <point x="22" y="310.313"/>
      <point x="41.6729" y="323.001"/>
      <point x="64.2002" y="323.001" type="curve" smooth="yes"/>
      <point x="192.202" y="322.999" type="line"/>
      <point x="192.202" y="371.999" type="line" smooth="yes"/>
      <point x="192.202" y="392.207"/>
      <point x="191.438" y="393.999"/>
      <point x="171.202" y="393.999" type="curve" smooth="yes"/>
      <point x="22" y="394.001" type="line"/>
    </contour>
    <contour>
      <point x="192.202" y="223.999" type="line"/>
      <point x="159.593" y="224" type="line" smooth="yes"/>
      <point x="149.675" y="224"/>
      <point x="146" y="219.915"/>
      <point x="146" y="208" type="curve" smooth="yes"/>
      <point x="145.999" y="122.798" type="line" smooth="yes"/>
      <point x="145.999" y="110.798"/>
      <point x="148.328" y="107"/>
      <point x="160.995" y="107" type="curve" smooth="yes"/>
      <point x="172.999" y="107" type="line" smooth="yes"/>
      <point x="185.596" y="107"/>
      <point x="192.202" y="120.764"/>
      <point x="192.202" y="134" type="curve" smooth="yes"/>
    </contour>
  </outline>
</glyph>
<glyph name="si_MatraLs" format="1">
  <advance width="355"/>
  <unicode hex="0DDF"/>
  <outline>
    <contour>
      <point x="22" y="496.8" type="line"/>
      <point x="22" y="268" type="line" smooth="yes"/>
      <point x="22" y="245.365"/>
      <point x="35" y="235"/>
      <point x="55" y="235" type="curve" smooth="yes"/>
      <point x="127.594" y="235" type="line" smooth="yes"/>
      <point x="153.563" y="235"/>
      <point x="169.594" y="242.905"/>
      <point x="169.594" y="270" type="curve" smooth="yes"/>
      <point x="169.594" y="378.2" type="line" smooth="yes"/>
      <point x="169.594" y="388.865"/>
      <point x="172.927" y="394.2"/>
      <point x="179.594" y="394.2" type="curve" smooth="yes"/>
      <point x="194.395" y="394.2" type="line" smooth="yes"/>
      <point x="200.395" y="394.2"/>
      <point x="203.395" y="389.533"/>
      <point x="203.395" y="380.2" type="curve" smooth="yes"/>
      <point x="203.395" y="123.8" type="line" smooth="yes"/>
      <point x="203.395" y="112.467"/>
      <point x="201.598" y="106.8"/>
      <point x="191.598" y="106.8" type="curve" smooth="yes"/>
      <point x="161" y="106.8" type="line" smooth="yes"/>
      <point x="147.091" y="106.8"/>
      <point x="146" y="109.507"/>
      <point x="146" y="123.8" type="curve" smooth="yes"/>
      <point x="146" y="172" type="line"/>
      <point x="22" y="172" type="line"/>
      <point x="22" y="47" type="line" smooth="yes"/>
      <point x="22" y="16.3372"/>
      <point x="38.0887" y="0"/>
      <point x="62" y="0" type="curve" smooth="yes"/>
      <point x="280" y="0" type="line" smooth="yes"/>
      <point x="308.587" y="-3.50089e-15"/>
      <point x="328" y="16.7559"/>
      <point x="328" y="46" type="curve" smooth="yes"/>
      <point x="328" y="456" type="line" smooth="yes"/>
      <point x="328" y="478.214"/>
      <point x="311.733" y="497"/>
      <point x="286" y="497" type="curve" smooth="yes"/>
      <point x="163.798" y="497" type="line" smooth="yes"/>
      <point x="140.819" y="497"/>
      <point x="127.2" y="485.421"/>
      <point x="127.2" y="457" type="curve" smooth="yes"/>
      <point x="127.2" y="360.995" type="line" smooth="yes"/>
      <point x="127.2" y="344.995"/>
      <point x="126.766" y="336.995"/>
      <point x="117.2" y="336.995" type="curve" smooth="yes"/>
      <point x="101.995" y="336.995" type="line" smooth="yes"/>
      <point x="94.4717" y="336.995"/>
      <point x="93.1934" y="341.662"/>
      <point x="93.1934" y="358.995" type="curve" smooth="yes"/>
      <point x="93.1934" y="496.8" type="line"/>
    </contour>
  </outline>
</glyph>
<glyph name="si_YI.post" format="1">
  <advance width="544"/>
  <unicode hex="2014"/>
  <outline>
    <contour>
      <point x="29.9951" y="511" type="line"/>
      <point x="29.9951" y="595.803" type="line" smooth="yes"/>
      <point x="29.9951" y="625.797"/>
      <point x="46.9111" y="640"/>
      <point x="73.9951" y="640" type="curve" smooth="yes"/>
      <point x="424.8" y="640" type="line" smooth="yes"/>
      <point x="450.133" y="640"/>
      <point x="465.8" y="628.565"/>
      <point x="465.8" y="597" type="curve" smooth="yes"/>
      <point x="465.8" y="511" type="line"/>
      <point x="341.795" y="511" type="line"/>
      <point x="341.795" y="528" type="line" smooth="yes"/>
      <point x="341.795" y="540.878"/>
      <point x="341.079" y="546.001"/>
      <point x="328.199" y="546.001" type="curve" smooth="yes"/>
      <point x="166.995" y="546.001" type="line" smooth="yes"/>
      <point x="155.662" y="546.001"/>
      <point x="154" y="540.001"/>
      <point x="154" y="528.001" type="curve" smooth="yes"/>
      <point x="154" y="511" type="line"/>
    </contour>
    <component base="si_Ya.post"/>
  </outline>
</glyph>
<glyph name="si_NyAe" format="1">
  <advance width="1088"/>
  <outline>
    <contour>
      <point x="437.797" y="244.001" type="line" smooth="yes"/>
      <point x="437.797" y="256.666"/>
      <point x="432.797" y="263.001"/>
      <point x="422.797" y="263.001" type="curve" smooth="yes"/>
      <point x="307.396" y="263.001" type="line"/>
      <point x="277.796" y="237.001" type="line"/>
      <point x="306.189" y="237.001" type="line"/>
      <point x="306.393" y="223.001" type="line"/>
      <point x="300.907" y="219.225"/>
      <point x="294.393" y="205.955"/>
      <point x="294.393" y="181.804" type="curve" smooth="yes"/>
      <point x="294.393" y="128.001" type="line" smooth="yes"/>
      <point x="294.393" y="110.667"/>
      <point x="297.053" y="108.001"/>
      <point x="308.393" y="108.001" type="curve" smooth="yes"/>
      <point x="316.794" y="108.001" type="line" smooth="yes"/>
      <point x="329.879" y="108.001"/>
      <point x="331.794" y="113.668"/>
      <point x="331.794" y="125.002" type="curve" smooth="yes"/>
      <point x="331.794" y="189.001" type="line"/>
      <point x="399.794" y="189.001" type="line"/>
      <point x="399.794" y="127.001" type="line" smooth="yes"/>
      <point x="399.794" y="112.334"/>
      <point x="402.503" y="108.001"/>
      <point x="413.794" y="108.001" type="curve" smooth="yes"/>
      <point x="424.797" y="108.001" type="line" smooth="yes"/>
      <point x="435.002" y="108.001"/>
      <point x="437.797" y="112.804"/>
      <point x="437.797" y="130.803" type="curve" smooth="yes"/>
    </contour>
    <contour>
      <point x="591.989" y="497" type="line"/>
      <point x="592" y="394.199" type="line"/>
      <point x="500" y="394" type="line" smooth="yes"/>
      <point x="484.424" y="393.966"/>
      <point x="470.375" y="392.896"/>
      <point x="461" y="389" type="curve" smooth="yes"/>
      <point x="454.826" y="386.434"/>
      <point x="443.138" y="379.688"/>
      <point x="434.003" y="372" type="curve" smooth="yes"/>
      <point x="413.804" y="355.001" type="line"/>
      <point x="493.797" y="355.001" type="line" smooth="yes"/>
      <point x="525.609" y="355.001"/>
      <point x="546.797" y="337.696"/>
      <point x="546.797" y="298.001" type="curve" smooth="yes"/>
      <point x="546.797" y="51.001" type="line" smooth="yes"/>
      <point x="546.797" y="14.9551"/>
      <point x="523.441" y="0.000976562"/>
      <point x="493.797" y="0.000976562" type="curve" smooth="yes"/>
      <point x="403.794" y="0.000976562" type="line" smooth="yes"/>
      <point x="384.834" y="0.000976562"/>
      <point x="371.461" y="9.66797"/>
      <point x="366.794" y="29.002" type="curve"/>
      <point x="362.127" y="9.66797"/>
      <point x="345.486" y="0.000976562"/>
      <point x="327.794" y="0.000976562" type="curve" smooth="yes"/>
      <point x="228.393" y="0.000976562" type="line" smooth="yes"/>
      <point x="196.529" y="0.000976562"/>
      <point x="184.396" y="19.8174"/>
      <point x="184.396" y="50.002" type="curve" smooth="yes"/>
      <point x="184.396" y="140.201" type="line" smooth="yes"/>
      <point x="184.396" y="180.996"/>
      <point x="196.67" y="195.266"/>
      <point x="210.396" y="203.002" type="curve"/>
      <point x="174.394" y="203.002" type="line"/>
      <point x="174.394" y="276.397" type="line"/>
      <point x="174.394" y="276.397"/>
      <point x="249.805" y="342.001"/>
      <point x="293.005" y="380.401" type="curve"/>
      <point x="293.005" y="381.999" type="line" smooth="yes"/>
      <point x="293.005" y="391.229"/>
      <point x="282.315" y="393.972"/>
      <point x="269.408" y="394.002" type="curve" smooth="yes"/>
      <point x="184.396" y="394.201" type="line"/>
      <point x="184.396" y="497.201" type="line"/>
      <point x="347.806" y="497.001" type="line" smooth="yes"/>
      <point x="379.488" y="496.963"/>
      <point x="383.401" y="469.791"/>
      <point x="383.401" y="461.599" type="curve" smooth="yes"/>
      <point x="383.401" y="459.398" type="line"/>
      <point x="405.996" y="475.202" type="line" smooth="yes"/>
      <point x="431.312" y="492.909"/>
      <point x="461.67" y="497"/>
      <point x="486" y="497" type="curve" smooth="yes"/>
    </contour>
    <contour>
      <point x="158.998" y="410.599" type="line" smooth="yes"/>
      <point x="146.598" y="410.599"/>
      <point x="140.001" y="404.598"/>
      <point x="140.001" y="386.598" type="curve" smooth="yes"/>
      <point x="140.001" y="0" type="line"/>
      <point x="22" y="0" type="line"/>
      <point x="22" y="406" type="line" smooth="yes"/>
      <point x="22" y="459.608"/>
      <point x="56.2471" y="497"/>
      <point x="108.4" y="497" type="curve" smooth="yes"/>
      <point x="255.002" y="496.999" type="line"/>
      <point x="202.001" y="410.598" type="line"/>
    </contour>
    <component base="si_DAe" xOffset="561"/>
  </outline>
</glyph>
<glyph name="si_BR.halant" format="1">
  <advance width="515"/>
  <outline>
    <contour>
      <point x="23.4004" y="-15.8076" type="line"/>
      <point x="23.4004" y="-114.824" type="line" smooth="yes"/>
      <point x="23.4004" y="-144.818"/>
      <point x="40.3164" y="-159.021"/>
      <point x="67.4004" y="-159.021" type="curve" smooth="yes"/>
      <point x="443" y="-159.021" type="line" smooth="yes"/>
      <point x="468.333" y="-159.021"/>
      <point x="484" y="-147.587"/>
      <point x="484" y="-116.021" type="curve" smooth="yes"/>
      <point x="484" y="-15.8076" type="line"/>
      <point x="359.995" y="-15.8076" type="line"/>
      <point x="359.995" y="-35.0098" type="line" smooth="yes"/>
      <point x="359.995" y="-47.8877"/>
      <point x="359.279" y="-53.0107"/>
      <point x="346.399" y="-53.0107" type="curve" smooth="yes"/>
      <point x="160.4" y="-53.0107" type="line" smooth="yes"/>
      <point x="149.067" y="-53.0107"/>
      <point x="147.405" y="-47.0107"/>
      <point x="147.405" y="-35.0107" type="curve" smooth="yes"/>
      <point x="147.405" y="-15.8076" type="line"/>
    </contour>
    <contour>
      <point x="485" y="400" type="line"/>
      <point x="361" y="400" type="line"/>
      <point x="361" y="441" type="line" smooth="yes"/>
      <point x="361" y="459.349"/>
      <point x="354.061" y="464"/>
      <point x="335" y="464" type="curve" smooth="yes"/>
      <point x="14" y="464" type="line"/>
      <point x="14" y="550" type="line"/>
      <point x="94" y="550" type="line"/>
      <point x="64.6667" y="557.333"/>
      <point x="50" y="571.667"/>
      <point x="50" y="593" type="curve" smooth="yes"/>
      <point x="50" y="632" type="line" smooth="yes"/>
      <point x="50" y="659.333"/>
      <point x="66.3333" y="673"/>
      <point x="99" y="673" type="curve" smooth="yes"/>
      <point x="483" y="673" type="line"/>
      <point x="483" y="589" type="line"/>
      <point x="206" y="589" type="line" smooth="yes"/>
      <point x="188" y="589"/>
      <point x="179" y="584.333"/>
      <point x="179" y="575" type="curve" smooth="yes"/>
      <point x="179" y="565.226"/>
      <point x="186.926" y="558"/>
      <point x="197" y="558" type="curve" smooth="yes"/>
      <point x="416" y="558" type="line" smooth="yes"/>
      <point x="471.441" y="558"/>
      <point x="485" y="533.686"/>
      <point x="485" y="477" type="curve" smooth="yes"/>
    </contour>
    <contour>
      <point x="198" y="54" type="curve" smooth="yes"/>
      <point x="197" y="298.591" type="line" smooth="yes"/>
      <point x="196.952" y="310.062"/>
      <point x="194.912" y="316.591"/>
      <point x="183.399" y="316.591" type="curve" smooth="yes"/>
      <point x="161.999" y="316.591" type="line" smooth="yes"/>
      <point x="147.999" y="316.591"/>
      <point x="146" y="310.258"/>
      <point x="146" y="297.591" type="curve" smooth="yes"/>
      <point x="146" y="129" type="line" smooth="yes"/>
      <point x="146" y="114.333"/>
      <point x="152" y="107"/>
      <point x="164" y="107" type="curve" smooth="yes"/>
      <point x="172" y="107" type="line"/>
      <point x="172" y="0" type="line"/>
      <point x="72" y="0" type="line" smooth="yes"/>
      <point x="34.9277" y="0"/>
      <point x="22" y="16.2734"/>
      <point x="22" y="54" type="curve" smooth="yes"/>
      <point x="22" y="368.192" type="line" smooth="yes"/>
      <point x="22" y="404.859"/>
      <point x="40.667" y="423.192"/>
      <point x="78" y="423.192" type="curve" smooth="yes"/>
      <point x="256" y="423.192" type="line" smooth="yes"/>
      <point x="288.128" y="423.192"/>
      <point x="311" y="408.979"/>
      <point x="311" y="369.591" type="curve" smooth="yes"/>
      <point x="311" y="126.195" type="line" smooth="yes"/>
      <point x="311" y="110.599"/>
      <point x="313.397" y="107"/>
      <point x="327.397" y="107" type="curve" smooth="yes"/>
      <point x="345.402" y="107" type="line" smooth="yes"/>
      <point x="357.402" y="107"/>
      <point x="361" y="110.33"/>
      <point x="361" y="124.996" type="curve" smooth="yes"/>
      <point x="361" y="415" type="line"/>
      <point x="485" y="415" type="line"/>
      <point x="485" y="54" type="line" smooth="yes"/>
      <point x="485" y="16.2705"/>
      <point x="472.075" y="0"/>
      <point x="435" y="0" type="curve" smooth="yes"/>
      <point x="250" y="0" type="line" smooth="yes"/>
      <point x="213.253" y="0"/>
      <point x="198.147" y="16.7305"/>
    </contour>
  </outline>
</glyph>
<glyph name="si_BRIi" format="1">
  <advance width="619"/>
  <outline>
    <contour>
      <point x="23.4004" y="-15.8076" type="line"/>
      <point x="23.4004" y="-114.824" type="line" smooth="yes"/>
      <point x="23.4004" y="-144.818"/>
      <point x="40.3164" y="-159.021"/>
      <point x="67.4004" y="-159.021" type="curve" smooth="yes"/>
      <point x="443" y="-159.021" type="line" smooth="yes"/>
      <point x="468.333" y="-159.021"/>
      <point x="484" y="-147.587"/>
      <point x="484" y="-116.021" type="curve" smooth="yes"/>
      <point x="484" y="-15.8076" type="line"/>
      <point x="359.995" y="-15.8076" type="line"/>
      <point x="359.995" y="-35.0098" type="line" smooth="yes"/>
      <point x="359.995" y="-47.8877"/>
      <point x="359.279" y="-53.0107"/>
      <point x="346.399" y="-53.0107" type="curve" smooth="yes"/>
      <point x="160.4" y="-53.0107" type="line" smooth="yes"/>
      <point x="149.067" y="-53.0107"/>
      <point x="147.405" y="-47.0107"/>
      <point x="147.405" y="-35.0107" type="curve" smooth="yes"/>
      <point x="147.405" y="-15.8076" type="line"/>
    </contour>
    <component base="si_BIi"/>
  </outline>
</glyph>
<glyph name="si_C.halant" format="1">
  <advance width="539"/>
  <outline>
    <contour>
      <point x="509" y="400" type="line"/>
      <point x="385" y="400" type="line"/>
      <point x="385" y="441" type="line" smooth="yes"/>
      <point x="385" y="459.349"/>
      <point x="378.062" y="464"/>
      <point x="359" y="464" type="curve" smooth="yes"/>
      <point x="38" y="464" type="line"/>
      <point x="38" y="550" type="line"/>
      <point x="118" y="550" type="line"/>
      <point x="88.667" y="557.333"/>
      <point x="74" y="571.667"/>
      <point x="74" y="593" type="curve" smooth="yes"/>
      <point x="74" y="632" type="line" smooth="yes"/>
      <point x="74" y="659.333"/>
      <point x="90.333" y="673"/>
      <point x="123" y="673" type="curve" smooth="yes"/>
      <point x="507" y="673" type="line"/>
      <point x="507" y="589" type="line"/>
      <point x="230" y="589" type="line" smooth="yes"/>
      <point x="212" y="589"/>
      <point x="203" y="584.333"/>
      <point x="203" y="575" type="curve" smooth="yes"/>
      <point x="203" y="565.227"/>
      <point x="210.926" y="558"/>
      <point x="221" y="558" type="curve" smooth="yes"/>
      <point x="440" y="558" type="line" smooth="yes"/>
      <point x="495.441" y="558"/>
      <point x="509" y="533.687"/>
      <point x="509" y="477" type="curve" smooth="yes"/>
    </contour>
    <contour>
      <point x="-6" y="294.165" type="line"/>
      <point x="162" y="294.165" type="line"/>
      <point x="162" y="200.165" type="line"/>
      <point x="-6.00195" y="200.165" type="line"/>
    </contour>
    <contour>
      <point x="508.997" y="415" type="line"/>
      <point x="508.997" y="54" type="line" smooth="yes"/>
      <point x="508.997" y="16.2705"/>
      <point x="496.072" y="0"/>
      <point x="458.997" y="0" type="curve" smooth="yes"/>
      <point x="95.9971" y="0" type="line" smooth="yes"/>
      <point x="58.9248" y="0"/>
      <point x="45.9971" y="16.2734"/>
      <point x="45.9971" y="54" type="curve" smooth="yes"/>
      <point x="45.9971" y="150.968" type="line" smooth="yes"/>
      <point x="45.9971" y="183.179"/>
      <point x="53.9268" y="196.333"/>
      <point x="62" y="204.968" type="curve" smooth="yes"/>
      <point x="62" y="204.968"/>
      <point x="118.863" y="294.175"/>
      <point x="148" y="294.175" type="curve" smooth="yes"/>
      <point x="167.997" y="294.175" type="line"/>
      <point x="167.997" y="313.161" type="line" smooth="yes"/>
      <point x="167.997" y="322.494"/>
      <point x="162.664" y="327.161"/>
      <point x="151.997" y="327.161" type="curve" smooth="yes"/>
      <point x="45.9961" y="327.161" type="line"/>
      <point x="45.9961" y="430.161" type="line"/>
      <point x="228.997" y="430.161" type="line" smooth="yes"/>
      <point x="270.702" y="430.161"/>
      <point x="291.996" y="408.571"/>
      <point x="291.996" y="372.161" type="curve" smooth="yes"/>
      <point x="291.996" y="200.175" type="line"/>
      <point x="205.398" y="200.175" type="line" smooth="yes"/>
      <point x="177.746" y="200.175"/>
      <point x="169.997" y="184.667"/>
      <point x="169.997" y="155.176" type="curve" smooth="yes"/>
      <point x="169.997" y="129" type="line" smooth="yes"/>
      <point x="169.997" y="114.333"/>
      <point x="175.997" y="107"/>
      <point x="187.997" y="107" type="curve" smooth="yes"/>
      <point x="366.997" y="107" type="line" smooth="yes"/>
      <point x="378.997" y="107"/>
      <point x="384.997" y="114.333"/>
      <point x="384.997" y="129" type="curve" smooth="yes"/>
      <point x="384.997" y="415" type="line"/>
    </contour>
  </outline>
</glyph>
<glyph name="si_CIi" format="1">
  <advance width="539"/>
  <outline>
    <contour>
      <point x="385.001" y="405" type="line"/>
      <point x="385.001" y="434" type="line" smooth="yes"/>
      <point x="385.001" y="452.19"/>
      <point x="367.684" y="464"/>
      <point x="349.001" y="464" type="curve" smooth="yes"/>
      <point x="89.001" y="464" type="line" smooth="yes"/>
      <point x="59.1582" y="464"/>
      <point x="46.001" y="472.771"/>
      <point x="46.001" y="505" type="curve" smooth="yes"/>
      <point x="46.001" y="618" type="line" smooth="yes"/>
      <point x="46.001" y="654.859"/>
      <point x="59.4121" y="672"/>
      <point x="96.001" y="672" type="curve" smooth="yes"/>
      <point x="459.001" y="672" type="line" smooth="yes"/>
      <point x="495.589" y="672"/>
      <point x="509.001" y="654.858"/>
      <point x="509.001" y="618" type="curve" smooth="yes"/>
      <point x="509.001" y="552" type="line" smooth="yes"/>
      <point x="509.001" y="529.838"/>
      <point x="492.869" y="512.773"/>
      <point x="474.001" y="509" type="curve"/>
      <point x="495.912" y="502.152"/>
      <point x="509.001" y="474.274"/>
      <point x="509.001" y="445" type="curve" smooth="yes"/>
      <point x="509.001" y="405" type="line"/>
    </contour>
    <contour>
      <point x="256.001" y="539" type="line"/>
      <point x="248.957" y="539"/>
      <point x="245.001" y="546.077"/>
      <point x="245.001" y="559" type="curve" smooth="yes"/>
      <point x="245.001" y="575" type="line" smooth="yes"/>
      <point x="245.001" y="581.855"/>
      <point x="245.143" y="584.019"/>
      <point x="248.001" y="587" type="curve"/>
      <point x="177.001" y="587" type="line" smooth="yes"/>
      <point x="165.668" y="587"/>
      <point x="160.001" y="582.333"/>
      <point x="160.001" y="573" type="curve" smooth="yes"/>
      <point x="160.001" y="554" type="line" smooth="yes"/>
      <point x="160.001" y="544"/>
      <point x="165.334" y="539"/>
      <point x="176.001" y="539" type="curve" smooth="yes"/>
    </contour>
    <contour>
      <point x="347.001" y="594" type="line" smooth="yes"/>
      <point x="342.252" y="594"/>
      <point x="337.001" y="588.459"/>
      <point x="337.001" y="584" type="curve" smooth="yes"/>
      <point x="337.001" y="553" type="line" smooth="yes"/>
      <point x="337.001" y="546.333"/>
      <point x="340.334" y="543"/>
      <point x="347.001" y="543" type="curve" smooth="yes"/>
      <point x="392.001" y="543" type="line" smooth="yes"/>
      <point x="401.178" y="543"/>
      <point x="412.001" y="551.771"/>
      <point x="412.001" y="561" type="curve" smooth="yes"/>
      <point x="412.001" y="584" type="line" smooth="yes"/>
      <point x="412.001" y="588.43"/>
      <point x="405.686" y="594"/>
      <point x="401.001" y="594" type="curve" smooth="yes"/>
    </contour>
    <contour>
      <point x="-6" y="294.165" type="line"/>
      <point x="162" y="294.165" type="line"/>
      <point x="162" y="200.165" type="line"/>
      <point x="-6.00195" y="200.165" type="line"/>
    </contour>
    <contour>
      <point x="508.997" y="415" type="line"/>
      <point x="508.997" y="54" type="line" smooth="yes"/>
      <point x="508.997" y="16.2705"/>
      <point x="496.072" y="0"/>
      <point x="458.997" y="0" type="curve" smooth="yes"/>
      <point x="95.9971" y="0" type="line" smooth="yes"/>
      <point x="58.9248" y="0"/>
      <point x="45.9971" y="16.2734"/>
      <point x="45.9971" y="54" type="curve" smooth="yes"/>
      <point x="45.9971" y="150.968" type="line" smooth="yes"/>
      <point x="45.9971" y="183.179"/>
      <point x="53.9268" y="196.333"/>
      <point x="62" y="204.968" type="curve" smooth="yes"/>
      <point x="62" y="204.968"/>
      <point x="118.863" y="294.175"/>
      <point x="148" y="294.175" type="curve" smooth="yes"/>
      <point x="167.997" y="294.175" type="line"/>
      <point x="167.997" y="313.161" type="line" smooth="yes"/>
      <point x="167.997" y="322.494"/>
      <point x="162.664" y="327.161"/>
      <point x="151.997" y="327.161" type="curve" smooth="yes"/>
      <point x="45.9961" y="327.161" type="line"/>
      <point x="45.9961" y="430.161" type="line"/>
      <point x="228.997" y="430.161" type="line" smooth="yes"/>
      <point x="270.702" y="430.161"/>
      <point x="291.996" y="408.571"/>
      <point x="291.996" y="372.161" type="curve" smooth="yes"/>
      <point x="291.996" y="200.175" type="line"/>
      <point x="205.398" y="200.175" type="line" smooth="yes"/>
      <point x="177.746" y="200.175"/>
      <point x="169.997" y="184.667"/>
      <point x="169.997" y="155.176" type="curve" smooth="yes"/>
      <point x="169.997" y="129" type="line" smooth="yes"/>
      <point x="169.997" y="114.333"/>
      <point x="175.997" y="107"/>
      <point x="187.997" y="107" type="curve" smooth="yes"/>
      <point x="366.997" y="107" type="line" smooth="yes"/>
      <point x="378.997" y="107"/>
      <point x="384.997" y="114.333"/>
      <point x="384.997" y="129" type="curve" smooth="yes"/>
      <point x="384.997" y="415" type="line"/>
    </contour>
  </outline>
</glyph>
<glyph name="si_CRI" format="1">
  <advance width="538"/>
  <outline>
    <contour>
      <point x="46.4004" y="-15.8076" type="line"/>
      <point x="46.4004" y="-100.61" type="line" smooth="yes"/>
      <point x="46.4004" y="-130.604"/>
      <point x="63.3164" y="-144.808"/>
      <point x="90.4004" y="-144.808" type="curve" smooth="yes"/>
      <point x="466" y="-144.808" type="line" smooth="yes"/>
      <point x="491.333" y="-144.808"/>
      <point x="507" y="-133.373"/>
      <point x="507" y="-101.808" type="curve" smooth="yes"/>
      <point x="507" y="-15.8076" type="line"/>
      <point x="382.995" y="-15.8076" type="line"/>
      <point x="382.995" y="-32.8076" type="line" smooth="yes"/>
      <point x="382.995" y="-45.6855"/>
      <point x="382.279" y="-50.8086"/>
      <point x="369.399" y="-50.8086" type="curve" smooth="yes"/>
      <point x="183.4" y="-50.8086" type="line" smooth="yes"/>
      <point x="172.067" y="-50.8086"/>
      <point x="170.405" y="-44.8086"/>
      <point x="170.405" y="-32.8086" type="curve" smooth="yes"/>
      <point x="170.405" y="-15.8076" type="line"/>
    </contour>
    <component base="si_CI"/>
  </outline>
</glyph>
<glyph name="si_CRa" format="1">
  <advance width="539"/>
  <outline>
    <contour>
      <point x="47.7939" y="-15.8076" type="line"/>
      <point x="47.7939" y="-114.824" type="line" smooth="yes"/>
      <point x="47.7939" y="-144.818"/>
      <point x="64.71" y="-159.021"/>
      <point x="91.7939" y="-159.021" type="curve" smooth="yes"/>
      <point x="467.604" y="-159.021" type="line" smooth="yes"/>
      <point x="492.937" y="-159.021"/>
      <point x="508.604" y="-147.587"/>
      <point x="508.604" y="-116.021" type="curve" smooth="yes"/>
      <point x="508.604" y="-15.8076" type="line"/>
      <point x="384.599" y="-15.8076" type="line"/>
      <point x="384.599" y="-35.0098" type="line" smooth="yes"/>
      <point x="384.599" y="-47.8877"/>
      <point x="383.883" y="-53.0107"/>
      <point x="371.003" y="-53.0107" type="curve" smooth="yes"/>
      <point x="184.794" y="-53.0107" type="line" smooth="yes"/>
      <point x="173.461" y="-53.0107"/>
      <point x="171.799" y="-47.0107"/>
      <point x="171.799" y="-35.0107" type="curve" smooth="yes"/>
      <point x="171.799" y="-15.8076" type="line"/>
    </contour>
    <component base="si_Ca"/>
  </outline>
</glyph>
<glyph name="si_Ca.reph" format="1">
  <advance width="539"/>
  <outline>
    <contour>
      <point x="301.4" y="619" type="curve" smooth="yes"/>
      <point x="301.4" y="598.854"/>
      <point x="319.628" y="582.547"/>
      <point x="341.5" y="582.547" type="curve" smooth="yes"/>
      <point x="363.372" y="582.547"/>
      <point x="381.6" y="598.854"/>
      <point x="381.6" y="619" type="curve" smooth="yes"/>
      <point x="381.6" y="639.146"/>
      <point x="363.372" y="655.453"/>
      <point x="341.5" y="655.453" type="curve" smooth="yes"/>
      <point x="319.628" y="655.453"/>
      <point x="301.4" y="639.146"/>
    </contour>
    <contour>
      <point x="198.5" y="638" type="curve" smooth="yes"/>
      <point x="198.5" y="702"/>
      <point x="256.62" y="739"/>
      <point x="338.5" y="739" type="curve" smooth="yes"/>
      <point x="415.5" y="739"/>
      <point x="479.5" y="696"/>
      <point x="479.5" y="625" type="curve" smooth="yes"/>
      <point x="479.5" y="601"/>
      <point x="471.167" y="579.333"/>
      <point x="454.5" y="560" type="curve"/>
      <point x="418.75" y="560" type="line"/>
      <point x="431.92" y="572.387"/>
      <point x="447.5" y="596.734"/>
      <point x="447.5" y="624" type="curve" smooth="yes"/>
      <point x="447.5" y="678.521"/>
      <point x="398.5" y="710.5"/>
      <point x="337.5" y="710.5" type="curve" smooth="yes"/>
      <point x="284.722" y="710.5"/>
      <point x="231.25" y="687.99"/>
      <point x="231.25" y="638" type="curve" smooth="yes"/>
      <point x="231.25" y="598.925"/>
      <point x="274.401" y="581.688"/>
      <point x="292" y="579.25" type="curve"/>
      <point x="284" y="585.25"/>
      <point x="273.5" y="599"/>
      <point x="273.5" y="620" type="curve" smooth="yes"/>
      <point x="273.5" y="655"/>
      <point x="304.854" y="680"/>
      <point x="340.5" y="680" type="curve" smooth="yes"/>
      <point x="381.5" y="680"/>
      <point x="409.5" y="653"/>
      <point x="409.5" y="618" type="curve" smooth="yes"/>
      <point x="409.5" y="579"/>
      <point x="374.5" y="553"/>
      <point x="316.5" y="553" type="curve" smooth="yes"/>
      <point x="257.5" y="553"/>
      <point x="198.5" y="582"/>
    </contour>
    <component base="si_Ca"/>
  </outline>
</glyph>
<glyph name="si_ChI" format="1">
  <advance width="513"/>
  <outline>
    <contour>
      <point x="40" y="511.604" type="line"/>
      <point x="163.408" y="511.604" type="line"/>
      <point x="163.408" y="541" type="line" smooth="yes"/>
      <point x="163.408" y="553"/>
      <point x="169.074" y="559"/>
      <point x="180.408" y="559" type="curve" smooth="yes"/>
      <point x="304" y="559" type="line"/>
      <point x="371" y="642.99" type="line"/>
      <point x="98.7979" y="642.989" type="line" smooth="yes"/>
      <point x="68.6699" y="642.989"/>
      <point x="40" y="624.453"/>
      <point x="40" y="590.99" type="curve" smooth="yes"/>
    </contour>
    <component base="si_Cha"/>
  </outline>
</glyph>
<glyph name="si_DAa" format="1">
  <advance width="460"/>
  <outline>
    <contour>
      <point x="329" y="-36" type="line" smooth="yes"/>
      <point x="329" y="-24.709"/>
      <point x="322.999" y="-20"/>
      <point x="312.003" y="-20" type="curve" smooth="yes"/>
      <point x="207" y="-20" type="line"/>
      <point x="299" y="141" type="line"/>
      <point x="428" y="141" type="line"/>
      <point x="379" y="54" type="line"/>
      <point x="421.003" y="54" type="line" smooth="yes"/>
      <point x="447.003" y="54"/>
      <point x="458" y="41"/>
      <point x="458" y="17" type="curve" smooth="yes"/>
      <point x="458" y="-125.399" type="line" smooth="yes"/>
      <point x="458" y="-159.018"/>
      <point x="434.188" y="-171"/>
      <point x="406" y="-171" type="curve" smooth="yes"/>
      <point x="160" y="-171" type="line"/>
      <point x="160" y="-64" type="line"/>
      <point x="308" y="-64" type="line" smooth="yes"/>
      <point x="320.969" y="-64"/>
      <point x="329" y="-59.1377"/>
      <point x="329" y="-46" type="curve" smooth="yes"/>
    </contour>
    <contour>
      <point x="226" y="10" type="line"/>
      <point x="221.411" y="1.76955"/>
      <point x="213" y="1"/>
      <point x="204" y="0" type="curve" smooth="yes"/>
      <point x="66" y="0" type="line" smooth="yes"/>
      <point x="32" y="0"/>
      <point x="22" y="17.9258"/>
      <point x="22" y="49.5996" type="curve" smooth="yes"/>
      <point x="22" y="298" type="line" smooth="yes"/>
      <point x="22" y="338.656"/>
      <point x="43.1064" y="355"/>
      <point x="80" y="355" type="curve" smooth="yes"/>
      <point x="301" y="355" type="line"/>
      <point x="300.999" y="378" type="line" smooth="yes"/>
      <point x="300.998" y="391.309"/>
      <point x="296.338" y="394.001"/>
      <point x="287.005" y="394.001" type="curve" smooth="yes"/>
      <point x="22" y="394.001" type="line"/>
      <point x="22" y="497.001" type="line"/>
      <point x="372" y="497" type="line" smooth="yes"/>
      <point x="405.564" y="497"/>
      <point x="425" y="480.913"/>
      <point x="425" y="444" type="curve" smooth="yes"/>
      <point x="425" y="253.001" type="line"/>
      <point x="168" y="253" type="line" smooth="yes"/>
      <point x="151.333" y="253"/>
      <point x="146" y="245.668"/>
      <point x="146" y="231.001" type="curve" smooth="yes"/>
      <point x="146" y="133.001" type="line" smooth="yes"/>
      <point x="146" y="113.159"/>
      <point x="151.048" y="107"/>
      <point x="166.2" y="107" type="curve" smooth="yes"/>
      <point x="265" y="107" type="line" smooth="yes"/>
      <point x="279.193" y="107"/>
      <point x="285.082" y="117.503"/>
      <point x="289" y="123" type="curve"/>
    </contour>
  </outline>
</glyph>
<glyph name="si_DAe" format="1">
  <advance width="530"/>
  <outline>
    <contour>
      <point x="386.391" y="143" type="line"/>
      <point x="518.998" y="143" type="line"/>
      <point x="422" y="-42" type="line" smooth="yes"/>
      <point x="416.126" y="-53.2025"/>
      <point x="410" y="-64.2207"/>
      <point x="410" y="-69" type="curve" smooth="yes"/>
      <point x="410" y="-72.1387"/>
      <point x="410.281" y="-77.998"/>
      <point x="419" y="-77.998" type="curve" smooth="yes"/>
      <point x="484.999" y="-78" type="line"/>
      <point x="485" y="-184" type="line"/>
      <point x="283.199" y="-184" type="line"/>
      <point x="274.215" y="-181.562"/>
      <point x="255.001" y="-164.02"/>
      <point x="255.001" y="-140" type="curve" smooth="yes"/>
      <point x="255.001" y="-127" type="line" smooth="yes"/>
      <point x="255.001" y="-105.348"/>
      <point x="266.185" y="-86.0823"/>
      <point x="272" y="-75" type="curve" smooth="yes"/>
    </contour>
    <contour>
      <point x="233.391" y="143" type="line"/>
      <point x="365.998" y="143" type="line"/>
      <point x="252.796" y="-74" type="line" smooth="yes"/>
      <point x="238.68" y="-101.059"/>
      <point x="236.003" y="-107.863"/>
      <point x="236.003" y="-127" type="curve" smooth="yes"/>
      <point x="236.003" y="-143" type="line" smooth="yes"/>
      <point x="236.003" y="-162.28"/>
      <point x="245.031" y="-175.1"/>
      <point x="257" y="-184" type="curve"/>
      <point x="126.796" y="-184" type="line"/>
      <point x="117.812" y="-181.562"/>
      <point x="109.796" y="-164.337"/>
      <point x="109.796" y="-140" type="curve" smooth="yes"/>
      <point x="109.796" y="-111" type="line" smooth="yes"/>
      <point x="109.796" y="-86.5557"/>
      <point x="122.524" y="-66.8428"/>
      <point x="128.796" y="-56" type="curve" smooth="yes"/>
    </contour>
    <contour>
      <point x="165.789" y="10" type="line"/>
      <point x="161.2" y="1.76953"/>
      <point x="152.789" y="1"/>
      <point x="143.789" y="0" type="curve" smooth="yes"/>
      <point x="66" y="0" type="line" smooth="yes"/>
      <point x="32" y="0"/>
      <point x="22" y="17.9258"/>
      <point x="22" y="49.5996" type="curve" smooth="yes"/>
      <point x="22" y="298" type="line" smooth="yes"/>
      <point x="22" y="338.656"/>
      <point x="43.1064" y="355"/>
      <point x="80" y="355" type="curve" smooth="yes"/>
      <point x="301" y="355" type="line"/>
      <point x="300.999" y="378" type="line" smooth="yes"/>
      <point x="300.998" y="391.309"/>
      <point x="296.338" y="394.001"/>
      <point x="287.005" y="394.001" type="curve" smooth="yes"/>
      <point x="22" y="394.001" type="line"/>
      <point x="22" y="497.001" type="line"/>
      <point x="372" y="497" type="line" smooth="yes"/>
      <point x="405.564" y="497"/>
      <point x="425" y="480.913"/>
      <point x="425" y="444" type="curve" smooth="yes"/>
      <point x="425" y="253.001" type="line"/>
      <point x="168" y="253" type="line" smooth="yes"/>
      <point x="151.333" y="253"/>
      <point x="146" y="245.668"/>
      <point x="146" y="231.001" type="curve" smooth="yes"/>
      <point x="146" y="133.001" type="line" smooth="yes"/>
      <point x="146" y="113.159"/>
      <point x="151.048" y="107"/>
      <point x="166.2" y="107" type="curve" smooth="yes"/>
      <point x="198.583" y="107" type="line" smooth="yes"/>
      <point x="212.776" y="107"/>
      <point x="218.665" y="117.504"/>
      <point x="222.583" y="123" type="curve"/>
    </contour>
  </outline>
</glyph>
<glyph name="si_DDdh.halant" format="1">
  <advance width="673"/>
  <outline>
    <contour>
      <point x="642.997" y="400" type="line"/>
      <point x="518.997" y="400" type="line"/>
      <point x="518.997" y="441" type="line" smooth="yes"/>
      <point x="518.997" y="459.349"/>
      <point x="512.059" y="464"/>
      <point x="492.997" y="464" type="curve" smooth="yes"/>
      <point x="195.4" y="464" type="line"/>
      <point x="195.4" y="550" type="line"/>
      <point x="256.401" y="550" type="line"/>
      <point x="227.068" y="557.333"/>
      <point x="212.401" y="571.667"/>
      <point x="212.401" y="593" type="curve" smooth="yes"/>
      <point x="212.401" y="632" type="line" smooth="yes"/>
      <point x="212.401" y="659.333"/>
      <point x="228.734" y="673"/>
      <point x="261.401" y="673" type="curve" smooth="yes"/>
      <point x="640.997" y="673" type="line"/>
      <point x="640.997" y="589" type="line"/>
      <point x="368.401" y="589" type="line" smooth="yes"/>
      <point x="350.401" y="589"/>
      <point x="341.401" y="584.333"/>
      <point x="341.401" y="575" type="curve" smooth="yes"/>
      <point x="341.401" y="565.227"/>
      <point x="349.327" y="558"/>
      <point x="359.401" y="558" type="curve" smooth="yes"/>
      <point x="573.997" y="558" type="line" smooth="yes"/>
      <point x="629.438" y="558"/>
      <point x="642.997" y="533.687"/>
      <point x="642.997" y="477" type="curve" smooth="yes"/>
    </contour>
    <contour>
      <point x="642.995" y="415" type="line"/>
      <point x="642.995" y="49" type="line" smooth="yes"/>
      <point x="642.995" y="16.6826"/>
      <point x="629.394" y="0"/>
      <point x="595.997" y="0" type="curve" smooth="yes"/>
      <point x="459.8" y="0" type="line" smooth="yes"/>
      <point x="433.8" y="0"/>
      <point x="417.466" y="12.333"/>
      <point x="410.8" y="37" type="curve"/>
      <point x="407.626" y="16.3779"/>
      <point x="387.069" y="0"/>
      <point x="363.8" y="0" type="curve" smooth="yes"/>
      <point x="226.997" y="0" type="line" smooth="yes"/>
      <point x="195.606" y="0"/>
      <point x="179.997" y="15.0176"/>
      <point x="179.997" y="48" type="curve" smooth="yes"/>
      <point x="179.997" y="361.008" type="line" smooth="yes"/>
      <point x="179.997" y="399.562"/>
      <point x="198.018" y="426.008"/>
      <point x="238.997" y="426.008" type="curve" smooth="yes"/>
      <point x="360.995" y="426.008" type="line"/>
      <point x="360.996" y="318.407" type="line"/>
      <point x="313.997" y="318.407" type="line" smooth="yes"/>
      <point x="307.062" y="318.407"/>
      <point x="304.001" y="314.699"/>
      <point x="304.001" y="308.606" type="curve" smooth="yes"/>
      <point x="304.001" y="126" type="line" smooth="yes"/>
      <point x="304.001" y="113.333"/>
      <point x="310.334" y="107"/>
      <point x="323.001" y="107" type="curve" smooth="yes"/>
      <point x="339.8" y="107" type="line" smooth="yes"/>
      <point x="354.466" y="107"/>
      <point x="361.8" y="115.333"/>
      <point x="361.8" y="132" type="curve" smooth="yes"/>
      <point x="361.8" y="244.796" type="line"/>
      <point x="461.396" y="244.796" type="line"/>
      <point x="461.396" y="134" type="line" smooth="yes"/>
      <point x="461.396" y="116"/>
      <point x="469.062" y="107"/>
      <point x="484.396" y="107" type="curve" smooth="yes"/>
      <point x="501.994" y="107" type="line" smooth="yes"/>
      <point x="513.327" y="107"/>
      <point x="518.994" y="114"/>
      <point x="518.994" y="128" type="curve" smooth="yes"/>
      <point x="518.994" y="414.998" type="line"/>
    </contour>
    <contour>
      <point x="158.998" y="327.001" type="line" smooth="yes"/>
      <point x="146.598" y="327.001"/>
      <point x="140.001" y="321"/>
      <point x="140.001" y="303" type="curve" smooth="yes"/>
      <point x="140.001" y="-0.000976562" type="line"/>
      <point x="22" y="-0.000976562" type="line"/>
      <point x="22" y="335" type="line" smooth="yes"/>
      <point x="22" y="388.544"/>
      <point x="56.2471" y="426"/>
      <point x="108.4" y="426" type="curve" smooth="yes"/>
      <point x="255.002" y="425.999" type="line"/>
      <point x="202.001" y="327" type="line"/>
    </contour>
  </outline>
</glyph>
<glyph name="si_DDhI" format="1">
  <advance width="673"/>
  <outline>
    <contour>
      <point x="643.002" y="400" type="line"/>
      <point x="519.002" y="400" type="line"/>
      <point x="519.002" y="441" type="line" smooth="yes"/>
      <point x="519.002" y="449.667"/>
      <point x="517.169" y="455.667"/>
      <point x="513.502" y="459" type="curve" smooth="yes"/>
      <point x="509.835" y="462.333"/>
      <point x="503.002" y="464"/>
      <point x="493.002" y="464" type="curve" smooth="yes"/>
      <point x="227.002" y="464" type="line" smooth="yes"/>
      <point x="195.669" y="464"/>
      <point x="180.002" y="480"/>
      <point x="180.002" y="512" type="curve" smooth="yes"/>
      <point x="180.002" y="612" type="line" smooth="yes"/>
      <point x="180.002" y="634"/>
      <point x="184.502" y="649.5"/>
      <point x="193.502" y="658.5" type="curve" smooth="yes"/>
      <point x="202.502" y="667.5"/>
      <point x="218.002" y="672"/>
      <point x="240.002" y="672" type="curve" smooth="yes"/>
      <point x="642.003" y="672" type="line"/>
      <point x="642.002" y="589" type="line"/>
      <point x="323.002" y="590" type="line" smooth="yes"/>
      <point x="310.335" y="590"/>
      <point x="304.002" y="585.667"/>
      <point x="304.002" y="577" type="curve" smooth="yes"/>
      <point x="304.002" y="568" type="line" smooth="yes"/>
      <point x="304.002" y="561.333"/>
      <point x="309.669" y="558"/>
      <point x="321.002" y="558" type="curve" smooth="yes"/>
      <point x="574.002" y="558" type="line" smooth="yes"/>
      <point x="601.335" y="558"/>
      <point x="619.669" y="552"/>
      <point x="629.002" y="540" type="curve" smooth="yes"/>
      <point x="638.335" y="528"/>
      <point x="643.002" y="507"/>
      <point x="643.002" y="477" type="curve" smooth="yes"/>
    </contour>
    <contour>
      <point x="642.995" y="415" type="line"/>
      <point x="642.995" y="49" type="line" smooth="yes"/>
      <point x="642.995" y="16.6826"/>
      <point x="629.394" y="0"/>
      <point x="595.997" y="0" type="curve" smooth="yes"/>
      <point x="459.8" y="0" type="line" smooth="yes"/>
      <point x="433.8" y="0"/>
      <point x="417.466" y="12.333"/>
      <point x="410.8" y="37" type="curve"/>
      <point x="407.626" y="16.3779"/>
      <point x="387.069" y="0"/>
      <point x="363.8" y="0" type="curve" smooth="yes"/>
      <point x="226.997" y="0" type="line" smooth="yes"/>
      <point x="195.606" y="0"/>
      <point x="179.997" y="15.0176"/>
      <point x="179.997" y="48" type="curve" smooth="yes"/>
      <point x="179.997" y="361.008" type="line" smooth="yes"/>
      <point x="179.997" y="399.562"/>
      <point x="198.018" y="426.008"/>
      <point x="238.997" y="426.008" type="curve" smooth="yes"/>
      <point x="360.995" y="426.008" type="line"/>
      <point x="360.996" y="318.407" type="line"/>
      <point x="313.997" y="318.407" type="line" smooth="yes"/>
      <point x="307.062" y="318.407"/>
      <point x="304.001" y="314.699"/>
      <point x="304.001" y="308.606" type="curve" smooth="yes"/>
      <point x="304.001" y="126" type="line" smooth="yes"/>
      <point x="304.001" y="113.333"/>
      <point x="310.334" y="107"/>
      <point x="323.001" y="107" type="curve" smooth="yes"/>
      <point x="339.8" y="107" type="line" smooth="yes"/>
      <point x="354.466" y="107"/>
      <point x="361.8" y="115.333"/>
      <point x="361.8" y="132" type="curve" smooth="yes"/>
      <point x="361.8" y="244.796" type="line"/>
      <point x="461.396" y="244.796" type="line"/>
      <point x="461.396" y="134" type="line" smooth="yes"/>
      <point x="461.396" y="116"/>
      <point x="469.062" y="107"/>
      <point x="484.396" y="107" type="curve" smooth="yes"/>
      <point x="501.994" y="107" type="line" smooth="yes"/>
      <point x="513.327" y="107"/>
      <point x="518.994" y="114"/>
      <point x="518.994" y="128" type="curve" smooth="yes"/>
      <point x="518.994" y="414.998" type="line"/>
    </contour>
    <contour>
      <point x="158.998" y="327.001" type="line" smooth="yes"/>
      <point x="146.598" y="327.001"/>
      <point x="140.001" y="321"/>
      <point x="140.001" y="303" type="curve" smooth="yes"/>
      <point x="140.001" y="-0.000976562" type="line"/>
      <point x="22" y="-0.000976562" type="line"/>
      <point x="22" y="335" type="line" smooth="yes"/>
      <point x="22" y="388.544"/>
      <point x="56.2471" y="426"/>
      <point x="108.4" y="426" type="curve" smooth="yes"/>
      <point x="255.002" y="425.999" type="line"/>
      <point x="202.001" y="327" type="line"/>
    </contour>
  </outline>
</glyph>
<glyph name="si_DDhIi" format="1">
  <advance width="673"/>
  <outline>
    <contour>
      <point x="519" y="405" type="line"/>
      <point x="519" y="434" type="line" smooth="yes"/>
      <point x="519" y="452.19"/>
      <point x="501.683" y="464"/>
      <point x="483" y="464" type="curve" smooth="yes"/>
      <point x="223" y="464" type="line" smooth="yes"/>
      <point x="193.157" y="464"/>
      <point x="180" y="472.771"/>
      <point x="180" y="505" type="curve" smooth="yes"/>
      <point x="180" y="618" type="line" smooth="yes"/>
      <point x="180" y="654.859"/>
      <point x="193.411" y="672"/>
      <point x="230" y="672" type="curve" smooth="yes"/>
      <point x="593" y="672" type="line" smooth="yes"/>
      <point x="629.588" y="672"/>
      <point x="643" y="654.858"/>
      <point x="643" y="618" type="curve" smooth="yes"/>
      <point x="643" y="552" type="line" smooth="yes"/>
      <point x="643" y="529.838"/>
      <point x="626.868" y="512.773"/>
      <point x="608" y="509" type="curve"/>
      <point x="629.911" y="502.152"/>
      <point x="643" y="474.274"/>
      <point x="643" y="445" type="curve" smooth="yes"/>
      <point x="643" y="405" type="line"/>
    </contour>
    <contour>
      <point x="390" y="539" type="line"/>
      <point x="382.066" y="543.655"/>
      <point x="379" y="547.826"/>
      <point x="379" y="564" type="curve" smooth="yes"/>
      <point x="379" y="575" type="line" smooth="yes"/>
      <point x="379" y="581.855"/>
      <point x="379.142" y="584.019"/>
      <point x="382" y="587" type="curve"/>
      <point x="311" y="587" type="line" smooth="yes"/>
      <point x="299.667" y="587"/>
      <point x="294" y="582.333"/>
      <point x="294" y="573" type="curve" smooth="yes"/>
      <point x="294" y="554" type="line" smooth="yes"/>
      <point x="294" y="544"/>
      <point x="299.333" y="539"/>
      <point x="310" y="539" type="curve" smooth="yes"/>
    </contour>
    <contour>
      <point x="484" y="594" type="line" smooth="yes"/>
      <point x="475.619" y="594"/>
      <point x="471" y="588.388"/>
      <point x="471" y="581" type="curve" smooth="yes"/>
      <point x="471" y="558" type="line" smooth="yes"/>
      <point x="471" y="547.623"/>
      <point x="480.201" y="543"/>
      <point x="489" y="543" type="curve" smooth="yes"/>
      <point x="526" y="543" type="line" smooth="yes"/>
      <point x="537.683" y="543"/>
      <point x="546" y="549.519"/>
      <point x="546" y="564" type="curve" smooth="yes"/>
      <point x="546" y="582" type="line" smooth="yes"/>
      <point x="546" y="591.396"/>
      <point x="539.685" y="594"/>
      <point x="535" y="594" type="curve" smooth="yes"/>
    </contour>
    <contour>
      <point x="642.995" y="415" type="line"/>
      <point x="642.995" y="49" type="line" smooth="yes"/>
      <point x="642.995" y="16.6826"/>
      <point x="629.394" y="0"/>
      <point x="595.997" y="0" type="curve" smooth="yes"/>
      <point x="459.8" y="0" type="line" smooth="yes"/>
      <point x="433.8" y="0"/>
      <point x="417.466" y="12.333"/>
      <point x="410.8" y="37" type="curve"/>
      <point x="407.626" y="16.3779"/>
      <point x="387.069" y="0"/>
      <point x="363.8" y="0" type="curve" smooth="yes"/>
      <point x="226.997" y="0" type="line" smooth="yes"/>
      <point x="195.606" y="0"/>
      <point x="179.997" y="15.0176"/>
      <point x="179.997" y="48" type="curve" smooth="yes"/>
      <point x="179.997" y="361.008" type="line" smooth="yes"/>
      <point x="179.997" y="399.562"/>
      <point x="198.018" y="426.008"/>
      <point x="238.997" y="426.008" type="curve" smooth="yes"/>
      <point x="360.995" y="426.008" type="line"/>
      <point x="360.996" y="318.407" type="line"/>
      <point x="313.997" y="318.407" type="line" smooth="yes"/>
      <point x="307.062" y="318.407"/>
      <point x="304.001" y="314.699"/>
      <point x="304.001" y="308.606" type="curve" smooth="yes"/>
      <point x="304.001" y="126" type="line" smooth="yes"/>
      <point x="304.001" y="113.333"/>
      <point x="310.334" y="107"/>
      <point x="323.001" y="107" type="curve" smooth="yes"/>
      <point x="339.8" y="107" type="line" smooth="yes"/>
      <point x="354.466" y="107"/>
      <point x="361.8" y="115.333"/>
      <point x="361.8" y="132" type="curve" smooth="yes"/>
      <point x="361.8" y="244.796" type="line"/>
      <point x="461.396" y="244.796" type="line"/>
      <point x="461.396" y="134" type="line" smooth="yes"/>
      <point x="461.396" y="116"/>
      <point x="469.062" y="107"/>
      <point x="484.396" y="107" type="curve" smooth="yes"/>
      <point x="501.994" y="107" type="line" smooth="yes"/>
      <point x="513.327" y="107"/>
      <point x="518.994" y="114"/>
      <point x="518.994" y="128" type="curve" smooth="yes"/>
      <point x="518.994" y="414.998" type="line"/>
    </contour>
    <contour>
      <point x="158.998" y="327.001" type="line" smooth="yes"/>
      <point x="146.598" y="327.001"/>
      <point x="140.001" y="321"/>
      <point x="140.001" y="303" type="curve" smooth="yes"/>
      <point x="140.001" y="-0.000976562" type="line"/>
      <point x="22" y="-0.000976562" type="line"/>
      <point x="22" y="335" type="line" smooth="yes"/>
      <point x="22" y="388.544"/>
      <point x="56.2471" y="426"/>
      <point x="108.4" y="426" type="curve" smooth="yes"/>
      <point x="255.002" y="425.999" type="line"/>
      <point x="202.001" y="327" type="line"/>
    </contour>
  </outline>
</glyph>
<glyph name="si_DDha" format="1">
  <advance width="673"/>
  <outline>
    <contour>
      <point x="158.998" y="371.002" type="line" smooth="yes"/>
      <point x="146.598" y="371.002"/>
      <point x="140.001" y="365.001"/>
      <point x="140.001" y="347.001" type="curve" smooth="yes"/>
      <point x="140.001" y="-0.000976562" type="line"/>
      <point x="22" y="-0.000976562" type="line"/>
      <point x="22" y="379.001" type="line" smooth="yes"/>
      <point x="22" y="432.545"/>
      <point x="56.2471" y="470.001"/>
      <point x="108.4" y="470.001" type="curve" smooth="yes"/>
      <point x="255.002" y="470" type="line"/>
      <point x="202.001" y="371.001" type="line"/>
    </contour>
    <component base="si_Dha" xOffset="158"/>
  </outline>
</glyph>
<glyph name="si_DRIi" format="1">
  <advance width="460"/>
  <outline>
    <contour>
      <point x="291.218" y="582.198" type="line" smooth="yes"/>
      <point x="281.218" y="582.198"/>
      <point x="276.218" y="578.198"/>
      <point x="276.218" y="570.198" type="curve" smooth="yes"/>
      <point x="276.218" y="562.011" type="line" smooth="yes"/>
      <point x="276.218" y="553.344"/>
      <point x="281.551" y="549.011"/>
      <point x="292.218" y="549.011" type="curve" smooth="yes"/>
      <point x="313.999" y="549.011" type="line" smooth="yes"/>
      <point x="324.666" y="549.011"/>
      <point x="329.999" y="553.678"/>
      <point x="329.999" y="563.011" type="curve" smooth="yes"/>
      <point x="329.999" y="570.198" type="line" smooth="yes"/>
      <point x="329.999" y="578.198"/>
      <point x="324.332" y="582.198"/>
      <point x="312.999" y="582.198" type="curve" smooth="yes"/>
    </contour>
    <contour>
      <point x="158.991" y="553.809" type="line" smooth="yes"/>
      <point x="148.001" y="553.808"/>
      <point x="145.996" y="547.809"/>
      <point x="145.996" y="535.809" type="curve" smooth="yes"/>
      <point x="145.996" y="511" type="line"/>
      <point x="21.9912" y="511" type="line"/>
      <point x="21.9912" y="595.803" type="line" smooth="yes"/>
      <point x="21.9912" y="625.797"/>
      <point x="38.2109" y="640.011"/>
      <point x="65.2012" y="640.011" type="curve" smooth="yes"/>
      <point x="380" y="640.012" type="line" smooth="yes"/>
      <point x="407.479" y="640.012"/>
      <point x="421.999" y="626.66"/>
      <point x="421.999" y="600" type="curve" smooth="yes"/>
      <point x="421.999" y="540.996" type="line" smooth="yes"/>
      <point x="421.999" y="521"/>
      <point x="411.997" y="510.996"/>
      <point x="391.999" y="510.996" type="curve" smooth="yes"/>
      <point x="211.218" y="510.994" type="line" smooth="yes"/>
      <point x="187.942" y="510.994"/>
      <point x="183.218" y="520.251"/>
      <point x="183.218" y="531.996" type="curve" smooth="yes"/>
      <point x="183.218" y="545.801" type="line" smooth="yes"/>
      <point x="183.218" y="550.332"/>
      <point x="184.035" y="552.81"/>
      <point x="185.617" y="553.801" type="curve"/>
    </contour>
    <component base="si_DRa"/>
  </outline>
</glyph>
<glyph name="si_DYAa.post" format="1">
  <advance width="821"/>
  <outline>
    <contour>
      <point x="627" y="107" type="line"/>
      <point x="766" y="107" type="line" smooth="yes"/>
      <point x="795.994" y="107"/>
      <point x="807" y="92.0869"/>
      <point x="807" y="65.0029" type="curve" smooth="yes"/>
      <point x="807" y="-119" type="line" smooth="yes"/>
      <point x="807" y="-144.333"/>
      <point x="793.333" y="-157"/>
      <point x="766" y="-157" type="curve" smooth="yes"/>
      <point x="627" y="-157" type="line"/>
      <point x="627" y="-63.1973" type="line"/>
      <point x="664.999" y="-63.1973" type="line" smooth="yes"/>
      <point x="677.877" y="-63.1973"/>
      <point x="683" y="-56.8799"/>
      <point x="683" y="-44" type="curve" smooth="yes"/>
      <point x="683" y="4" type="line" smooth="yes"/>
      <point x="683" y="15.333"/>
      <point x="677" y="21"/>
      <point x="665" y="21" type="curve" smooth="yes"/>
      <point x="627" y="21" type="line"/>
    </contour>
    <component base="si_DYa.post"/>
  </outline>
</glyph>
<glyph name="si_DYOo.post" format="1">
  <advance width="837"/>
  <outline>
    <contour>
      <point x="682.801" y="46.3965" type="line"/>
      <point x="682.801" y="649" type="line"/>
      <point x="807.003" y="649" type="line"/>
      <point x="807.003" y="-20" type="line"/>
      <point x="802.336" y="-12.667"/>
      <point x="786.921" y="16.6357"/>
      <point x="775.003" y="24.791" type="curve" smooth="yes"/>
      <point x="762.547" y="33.3154"/>
      <point x="743.505" y="46.3965"/>
      <point x="718.003" y="46.3965" type="curve" smooth="yes"/>
    </contour>
    <component base="si_DYAa.post"/>
  </outline>
</glyph>
<glyph name="si_DYUu.post" format="1">
  <advance width="617"/>
  <outline>
    <contour>
      <point x="607.004" y="-262" type="line"/>
      <point x="501.015" y="-262" type="line"/>
      <point x="493.46" y="-254.037"/>
      <point x="485.548" y="-244.536"/>
      <point x="477.819" y="-239.202" type="curve" smooth="yes"/>
      <point x="467.648" y="-232.183"/>
      <point x="456.128" y="-232.003"/>
      <point x="446.02" y="-232.003" type="curve"/>
      <point x="437.23" y="-232.003" type="line"/>
      <point x="425.255" y="-232.003"/>
      <point x="415.659" y="-234.705"/>
      <point x="403.23" y="-239.804" type="curve"/>
      <point x="360.026" y="-256.805" type="line"/>
      <point x="348.238" y="-261.021"/>
      <point x="336.233" y="-265.806"/>
      <point x="308.233" y="-265.806" type="curve" smooth="yes"/>
      <point x="258.863" y="-265.806" type="line" smooth="yes"/>
      <point x="226.449" y="-265.806"/>
      <point x="210.862" y="-253.576"/>
      <point x="210.862" y="-225.003" type="curve" smooth="yes"/>
      <point x="210.862" y="-178.003" type="line"/>
      <point x="307.442" y="-178.003" type="line"/>
      <point x="307.442" y="-200.002" type="line" smooth="yes"/>
      <point x="307.442" y="-211.286"/>
      <point x="312.311" y="-218.003"/>
      <point x="324.247" y="-218.003" type="curve" smooth="yes"/>
      <point x="330.443" y="-218.003" type="line" smooth="yes"/>
      <point x="338.073" y="-218.003"/>
      <point x="343.172" y="-214.44"/>
      <point x="360.026" y="-207.801" type="curve"/>
      <point x="393.227" y="-195.001" type="line"/>
      <point x="406.192" y="-189.674"/>
      <point x="419.379" y="-188.002"/>
      <point x="435.026" y="-188.002" type="curve"/>
      <point x="448.028" y="-188.002" type="line"/>
      <point x="457.989" y="-188.002"/>
      <point x="475.052" y="-188.192"/>
      <point x="483.225" y="-194.002" type="curve" smooth="yes"/>
      <point x="489.031" y="-198.13"/>
      <point x="489.865" y="-199.241"/>
      <point x="494.612" y="-204.002" type="curve"/>
      <point x="494.612" y="-135" type="line"/>
      <point x="562.004" y="-135" type="line" smooth="yes"/>
      <point x="588.004" y="-135"/>
      <point x="603.004" y="-121"/>
      <point x="607.004" y="-93" type="curve"/>
    </contour>
    <component base="si_DYa.post"/>
  </outline>
</glyph>
<glyph name="si_DYu.post" format="1">
  <advance width="617"/>
  <outline>
    <contour>
      <point x="607.087" y="-261" type="line"/>
      <point x="239.996" y="-261" type="line"/>
      <point x="239.996" y="-196" type="line"/>
      <point x="484.087" y="-196" type="line"/>
      <point x="484.087" y="-143.396" type="line"/>
      <point x="556.087" y="-143.396" type="line" smooth="yes"/>
      <point x="584.754" y="-143.396"/>
      <point x="601.754" y="-130.396"/>
      <point x="607.087" y="-104.396" type="curve"/>
    </contour>
    <component base="si_DYa.post"/>
  </outline>
</glyph>
<glyph name="si_Dda.reph" format="1">
  <advance width="515"/>
  <outline>
    <contour>
      <point x="-6" y="298.396" type="line"/>
      <point x="88" y="298.396" type="line"/>
      <point x="88" y="201.396" type="line"/>
      <point x="-6" y="201.396" type="line"/>
    </contour>
    <contour>
      <point x="69.998" y="0" type="line" smooth="yes"/>
      <point x="33" y="0"/>
      <point x="22" y="16.2734"/>
      <point x="22" y="54" type="curve" smooth="yes"/>
      <point x="22" y="160.399" type="line" smooth="yes"/>
      <point x="22" y="181.732"/>
      <point x="29.667" y="196.066"/>
      <point x="45" y="203.399" type="curve"/>
      <point x="61.2197" y="225.701"/>
      <point x="40.8584" y="298.399"/>
      <point x="78" y="298.399" type="curve" smooth="yes"/>
      <point x="145.592" y="298.399" type="line"/>
      <point x="145.584" y="298.627"/>
      <point x="145.542" y="321.399"/>
      <point x="145.542" y="321.399" type="curve" smooth="yes"/>
      <point x="145.542" y="331.399"/>
      <point x="138.875" y="336.399"/>
      <point x="125.542" y="336.399" type="curve" smooth="yes"/>
      <point x="23" y="336.399" type="line"/>
      <point x="23" y="439.399" type="line"/>
      <point x="192" y="439.399" type="line" smooth="yes"/>
      <point x="230.669" y="439.399"/>
      <point x="264" y="423.165"/>
      <point x="264" y="385.399" type="curve" smooth="yes"/>
      <point x="264" y="195.399" type="line"/>
      <point x="169" y="195.399" type="line" smooth="yes"/>
      <point x="153.667" y="195.399"/>
      <point x="146" y="189.732"/>
      <point x="146" y="178.399" type="curve" smooth="yes"/>
      <point x="146" y="130" type="line" smooth="yes"/>
      <point x="146" y="114.667"/>
      <point x="152" y="107"/>
      <point x="164.804" y="107" type="curve" smooth="yes"/>
      <point x="181.803" y="107" type="line" smooth="yes"/>
      <point x="196" y="107"/>
      <point x="203.803" y="115.333"/>
      <point x="203.803" y="132" type="curve" smooth="yes"/>
      <point x="203.803" y="154.798" type="line"/>
      <point x="303.398" y="154.798" type="line"/>
      <point x="303.398" y="134" type="line" smooth="yes"/>
      <point x="303.398" y="116"/>
      <point x="311.064" y="107"/>
      <point x="326.398" y="107" type="curve" smooth="yes"/>
      <point x="343.997" y="107" type="line" smooth="yes"/>
      <point x="355.33" y="107"/>
      <point x="360.997" y="114"/>
      <point x="360.997" y="128" type="curve" smooth="yes"/>
      <point x="360.997" y="448.393" type="line" smooth="yes"/>
      <point x="360.997" y="473.244"/>
      <point x="353.884" y="479.393"/>
      <point x="330" y="479.393" type="curve" smooth="yes"/>
      <point x="22.001" y="479.393" type="line"/>
      <point x="22.001" y="580" type="line"/>
      <point x="412" y="580" type="line" smooth="yes"/>
      <point x="454.309" y="580"/>
      <point x="484.998" y="563.264"/>
      <point x="484.998" y="514" type="curve" smooth="yes"/>
      <point x="484.998" y="50" type="line" smooth="yes"/>
      <point x="484.998" y="19.6377"/>
      <point x="471.396" y="-0"/>
      <point x="438" y="0" type="curve" smooth="yes"/>
      <point x="301.803" y="0" type="line" smooth="yes"/>
      <point x="275.803" y="0"/>
      <point x="259.469" y="12.333"/>
      <point x="252.803" y="37" type="curve"/>
      <point x="249.629" y="16.3779"/>
      <point x="229" y="0"/>
      <point x="205.803" y="0" type="curve" smooth="yes"/>
    </contour>
    <contour>
      <point x="238.791" y="628" type="line"/>
      <point x="323" y="628" type="line"/>
      <point x="323" y="590.188" type="line" smooth="yes"/>
      <point x="323" y="563.011"/>
      <point x="311.509" y="553.188"/>
      <point x="292" y="553.188" type="curve" smooth="yes"/>
      <point x="120" y="553.188" type="line" smooth="yes"/>
      <point x="93.5303" y="553.188"/>
      <point x="80" y="567.084"/>
      <point x="80" y="599.188" type="curve" smooth="yes"/>
      <point x="80" y="669" type="line" smooth="yes"/>
      <point x="80" y="697.736"/>
      <point x="97.249" y="717"/>
      <point x="134" y="717" type="curve" smooth="yes"/>
      <point x="419" y="717" type="line" smooth="yes"/>
      <point x="452.445" y="717"/>
      <point x="470" y="700.158"/>
      <point x="470" y="661" type="curve" smooth="yes"/>
      <point x="470" y="591" type="line"/>
      <point x="357" y="591" type="line"/>
      <point x="357" y="630" type="line" smooth="yes"/>
      <point x="357" y="645.315"/>
      <point x="351.667" y="653"/>
      <point x="341" y="653" type="curve" smooth="yes"/>
      <point x="208" y="653" type="line" smooth="yes"/>
      <point x="197.333" y="653"/>
      <point x="192" y="648.667"/>
      <point x="192" y="640" type="curve" smooth="yes"/>
      <point x="192" y="612" type="line" smooth="yes"/>
      <point x="192" y="603.333"/>
      <point x="195.72" y="599"/>
      <point x="204" y="599" type="curve" smooth="yes"/>
      <point x="226" y="599" type="line" smooth="yes"/>
      <point x="237.265" y="599"/>
      <point x="238.791" y="604.333"/>
      <point x="238.791" y="615" type="curve" smooth="yes"/>
    </contour>
  </outline>
</glyph>
<glyph name="si_Ddh.halant" format="1">
  <advance width="515"/>
  <outline>
    <contour>
      <point x="484.998" y="412" type="line"/>
      <point x="484.998" y="50" type="line" smooth="yes"/>
      <point x="484.998" y="19.6379"/>
      <point x="471.396" y="-4.08988e-15"/>
      <point x="438" y="0" type="curve" smooth="yes"/>
      <point x="301.803" y="0" type="line" smooth="yes"/>
      <point x="275.803" y="0"/>
      <point x="259.469" y="12.333"/>
      <point x="252.803" y="37" type="curve"/>
      <point x="249.629" y="16.3779"/>
      <point x="229" y="0"/>
      <point x="205.803" y="0" type="curve" smooth="yes"/>
      <point x="69.998" y="0" type="line" smooth="yes"/>
      <point x="33" y="0"/>
      <point x="22" y="16.273"/>
      <point x="22" y="54" type="curve" smooth="yes"/>
      <point x="22" y="166.795" type="line" smooth="yes"/>
      <point x="22" y="188.128"/>
      <point x="29.667" y="202.462"/>
      <point x="45" y="209.795" type="curve"/>
      <point x="61.2197" y="232.097"/>
      <point x="40.8584" y="290.795"/>
      <point x="78" y="290.795" type="curve" smooth="yes"/>
      <point x="168.05" y="290.795" type="line"/>
      <point x="168.042" y="291.022"/>
      <point x="168" y="310.592"/>
      <point x="168" y="310.592" type="curve" smooth="yes"/>
      <point x="168" y="320.592"/>
      <point x="161.333" y="325.592"/>
      <point x="148" y="325.592" type="curve" smooth="yes"/>
      <point x="23" y="325.592" type="line"/>
      <point x="23" y="419.585" type="line"/>
      <point x="192" y="419.585" type="line" smooth="yes"/>
      <point x="230.669" y="419.585"/>
      <point x="264" y="403.351"/>
      <point x="264" y="365.585" type="curve" smooth="yes"/>
      <point x="264" y="201.795" type="line"/>
      <point x="169" y="201.795" type="line" smooth="yes"/>
      <point x="153.667" y="201.795"/>
      <point x="146" y="196.128"/>
      <point x="146" y="184.795" type="curve" smooth="yes"/>
      <point x="146" y="130" type="line" smooth="yes"/>
      <point x="146" y="114.667"/>
      <point x="152" y="107"/>
      <point x="164.804" y="107" type="curve" smooth="yes"/>
      <point x="181.803" y="107" type="line" smooth="yes"/>
      <point x="196" y="107"/>
      <point x="203.803" y="115.333"/>
      <point x="203.803" y="132" type="curve" smooth="yes"/>
      <point x="203.803" y="161.193" type="line"/>
      <point x="303.398" y="161.193" type="line"/>
      <point x="303.398" y="134" type="line" smooth="yes"/>
      <point x="303.398" y="116"/>
      <point x="311.064" y="107"/>
      <point x="326.398" y="107" type="curve" smooth="yes"/>
      <point x="343.997" y="107" type="line" smooth="yes"/>
      <point x="355.33" y="107"/>
      <point x="360.997" y="114"/>
      <point x="360.997" y="128" type="curve" smooth="yes"/>
      <point x="360.997" y="412.001" type="line"/>
    </contour>
    <contour>
      <point x="484.981" y="394" type="line"/>
      <point x="360.982" y="394" type="line"/>
      <point x="360.98" y="439.614" type="line"/>
      <point x="157.981" y="439.614" type="line" smooth="yes"/>
      <point x="124.689" y="439.614"/>
      <point x="112.198" y="450.586"/>
      <point x="112.198" y="487" type="curve" smooth="yes"/>
      <point x="112.198" y="577" type="line"/>
      <point x="61.1982" y="577" type="line"/>
      <point x="61.1982" y="664" type="line"/>
      <point x="183.981" y="664" type="line" smooth="yes"/>
      <point x="215.172" y="664"/>
      <point x="226.679" y="663.544"/>
      <point x="268.981" y="645" type="curve" smooth="yes"/>
      <point x="269.458" y="644.894"/>
      <point x="414.981" y="581"/>
      <point x="414.981" y="581" type="curve" smooth="yes"/>
      <point x="451.389" y="565.041"/>
      <point x="484.981" y="545.567"/>
      <point x="484.981" y="494" type="curve" smooth="yes"/>
    </contour>
    <contour>
      <point x="222.198" y="576" type="line"/>
      <point x="222.198" y="527.199" type="line" smooth="yes"/>
      <point x="222.198" y="508.791"/>
      <point x="229.601" y="508.614"/>
      <point x="243.981" y="508.614" type="curve" smooth="yes"/>
      <point x="359.381" y="508.614" type="line"/>
      <point x="359.381" y="511.211" type="line" smooth="yes"/>
      <point x="359.381" y="519.211"/>
      <point x="348.967" y="522.988"/>
      <point x="341.981" y="526" type="curve" smooth="yes"/>
      <point x="341.981" y="526"/>
      <point x="275.947" y="554.586"/>
      <point x="232.981" y="573" type="curve" smooth="yes"/>
      <point x="230.277" y="574.166"/>
      <point x="226.008" y="576"/>
      <point x="224.18" y="576" type="curve" smooth="yes"/>
    </contour>
    <contour>
      <point x="-6" y="290.791" type="line"/>
      <point x="88" y="290.791" type="line"/>
      <point x="88" y="207.791" type="line"/>
      <point x="-6" y="207.791" type="line"/>
    </contour>
    <contour>
      <point x="368.981" y="708" type="line"/>
      <point x="484.981" y="708" type="line"/>
      <point x="484.981" y="480" type="line"/>
      <point x="368.982" y="480" type="line"/>
    </contour>
  </outline>
</glyph>
<glyph name="si_DdhI" format="1">
  <advance width="515"/>
  <outline>
    <contour>
      <point x="187.999" y="418" type="line"/>
      <point x="74" y="418" type="line" smooth="yes"/>
      <point x="36.6289" y="418"/>
      <point x="22" y="437.562"/>
      <point x="22" y="469.387" type="curve" smooth="yes"/>
      <point x="22" y="608" type="line" smooth="yes"/>
      <point x="22" y="650.583"/>
      <point x="41.6855" y="672.005"/>
      <point x="87.6006" y="672.005" type="curve" smooth="yes"/>
      <point x="484.799" y="672.005" type="line"/>
      <point x="484.799" y="589.198" type="line"/>
      <point x="129" y="589.198" type="line" smooth="yes"/>
      <point x="108.939" y="589.198"/>
      <point x="101.799" y="580.598"/>
      <point x="101.799" y="563" type="curve" smooth="yes"/>
      <point x="101.799" y="491.991" type="line" smooth="yes"/>
      <point x="101.799" y="477.911"/>
      <point x="108.772" y="468"/>
      <point x="124" y="468" type="curve" smooth="yes"/>
      <point x="188" y="468" type="line"/>
    </contour>
    <contour>
      <point x="293.203" y="497.16" type="line"/>
      <point x="293.203" y="473.76" type="line" smooth="yes"/>
      <point x="293.203" y="455.352"/>
      <point x="300.605" y="455.175"/>
      <point x="314.986" y="455.175" type="curve" smooth="yes"/>
      <point x="358.199" y="455.175" type="line"/>
      <point x="358.2" y="481.161" type="line" smooth="yes"/>
      <point x="358.2" y="488.871"/>
      <point x="356.312" y="497.16"/>
      <point x="346" y="497.16" type="curve" smooth="yes"/>
    </contour>
    <contour>
      <point x="485.001" y="361.368" type="line"/>
      <point x="361" y="361.368" type="line"/>
      <point x="361" y="394.383" type="line"/>
      <point x="228.986" y="394.383" type="line" smooth="yes"/>
      <point x="195.694" y="394.383"/>
      <point x="183.203" y="405.354"/>
      <point x="183.203" y="441.769" type="curve" smooth="yes"/>
      <point x="183.203" y="498.16" type="line"/>
      <point x="137.809" y="498.16" type="line"/>
      <point x="137.809" y="558.534" type="line"/>
      <point x="419" y="558.534" type="line" smooth="yes"/>
      <point x="466.56" y="558.534"/>
      <point x="485.001" y="543.102"/>
      <point x="485.001" y="491.534" type="curve" smooth="yes"/>
    </contour>
    <contour>
      <point x="-6" y="266.367" type="line"/>
      <point x="88" y="266.367" type="line"/>
      <point x="88" y="189.773" type="line"/>
      <point x="-6" y="189.773" type="line"/>
    </contour>
    <contour>
      <point x="22" y="148.777" type="line" smooth="yes"/>
      <point x="22" y="170.11"/>
      <point x="29.667" y="184.444"/>
      <point x="45" y="191.777" type="curve"/>
      <point x="61.2197" y="214.079"/>
      <point x="40.8584" y="266.371"/>
      <point x="78" y="266.371" type="curve" smooth="yes"/>
      <point x="168.05" y="266.371" type="line"/>
      <point x="168.042" y="266.599"/>
      <point x="168" y="286.168"/>
      <point x="168" y="286.168" type="curve" smooth="yes"/>
      <point x="168" y="296.168"/>
      <point x="161.333" y="301.168"/>
      <point x="148" y="301.168" type="curve" smooth="yes"/>
      <point x="23" y="301.168" type="line"/>
      <point x="23" y="386.953" type="line"/>
      <point x="192" y="386.953" type="line" smooth="yes"/>
      <point x="230.669" y="386.953"/>
      <point x="264" y="370.719"/>
      <point x="264" y="332.953" type="curve" smooth="yes"/>
      <point x="264" y="183.777" type="line"/>
      <point x="169" y="183.777" type="line" smooth="yes"/>
      <point x="153.667" y="183.777"/>
      <point x="146" y="178.11"/>
      <point x="146" y="166.777" type="curve" smooth="yes"/>
      <point x="146" y="130" type="line" smooth="yes"/>
      <point x="146" y="114.667"/>
      <point x="152" y="107"/>
      <point x="164.804" y="107" type="curve" smooth="yes"/>
      <point x="181.803" y="107" type="line" smooth="yes"/>
      <point x="196" y="107"/>
      <point x="203.803" y="115.333"/>
      <point x="203.803" y="132" type="curve" smooth="yes"/>
      <point x="203.803" y="153.386" type="line"/>
      <point x="303.398" y="153.386" type="line"/>
      <point x="303.398" y="134" type="line" smooth="yes"/>
      <point x="303.398" y="116"/>
      <point x="311.064" y="107"/>
      <point x="326.398" y="107" type="curve" smooth="yes"/>
      <point x="343.997" y="107" type="line" smooth="yes"/>
      <point x="355.33" y="107"/>
      <point x="360.997" y="114"/>
      <point x="360.997" y="128" type="curve" smooth="yes"/>
      <point x="360.997" y="379.369" type="line"/>
      <point x="484.998" y="379.368" type="line"/>
      <point x="484.998" y="50" type="line" smooth="yes"/>
      <point x="484.998" y="19.6377"/>
      <point x="471.396" y="0"/>
      <point x="438" y="0" type="curve" smooth="yes"/>
      <point x="301.803" y="0" type="line" smooth="yes"/>
      <point x="275.803" y="0"/>
      <point x="259.469" y="12.333"/>
      <point x="252.803" y="37" type="curve"/>
      <point x="249.629" y="16.3779"/>
      <point x="229" y="0"/>
      <point x="205.803" y="0" type="curve" smooth="yes"/>
      <point x="69.998" y="0" type="line" smooth="yes"/>
      <point x="33" y="0"/>
      <point x="22" y="16.2734"/>
      <point x="22" y="54" type="curve" smooth="yes"/>
    </contour>
  </outline>
</glyph>
<glyph name="si_DhI" format="1">
  <advance width="515"/>
  <outline>
    <contour>
      <point x="484.998" y="415" type="line"/>
      <point x="484.998" y="49" type="line" smooth="yes"/>
      <point x="484.998" y="16.6827"/>
      <point x="471.396" y="-4.08988e-15"/>
      <point x="438" y="0" type="curve" smooth="yes"/>
      <point x="301.803" y="0" type="line" smooth="yes"/>
      <point x="275.803" y="0"/>
      <point x="259.469" y="12.333"/>
      <point x="252.803" y="37" type="curve"/>
      <point x="249.629" y="16.3779"/>
      <point x="229.072" y="0"/>
      <point x="205.803" y="0" type="curve" smooth="yes"/>
      <point x="69" y="0" type="line" smooth="yes"/>
      <point x="37.6096" y="0"/>
      <point x="22" y="15.0176"/>
      <point x="22" y="48" type="curve" smooth="yes"/>
      <point x="22" y="361.008" type="line" smooth="yes"/>
      <point x="22" y="399.562"/>
      <point x="40.0205" y="426.008"/>
      <point x="81" y="426.008" type="curve" smooth="yes"/>
      <point x="259.197" y="426.008" type="line"/>
      <point x="259.198" y="318.407" type="line"/>
      <point x="156" y="318.407" type="line" smooth="yes"/>
      <point x="149.064" y="318.407"/>
      <point x="146.004" y="314.699"/>
      <point x="146.004" y="308.606" type="curve" smooth="yes"/>
      <point x="146.004" y="126" type="line" smooth="yes"/>
      <point x="146.004" y="113.333"/>
      <point x="152.337" y="107"/>
      <point x="165.004" y="107" type="curve" smooth="yes"/>
      <point x="181.803" y="107" type="line" smooth="yes"/>
      <point x="196.469" y="107"/>
      <point x="203.803" y="115.333"/>
      <point x="203.803" y="132" type="curve" smooth="yes"/>
      <point x="203.803" y="244.796" type="line"/>
      <point x="303.398" y="244.796" type="line"/>
      <point x="303.398" y="134" type="line" smooth="yes"/>
      <point x="303.398" y="116"/>
      <point x="311.064" y="107"/>
      <point x="326.398" y="107" type="curve" smooth="yes"/>
      <point x="343.997" y="107" type="line" smooth="yes"/>
      <point x="355.33" y="107"/>
      <point x="360.997" y="114"/>
      <point x="360.997" y="128" type="curve" smooth="yes"/>
      <point x="360.997" y="414.998" type="line"/>
    </contour>
    <contour>
      <point x="485" y="400" type="line"/>
      <point x="361" y="400" type="line"/>
      <point x="361" y="441" type="line" smooth="yes"/>
      <point x="361" y="449.667"/>
      <point x="359.167" y="455.667"/>
      <point x="355.5" y="459" type="curve" smooth="yes"/>
      <point x="351.833" y="462.333"/>
      <point x="345" y="464"/>
      <point x="335" y="464" type="curve" smooth="yes"/>
      <point x="69" y="464" type="line" smooth="yes"/>
      <point x="37.6667" y="464"/>
      <point x="22" y="480"/>
      <point x="22" y="512" type="curve" smooth="yes"/>
      <point x="22" y="612" type="line" smooth="yes"/>
      <point x="22" y="634"/>
      <point x="26.5" y="649.5"/>
      <point x="35.5" y="658.5" type="curve" smooth="yes"/>
      <point x="44.5" y="667.5"/>
      <point x="60" y="672"/>
      <point x="82" y="672" type="curve" smooth="yes"/>
      <point x="484.001" y="672" type="line"/>
      <point x="484" y="589" type="line"/>
      <point x="165" y="590" type="line" smooth="yes"/>
      <point x="152.333" y="590"/>
      <point x="146" y="585.667"/>
      <point x="146" y="577" type="curve" smooth="yes"/>
      <point x="146" y="568" type="line" smooth="yes"/>
      <point x="146" y="561.333"/>
      <point x="151.667" y="558"/>
      <point x="163" y="558" type="curve" smooth="yes"/>
      <point x="416" y="558" type="line" smooth="yes"/>
      <point x="443.333" y="558"/>
      <point x="461.667" y="552"/>
      <point x="471" y="540" type="curve" smooth="yes"/>
      <point x="480.333" y="528"/>
      <point x="485" y="507"/>
      <point x="485" y="477" type="curve" smooth="yes"/>
    </contour>
  </outline>
</glyph>
<glyph name="si_FRIi" format="1">
  <advance width="564"/>
  <outline>
    <contour>
      <point x="23.4004" y="-15.8076" type="line"/>
      <point x="23.4004" y="-114.824" type="line" smooth="yes"/>
      <point x="23.4004" y="-144.818"/>
      <point x="40.3164" y="-159.021"/>
      <point x="67.4004" y="-159.021" type="curve" smooth="yes"/>
      <point x="490.4" y="-159.021" type="line" smooth="yes"/>
      <point x="515.733" y="-159.021"/>
      <point x="531.4" y="-147.587"/>
      <point x="531.4" y="-116.021" type="curve" smooth="yes"/>
      <point x="531.4" y="-15.8076" type="line"/>
      <point x="407.396" y="-15.8076" type="line"/>
      <point x="407.396" y="-35.0098" type="line" smooth="yes"/>
      <point x="407.396" y="-47.8877"/>
      <point x="406.68" y="-53.0107"/>
      <point x="393.8" y="-53.0107" type="curve" smooth="yes"/>
      <point x="160.4" y="-53.0107" type="line" smooth="yes"/>
      <point x="149.067" y="-53.0107"/>
      <point x="147.405" y="-47.0107"/>
      <point x="147.405" y="-35.0107" type="curve" smooth="yes"/>
      <point x="147.405" y="-15.8076" type="line"/>
    </contour>
    <component base="si_FIi"/>
  </outline>
</glyph>
<glyph name="si_GDha" format="1">
  <advance width="890"/>
  <outline>
    <contour>
      <point x="415.814" y="362.999" type="line"/>
      <point x="365" y="362.999" type="line" smooth="yes"/>
      <point x="351.667" y="362.999"/>
      <point x="343.667" y="357.332"/>
      <point x="341" y="345.999" type="curve" smooth="yes"/>
      <point x="330.186" y="288" type="line"/>
      <point x="332.936" y="287.928" type="line" smooth="yes"/>
      <point x="347.769" y="287.538"/>
      <point x="355.186" y="276.896"/>
      <point x="355.186" y="256" type="curve" smooth="yes"/>
      <point x="355.186" y="60" type="line" smooth="yes"/>
      <point x="355.186" y="12.6074"/>
      <point x="335.785" y="-5.82927e-15"/>
      <point x="288.186" y="0" type="curve" smooth="yes"/>
      <point x="74" y="0" type="line" smooth="yes"/>
      <point x="37.3613" y="0"/>
      <point x="22" y="24.0518"/>
      <point x="22" y="61" type="curve" smooth="yes"/>
      <point x="22" y="436" type="line" smooth="yes"/>
      <point x="22" y="473.333"/>
      <point x="44.333" y="497"/>
      <point x="81" y="497" type="curve" smooth="yes"/>
      <point x="196.781" y="496.999" type="line"/>
      <point x="196.781" y="394" type="line"/>
      <point x="169" y="393.998" type="line" smooth="yes"/>
      <point x="148.817" y="393.997"/>
      <point x="146" y="389.129"/>
      <point x="146" y="368.998" type="curve" smooth="yes"/>
      <point x="146" y="128" type="line" smooth="yes"/>
      <point x="146" y="114"/>
      <point x="151.667" y="107"/>
      <point x="163" y="107" type="curve" smooth="yes"/>
      <point x="214.186" y="107" type="line" smooth="yes"/>
      <point x="233.895" y="107"/>
      <point x="234.186" y="111.54"/>
      <point x="234.186" y="132" type="curve" smooth="yes"/>
      <point x="234.186" y="196" type="line" smooth="yes"/>
      <point x="234.186" y="209.333"/>
      <point x="229.186" y="216"/>
      <point x="219.186" y="216" type="curve" smooth="yes"/>
      <point x="205.186" y="216" type="line"/>
      <point x="239" y="418.999" type="line" smooth="yes"/>
      <point x="245" y="452.999"/>
      <point x="269" y="469.999"/>
      <point x="311" y="469.999" type="curve" smooth="yes"/>
      <point x="490.814" y="469.999" type="line"/>
    </contour>
    <component base="si_Dha" xOffset="373"/>
  </outline>
</glyph>
<glyph name="si_GR.halant" format="1">
  <advance width="636"/>
  <outline>
    <contour>
      <point x="30.9902" y="-15.8076" type="line"/>
      <point x="30.9902" y="-100.61" type="line" smooth="yes"/>
      <point x="30.9902" y="-130.604"/>
      <point x="47.9062" y="-144.808"/>
      <point x="74.9902" y="-144.808" type="curve" smooth="yes"/>
      <point x="513" y="-144.808" type="line" smooth="yes"/>
      <point x="538.333" y="-144.808"/>
      <point x="554" y="-133.373"/>
      <point x="554" y="-101.808" type="curve" smooth="yes"/>
      <point x="554" y="-15.8076" type="line"/>
      <point x="429.995" y="-15.8076" type="line"/>
      <point x="429.995" y="-32.8076" type="line" smooth="yes"/>
      <point x="429.995" y="-45.6855"/>
      <point x="429.279" y="-50.8086"/>
      <point x="416.399" y="-50.8086" type="curve" smooth="yes"/>
      <point x="167.99" y="-50.8086" type="line" smooth="yes"/>
      <point x="156.657" y="-50.8086"/>
      <point x="154.995" y="-44.8086"/>
      <point x="154.995" y="-32.8086" type="curve" smooth="yes"/>
      <point x="154.995" y="-15.8076" type="line"/>
    </contour>
    <component base="si_G.halant"/>
  </outline>
</glyph>
<glyph name="si_GRa" format="1">
  <advance width="592"/>
  <outline>
    <contour>
      <point x="31.9902" y="-15.8076" type="line"/>
      <point x="31.9902" y="-100.61" type="line" smooth="yes"/>
      <point x="31.9902" y="-130.604"/>
      <point x="48.9062" y="-144.808"/>
      <point x="75.9902" y="-144.808" type="curve" smooth="yes"/>
      <point x="514" y="-144.808" type="line" smooth="yes"/>
      <point x="539.333" y="-144.808"/>
      <point x="555" y="-133.373"/>
      <point x="555" y="-101.808" type="curve" smooth="yes"/>
      <point x="555" y="-15.8076" type="line"/>
      <point x="430.995" y="-15.8076" type="line"/>
      <point x="430.995" y="-32.8076" type="line" smooth="yes"/>
      <point x="430.995" y="-45.6855"/>
      <point x="430.279" y="-50.8086"/>
      <point x="417.399" y="-50.8086" type="curve" smooth="yes"/>
      <point x="168.99" y="-50.8086" type="line" smooth="yes"/>
      <point x="157.657" y="-50.8086"/>
      <point x="155.995" y="-44.8086"/>
      <point x="155.995" y="-32.8086" type="curve" smooth="yes"/>
      <point x="155.995" y="-15.8076" type="line"/>
    </contour>
    <component base="si_Ga"/>
  </outline>
</glyph>
<glyph name="si_GhUu" format="1">
  <advance width="564"/>
  <outline>
    <contour>
      <point x="533.888" y="-159" type="line"/>
      <point x="22" y="-159" type="line"/>
      <point x="22" y="-53" type="line"/>
      <point x="410.888" y="-53" type="line"/>
      <point x="410.888" y="25" type="line"/>
      <point x="482.888" y="25" type="line" smooth="yes"/>
      <point x="511.555" y="25"/>
      <point x="528.555" y="38"/>
      <point x="533.888" y="64" type="curve"/>
    </contour>
    <component base="si_Gha"/>
  </outline>
</glyph>
<glyph name="si_Gha.reph" format="1">
  <advance width="564"/>
  <outline>
    <contour>
      <point x="534.006" y="-158.999" type="line"/>
      <point x="417.406" y="-158.999" type="line"/>
      <point x="409.852" y="-151.036"/>
      <point x="401.939" y="-141.535"/>
      <point x="394.211" y="-136.201" type="curve" smooth="yes"/>
      <point x="384.04" y="-129.182"/>
      <point x="372.52" y="-129.002"/>
      <point x="362.411" y="-129.002" type="curve"/>
      <point x="336.405" y="-129.002" type="line"/>
      <point x="324.43" y="-129.002"/>
      <point x="312.596" y="-129.478"/>
      <point x="294" y="-137" type="curve"/>
      <point x="248" y="-153" type="line"/>
      <point x="234.936" y="-157.679"/>
      <point x="217" y="-162.805"/>
      <point x="189" y="-162.805" type="curve" smooth="yes"/>
      <point x="70.001" y="-162.805" type="line" smooth="yes"/>
      <point x="37.5869" y="-162.805"/>
      <point x="22" y="-150.575"/>
      <point x="22" y="-122.002" type="curve" smooth="yes"/>
      <point x="22" y="-29.0029" type="line"/>
      <point x="139" y="-29.0029" type="line"/>
      <point x="139" y="-51.002" type="line" smooth="yes"/>
      <point x="139" y="-62.2861"/>
      <point x="143.868" y="-69.0029"/>
      <point x="155.805" y="-69.0029" type="curve" smooth="yes"/>
      <point x="194.794" y="-69.0029" type="line" smooth="yes"/>
      <point x="207.794" y="-69.0029"/>
      <point x="226.387" y="-65.3271"/>
      <point x="244" y="-59" type="curve"/>
      <point x="279" y="-47" type="line"/>
      <point x="298.456" y="-39.2598"/>
      <point x="318.554" y="-39.002"/>
      <point x="334.201" y="-39.002" type="curve"/>
      <point x="364.42" y="-39.002" type="line"/>
      <point x="374.381" y="-39.002"/>
      <point x="391.443" y="-39.1924"/>
      <point x="399.616" y="-45.002" type="curve" smooth="yes"/>
      <point x="405.423" y="-49.1299"/>
      <point x="406.257" y="-50.2412"/>
      <point x="411.004" y="-55.002" type="curve"/>
      <point x="411.004" y="14" type="line"/>
      <point x="489.006" y="14" type="line" smooth="yes"/>
      <point x="515.006" y="14"/>
      <point x="530.006" y="28"/>
      <point x="534.006" y="56" type="curve"/>
    </contour>
    <component base="si_Gha"/>
  </outline>
</glyph>
<glyph name="si_HU" format="1">
  <advance width="592"/>
  <outline>
    <contour>
      <point x="562" y="-159" type="line"/>
      <point x="24" y="-159" type="line"/>
      <point x="24" y="-53" type="line"/>
      <point x="439" y="-53" type="line"/>
      <point x="439" y="25" type="line"/>
      <point x="511" y="25" type="line" smooth="yes"/>
      <point x="539.667" y="25"/>
      <point x="556.667" y="38"/>
      <point x="562" y="64" type="curve"/>
    </contour>
    <component base="si_Ha"/>
  </outline>
</glyph>
<glyph name="si_HUu" format="1">
  <advance width="592"/>
  <outline>
    <contour>
      <point x="561.802" y="-158.999" type="line"/>
      <point x="445.202" y="-158.999" type="line"/>
      <point x="437.647" y="-151.036"/>
      <point x="429.735" y="-141.535"/>
      <point x="422.007" y="-136.201" type="curve" smooth="yes"/>
      <point x="411.836" y="-129.182"/>
      <point x="400.315" y="-129.002"/>
      <point x="390.207" y="-129.002" type="curve"/>
      <point x="355.993" y="-129.002" type="line"/>
      <point x="344.018" y="-129.002"/>
      <point x="334.422" y="-131.704"/>
      <point x="321.993" y="-136.803" type="curve"/>
      <point x="278.789" y="-153.804" type="line"/>
      <point x="267.001" y="-158.021"/>
      <point x="254.996" y="-162.805"/>
      <point x="226.996" y="-162.805" type="curve" smooth="yes"/>
      <point x="72.001" y="-162.805" type="line" smooth="yes"/>
      <point x="39.5869" y="-162.805"/>
      <point x="24" y="-150.575"/>
      <point x="24" y="-122.002" type="curve" smooth="yes"/>
      <point x="24" y="-29.0029" type="line"/>
      <point x="148.007" y="-29.0029" type="line"/>
      <point x="148.007" y="-51.002" type="line" smooth="yes"/>
      <point x="148.007" y="-62.2861"/>
      <point x="152.875" y="-69.0029"/>
      <point x="164.812" y="-69.0029" type="curve" smooth="yes"/>
      <point x="228.986" y="-69.0029" type="line" smooth="yes"/>
      <point x="241.986" y="-69.0029"/>
      <point x="258.131" y="-65.4404"/>
      <point x="274.985" y="-58.8008" type="curve"/>
      <point x="311.989" y="-46.001" type="line"/>
      <point x="324.955" y="-40.6738"/>
      <point x="338.142" y="-39.002"/>
      <point x="353.789" y="-39.002" type="curve"/>
      <point x="392.216" y="-39.002" type="line"/>
      <point x="402.177" y="-39.002"/>
      <point x="419.239" y="-39.1924"/>
      <point x="427.412" y="-45.002" type="curve" smooth="yes"/>
      <point x="433.219" y="-49.1299"/>
      <point x="434.053" y="-50.2412"/>
      <point x="438.8" y="-55.002" type="curve"/>
      <point x="438.8" y="18.4043" type="line"/>
      <point x="516.802" y="18.4043" type="line" smooth="yes"/>
      <point x="542.802" y="18.4043"/>
      <point x="557.802" y="32.4043"/>
      <point x="561.802" y="60.4043" type="curve"/>
    </contour>
    <component base="si_Ha"/>
  </outline>
</glyph>
<glyph name="si_JR.halant" format="1">
  <advance width="513"/>
  <outline>
    <contour>
      <point x="21.9902" y="-15.8076" type="line"/>
      <point x="21.9902" y="-114.824" type="line" smooth="yes"/>
      <point x="21.9902" y="-144.818"/>
      <point x="38.9062" y="-159.021"/>
      <point x="65.9902" y="-159.021" type="curve" smooth="yes"/>
      <point x="443.802" y="-159.021" type="line" smooth="yes"/>
      <point x="469.135" y="-159.021"/>
      <point x="484.802" y="-147.587"/>
      <point x="484.802" y="-116.021" type="curve" smooth="yes"/>
      <point x="484.802" y="-15.8076" type="line"/>
      <point x="360.797" y="-15.8076" type="line"/>
      <point x="360.797" y="-35.0098" type="line" smooth="yes"/>
      <point x="360.797" y="-47.8877"/>
      <point x="360.081" y="-53.0107"/>
      <point x="347.201" y="-53.0107" type="curve" smooth="yes"/>
      <point x="158.99" y="-53.0107" type="line" smooth="yes"/>
      <point x="147.657" y="-53.0107"/>
      <point x="145.995" y="-47.0107"/>
      <point x="145.995" y="-35.0107" type="curve" smooth="yes"/>
      <point x="145.995" y="-15.8076" type="line"/>
    </contour>
    <contour>
      <point x="72" y="0" type="line" smooth="yes"/>
      <point x="34.9248" y="0"/>
      <point x="22" y="16.2705"/>
      <point x="22" y="54" type="curve" smooth="yes"/>
      <point x="22" y="300" type="line" smooth="yes"/>
      <point x="22" y="337.333"/>
      <point x="40.667" y="356"/>
      <point x="78" y="356" type="curve" smooth="yes"/>
      <point x="124.781" y="356" type="line"/>
      <point x="124.781" y="380" type="line" smooth="yes"/>
      <point x="124.781" y="389"/>
      <point x="119.448" y="394"/>
      <point x="108.781" y="394" type="curve" smooth="yes"/>
      <point x="23" y="394" type="line"/>
      <point x="23" y="497" type="line"/>
      <point x="143.995" y="497" type="line" smooth="yes"/>
      <point x="182.651" y="497"/>
      <point x="215.995" y="480.761"/>
      <point x="215.995" y="443" type="curve" smooth="yes"/>
      <point x="215.995" y="253" type="line"/>
      <point x="167" y="253" type="line" smooth="yes"/>
      <point x="156" y="253"/>
      <point x="146" y="246.667"/>
      <point x="146" y="234" type="curve" smooth="yes"/>
      <point x="146" y="129" type="line" smooth="yes"/>
      <point x="146" y="114.333"/>
      <point x="152" y="107"/>
      <point x="164" y="107" type="curve" smooth="yes"/>
      <point x="343" y="107" type="line" smooth="yes"/>
      <point x="355" y="107"/>
      <point x="361" y="114.333"/>
      <point x="361" y="129" type="curve" smooth="yes"/>
      <point x="361" y="234" type="line" smooth="yes"/>
      <point x="361" y="246.667"/>
      <point x="354" y="253"/>
      <point x="340" y="253" type="curve" smooth="yes"/>
      <point x="242.995" y="253" type="line"/>
      <point x="242.995" y="443" type="line" smooth="yes"/>
      <point x="242.995" y="480.766"/>
      <point x="276.326" y="497"/>
      <point x="314.995" y="497" type="curve" smooth="yes"/>
      <point x="484" y="497" type="line"/>
      <point x="484" y="394" type="line"/>
      <point x="354.995" y="394" type="line" smooth="yes"/>
      <point x="344.328" y="394"/>
      <point x="338.995" y="389.333"/>
      <point x="338.995" y="380" type="curve" smooth="yes"/>
      <point x="338.995" y="356" type="line"/>
      <point x="429" y="356" type="line" smooth="yes"/>
      <point x="466.333" y="356"/>
      <point x="485" y="337.333"/>
      <point x="485" y="300" type="curve" smooth="yes"/>
      <point x="485" y="54" type="line" smooth="yes"/>
      <point x="485" y="16.2734"/>
      <point x="472.072" y="0"/>
      <point x="435" y="0" type="curve" smooth="yes"/>
    </contour>
    <contour>
      <point x="429" y="486" type="curve"/>
      <point x="291.999" y="486.4" type="line"/>
      <point x="301.852" y="493.377"/>
      <point x="312.738" y="498.217"/>
      <point x="331" y="532" type="curve" smooth="yes"/>
      <point x="391" y="643" type="line"/>
      <point x="524" y="643" type="line"/>
      <point x="465.996" y="524" type="line" smooth="yes"/>
      <point x="455.393" y="502.245"/>
      <point x="437.587" y="489.982"/>
    </contour>
    <contour>
      <point x="242.99" y="438" type="line"/>
      <point x="242.99" y="656" type="line"/>
      <point x="345.785" y="656" type="line"/>
      <point x="345.785" y="437.204" type="line"/>
    </contour>
  </outline>
</glyph>
<glyph name="si_JRI" format="1">
  <advance width="513"/>
  <outline>
    <contour>
      <point x="21.9902" y="-15.8076" type="line"/>
      <point x="21.9902" y="-114.824" type="line" smooth="yes"/>
      <point x="21.9902" y="-144.818"/>
      <point x="38.9062" y="-159.021"/>
      <point x="65.9902" y="-159.021" type="curve" smooth="yes"/>
      <point x="443.802" y="-159.021" type="line" smooth="yes"/>
      <point x="469.135" y="-159.021"/>
      <point x="484.802" y="-147.587"/>
      <point x="484.802" y="-116.021" type="curve" smooth="yes"/>
      <point x="484.802" y="-15.8076" type="line"/>
      <point x="360.797" y="-15.8076" type="line"/>
      <point x="360.797" y="-35.0098" type="line" smooth="yes"/>
      <point x="360.797" y="-47.8877"/>
      <point x="360.081" y="-53.0107"/>
      <point x="347.201" y="-53.0107" type="curve" smooth="yes"/>
      <point x="158.99" y="-53.0107" type="line" smooth="yes"/>
      <point x="147.657" y="-53.0107"/>
      <point x="145.995" y="-47.0107"/>
      <point x="145.995" y="-35.0107" type="curve" smooth="yes"/>
      <point x="145.995" y="-15.8076" type="line"/>
    </contour>
    <contour>
      <point x="40" y="511.604" type="line"/>
      <point x="163.408" y="511.604" type="line"/>
      <point x="163.408" y="541" type="line" smooth="yes"/>
      <point x="163.408" y="553"/>
      <point x="169.074" y="559"/>
      <point x="180.408" y="559" type="curve" smooth="yes"/>
      <point x="328" y="559" type="line"/>
      <point x="373.803" y="642.99" type="line"/>
      <point x="98.7979" y="642.989" type="line" smooth="yes"/>
      <point x="68.6699" y="642.989"/>
      <point x="40" y="624.453"/>
      <point x="40" y="590.99" type="curve" smooth="yes"/>
    </contour>
    <component base="si_Ja"/>
  </outline>
</glyph>
<glyph name="si_JRIi" format="1">
  <advance width="513"/>
  <outline>
    <contour>
      <point x="21.9902" y="-15.8076" type="line"/>
      <point x="21.9902" y="-114.824" type="line" smooth="yes"/>
      <point x="21.9902" y="-144.818"/>
      <point x="38.9062" y="-159.021"/>
      <point x="65.9902" y="-159.021" type="curve" smooth="yes"/>
      <point x="443.802" y="-159.021" type="line" smooth="yes"/>
      <point x="469.135" y="-159.021"/>
      <point x="484.802" y="-147.587"/>
      <point x="484.802" y="-116.021" type="curve" smooth="yes"/>
      <point x="484.802" y="-15.8076" type="line"/>
      <point x="360.797" y="-15.8076" type="line"/>
      <point x="360.797" y="-35.0098" type="line" smooth="yes"/>
      <point x="360.797" y="-47.8877"/>
      <point x="360.081" y="-53.0107"/>
      <point x="347.201" y="-53.0107" type="curve" smooth="yes"/>
      <point x="158.99" y="-53.0107" type="line" smooth="yes"/>
      <point x="147.657" y="-53.0107"/>
      <point x="145.995" y="-47.0107"/>
      <point x="145.995" y="-35.0107" type="curve" smooth="yes"/>
      <point x="145.995" y="-15.8076" type="line"/>
    </contour>
    <contour>
      <point x="252.587" y="564" type="curve" smooth="yes"/>
      <point x="252.587" y="546" type="line" smooth="yes"/>
      <point x="252.587" y="542"/>
      <point x="255.938" y="540"/>
      <point x="262.587" y="540" type="curve" smooth="yes"/>
      <point x="290" y="540" type="line" smooth="yes"/>
      <point x="296" y="540"/>
      <point x="299" y="542.333"/>
      <point x="299" y="547" type="curve" smooth="yes"/>
      <point x="299" y="564" type="line" smooth="yes"/>
      <point x="299" y="568.667"/>
      <point x="296" y="571"/>
      <point x="290" y="571" type="curve" smooth="yes"/>
      <point x="261.587" y="571" type="line" smooth="yes"/>
      <point x="255.603" y="571"/>
      <point x="252.587" y="568.667"/>
    </contour>
    <contour>
      <point x="324" y="507" type="curve" smooth="yes"/>
      <point x="218" y="507" type="line" smooth="yes"/>
      <point x="207" y="507"/>
      <point x="201" y="513"/>
      <point x="201" y="525" type="curve" smooth="yes"/>
      <point x="201" y="559" type="line"/>
      <point x="172" y="559" type="line" smooth="yes"/>
      <point x="160.667" y="559"/>
      <point x="155" y="553"/>
      <point x="155" y="541" type="curve" smooth="yes"/>
      <point x="155" y="507" type="line"/>
      <point x="40" y="507" type="line"/>
      <point x="40" y="600.792" type="line" smooth="yes"/>
      <point x="40" y="625.454"/>
      <point x="61.7109" y="644.792"/>
      <point x="86" y="644.792" type="curve" smooth="yes"/>
      <point x="306" y="644.792" type="line" smooth="yes"/>
      <point x="331.432" y="644.792"/>
      <point x="350.113" y="631.85"/>
      <point x="350.188" y="599" type="curve" smooth="yes"/>
      <point x="350.347" y="530" type="line" smooth="yes"/>
      <point x="350" y="517"/>
      <point x="337" y="507"/>
    </contour>
    <component base="si_Ja"/>
  </outline>
</glyph>
<glyph name="si_JhRa" format="1">
  <advance width="917"/>
  <outline>
    <contour>
      <point x="425.588" y="-15.8076" type="line"/>
      <point x="425.588" y="-114.824" type="line" smooth="yes"/>
      <point x="425.588" y="-144.818"/>
      <point x="442.504" y="-159.021"/>
      <point x="469.588" y="-159.021" type="curve" smooth="yes"/>
      <point x="845.998" y="-159.021" type="line" smooth="yes"/>
      <point x="871.331" y="-159.021"/>
      <point x="886.998" y="-147.587"/>
      <point x="886.998" y="-116.021" type="curve" smooth="yes"/>
      <point x="886.998" y="-15.8076" type="line"/>
      <point x="762.993" y="-15.8076" type="line"/>
      <point x="762.993" y="-35.0098" type="line" smooth="yes"/>
      <point x="762.993" y="-47.8877"/>
      <point x="762.277" y="-53.0107"/>
      <point x="749.397" y="-53.0107" type="curve" smooth="yes"/>
      <point x="562.588" y="-53.0107" type="line" smooth="yes"/>
      <point x="551.255" y="-53.0107"/>
      <point x="549.593" y="-47.0107"/>
      <point x="549.593" y="-35.0107" type="curve" smooth="yes"/>
      <point x="549.593" y="-15.8076" type="line"/>
    </contour>
    <component base="si_Jha"/>
  </outline>
</glyph>
<glyph name="si_JnyRI" format="1">
  <advance width="999"/>
  <outline>
    <contour>
      <point x="588.001" y="394.004" type="line"/>
      <point x="540.39" y="394.004" type="line" smooth="yes"/>
      <point x="527.057" y="394.004"/>
      <point x="519.057" y="388.337"/>
      <point x="516.39" y="377.004" type="curve" smooth="yes"/>
      <point x="498.187" y="288" type="line"/>
      <point x="500.937" y="287.928" type="line" smooth="yes"/>
      <point x="515.77" y="287.538"/>
      <point x="523.187" y="276.896"/>
      <point x="523.187" y="256" type="curve" smooth="yes"/>
      <point x="523.187" y="60" type="line" smooth="yes"/>
      <point x="523.187" y="12.6074"/>
      <point x="503.786" y="0"/>
      <point x="456.187" y="0" type="curve" smooth="yes"/>
      <point x="238.001" y="0" type="line" smooth="yes"/>
      <point x="201.362" y="0"/>
      <point x="190.001" y="14.0518"/>
      <point x="190.001" y="51" type="curve" smooth="yes"/>
      <point x="190.001" y="440.999" type="line" smooth="yes"/>
      <point x="190.001" y="478.332"/>
      <point x="208.334" y="496.999"/>
      <point x="245.001" y="496.999" type="curve" smooth="yes"/>
      <point x="364.782" y="496.999" type="line"/>
      <point x="364.782" y="394" type="line"/>
      <point x="337.001" y="393.998" type="line" smooth="yes"/>
      <point x="316.818" y="393.997"/>
      <point x="314.001" y="389.129"/>
      <point x="314.001" y="368.998" type="curve" smooth="yes"/>
      <point x="314.001" y="128" type="line" smooth="yes"/>
      <point x="314.001" y="114"/>
      <point x="319.668" y="107"/>
      <point x="331.001" y="107" type="curve" smooth="yes"/>
      <point x="382.187" y="107" type="line" smooth="yes"/>
      <point x="401.896" y="107"/>
      <point x="402.187" y="111.54"/>
      <point x="402.187" y="132" type="curve" smooth="yes"/>
      <point x="402.187" y="196" type="line" smooth="yes"/>
      <point x="402.187" y="209.333"/>
      <point x="397.187" y="216"/>
      <point x="387.187" y="216" type="curve" smooth="yes"/>
      <point x="373.187" y="216" type="line"/>
      <point x="411.187" y="446" type="line" smooth="yes"/>
      <point x="417.187" y="480"/>
      <point x="441.187" y="497"/>
      <point x="483.187" y="497" type="curve" smooth="yes"/>
      <point x="588" y="497" type="line"/>
    </contour>
    <contour>
      <point x="968" y="0.000976562" type="line"/>
      <point x="605.2" y="0" type="line" smooth="yes"/>
      <point x="571.2" y="0"/>
      <point x="561" y="17.9258"/>
      <point x="561" y="49.5996" type="curve" smooth="yes"/>
      <point x="561" y="298" type="line" smooth="yes"/>
      <point x="561" y="338.657"/>
      <point x="582.106" y="355"/>
      <point x="619" y="355" type="curve" smooth="yes"/>
      <point x="840" y="355" type="line"/>
      <point x="839.999" y="378" type="line" smooth="yes"/>
      <point x="839.998" y="391.308"/>
      <point x="835.338" y="394.001"/>
      <point x="826.005" y="394.001" type="curve" smooth="yes"/>
      <point x="561" y="394.001" type="line"/>
      <point x="561" y="497.001" type="line"/>
      <point x="911" y="497" type="line" smooth="yes"/>
      <point x="944.565" y="497"/>
      <point x="964" y="480.913"/>
      <point x="964" y="444" type="curve" smooth="yes"/>
      <point x="964" y="253.001" type="line"/>
      <point x="707" y="253" type="line" smooth="yes"/>
      <point x="690.333" y="253"/>
      <point x="685" y="245.668"/>
      <point x="685" y="231.001" type="curve" smooth="yes"/>
      <point x="685" y="133.001" type="line" smooth="yes"/>
      <point x="685" y="113.159"/>
      <point x="690.048" y="107"/>
      <point x="705.2" y="107" type="curve" smooth="yes"/>
      <point x="968" y="107.001" type="line"/>
    </contour>
    <contour>
      <point x="561.199" y="-15.8076" type="line"/>
      <point x="685.204" y="-15.8076" type="line"/>
      <point x="685.204" y="-34.8105" type="line" smooth="yes"/>
      <point x="685.204" y="-46.8105"/>
      <point x="686.866" y="-52.8105"/>
      <point x="698.199" y="-52.8105" type="curve" smooth="yes"/>
      <point x="830.199" y="-52.8105" type="line" smooth="yes"/>
      <point x="843.079" y="-52.8105"/>
      <point x="843.795" y="-47.6875"/>
      <point x="843.795" y="-34.8096" type="curve" smooth="yes"/>
      <point x="843.795" y="12" type="line"/>
      <point x="967.8" y="12" type="line"/>
      <point x="967.8" y="-115.821" type="line" smooth="yes"/>
      <point x="967.8" y="-147.387"/>
      <point x="952.133" y="-158.821"/>
      <point x="926.8" y="-158.821" type="curve" smooth="yes"/>
      <point x="605.199" y="-158.821" type="line" smooth="yes"/>
      <point x="578.115" y="-158.821"/>
      <point x="561.199" y="-144.618"/>
      <point x="561.199" y="-114.624" type="curve" smooth="yes"/>
    </contour>
    <contour>
      <point x="561.182" y="511" type="line"/>
      <point x="561.182" y="595.803" type="line" smooth="yes"/>
      <point x="561.182" y="625.797"/>
      <point x="578.098" y="640"/>
      <point x="605.182" y="640" type="curve" smooth="yes"/>
      <point x="922" y="640" type="line" smooth="yes"/>
      <point x="947.333" y="640"/>
      <point x="963" y="628.565"/>
      <point x="963" y="597" type="curve" smooth="yes"/>
      <point x="963" y="511" type="line"/>
      <point x="838.995" y="511" type="line"/>
      <point x="838.995" y="528" type="line" smooth="yes"/>
      <point x="838.995" y="540.878"/>
      <point x="838.279" y="546.001"/>
      <point x="825.399" y="546.001" type="curve" smooth="yes"/>
      <point x="698.182" y="546.001" type="line" smooth="yes"/>
      <point x="686.849" y="546.001"/>
      <point x="685.187" y="540.001"/>
      <point x="685.187" y="528.001" type="curve" smooth="yes"/>
      <point x="685.187" y="511" type="line"/>
    </contour>
    <contour>
      <point x="158.998" y="398.001" type="line" smooth="yes"/>
      <point x="146.598" y="398.001"/>
      <point x="140.001" y="392"/>
      <point x="140.001" y="374" type="curve" smooth="yes"/>
      <point x="140.001" y="0" type="line"/>
      <point x="22" y="0" type="line"/>
      <point x="22" y="406" type="line" smooth="yes"/>
      <point x="22" y="459.609"/>
      <point x="56.2471" y="497"/>
      <point x="108.4" y="497" type="curve" smooth="yes"/>
      <point x="255.002" y="496.999" type="line"/>
      <point x="202.001" y="398" type="line"/>
    </contour>
  </outline>
</glyph>
<glyph name="si_JnyRIi" format="1">
  <advance width="999"/>
  <outline>
    <contour>
      <point x="832.418" y="582.198" type="line" smooth="yes"/>
      <point x="822.418" y="582.198"/>
      <point x="817.418" y="578.198"/>
      <point x="817.418" y="570.198" type="curve" smooth="yes"/>
      <point x="817.418" y="562.011" type="line" smooth="yes"/>
      <point x="817.418" y="553.344"/>
      <point x="822.751" y="549.011"/>
      <point x="833.418" y="549.011" type="curve" smooth="yes"/>
      <point x="855.199" y="549.011" type="line" smooth="yes"/>
      <point x="865.866" y="549.011"/>
      <point x="871.199" y="553.678"/>
      <point x="871.199" y="563.011" type="curve" smooth="yes"/>
      <point x="871.199" y="570.198" type="line" smooth="yes"/>
      <point x="871.199" y="578.198"/>
      <point x="865.532" y="582.198"/>
      <point x="854.199" y="582.198" type="curve" smooth="yes"/>
    </contour>
    <contour>
      <point x="700.191" y="553.809" type="line" smooth="yes"/>
      <point x="689.201" y="553.808"/>
      <point x="687.196" y="547.809"/>
      <point x="687.196" y="535.809" type="curve" smooth="yes"/>
      <point x="687.196" y="511" type="line"/>
      <point x="563.191" y="511" type="line"/>
      <point x="563.191" y="595.803" type="line" smooth="yes"/>
      <point x="563.191" y="625.797"/>
      <point x="579.411" y="640.011"/>
      <point x="606.401" y="640.011" type="curve" smooth="yes"/>
      <point x="921.2" y="640.012" type="line" smooth="yes"/>
      <point x="948.68" y="640.012"/>
      <point x="963.199" y="626.66"/>
      <point x="963.199" y="600" type="curve" smooth="yes"/>
      <point x="963.199" y="540.996" type="line" smooth="yes"/>
      <point x="963.199" y="521"/>
      <point x="953.197" y="510.996"/>
      <point x="933.199" y="510.996" type="curve" smooth="yes"/>
      <point x="752.418" y="510.994" type="line" smooth="yes"/>
      <point x="729.143" y="510.994"/>
      <point x="724.418" y="520.251"/>
      <point x="724.418" y="531.996" type="curve" smooth="yes"/>
      <point x="724.418" y="545.801" type="line" smooth="yes"/>
      <point x="724.418" y="550.332"/>
      <point x="725.235" y="552.81"/>
      <point x="726.817" y="553.801" type="curve"/>
    </contour>
    <contour>
      <point x="588.001" y="394.004" type="line"/>
      <point x="540.39" y="394.004" type="line" smooth="yes"/>
      <point x="527.057" y="394.004"/>
      <point x="519.057" y="388.337"/>
      <point x="516.39" y="377.004" type="curve" smooth="yes"/>
      <point x="498.187" y="288" type="line"/>
      <point x="500.937" y="287.928" type="line" smooth="yes"/>
      <point x="515.77" y="287.538"/>
      <point x="523.187" y="276.896"/>
      <point x="523.187" y="256" type="curve" smooth="yes"/>
      <point x="523.187" y="60" type="line" smooth="yes"/>
      <point x="523.187" y="12.6074"/>
      <point x="503.786" y="0"/>
      <point x="456.187" y="0" type="curve" smooth="yes"/>
      <point x="238.001" y="0" type="line" smooth="yes"/>
      <point x="201.362" y="0"/>
      <point x="190.001" y="14.0518"/>
      <point x="190.001" y="51" type="curve" smooth="yes"/>
      <point x="190.001" y="440.999" type="line" smooth="yes"/>
      <point x="190.001" y="478.332"/>
      <point x="208.334" y="496.999"/>
      <point x="245.001" y="496.999" type="curve" smooth="yes"/>
      <point x="364.782" y="496.999" type="line"/>
      <point x="364.782" y="394" type="line"/>
      <point x="337.001" y="393.998" type="line" smooth="yes"/>
      <point x="316.818" y="393.997"/>
      <point x="314.001" y="389.129"/>
      <point x="314.001" y="368.998" type="curve" smooth="yes"/>
      <point x="314.001" y="128" type="line" smooth="yes"/>
      <point x="314.001" y="114"/>
      <point x="319.668" y="107"/>
      <point x="331.001" y="107" type="curve" smooth="yes"/>
      <point x="382.187" y="107" type="line" smooth="yes"/>
      <point x="401.896" y="107"/>
      <point x="402.187" y="111.54"/>
      <point x="402.187" y="132" type="curve" smooth="yes"/>
      <point x="402.187" y="196" type="line" smooth="yes"/>
      <point x="402.187" y="209.333"/>
      <point x="397.187" y="216"/>
      <point x="387.187" y="216" type="curve" smooth="yes"/>
      <point x="373.187" y="216" type="line"/>
      <point x="411.187" y="446" type="line" smooth="yes"/>
      <point x="417.187" y="480"/>
      <point x="441.187" y="497"/>
      <point x="483.187" y="497" type="curve" smooth="yes"/>
      <point x="588" y="497" type="line"/>
    </contour>
    <contour>
      <point x="158.998" y="398.001" type="line" smooth="yes"/>
      <point x="146.598" y="398.001"/>
      <point x="140.001" y="392"/>
      <point x="140.001" y="374" type="curve" smooth="yes"/>
      <point x="140.001" y="0" type="line"/>
      <point x="22" y="0" type="line"/>
      <point x="22" y="406" type="line" smooth="yes"/>
      <point x="22" y="459.609"/>
      <point x="56.2471" y="497"/>
      <point x="108.4" y="497" type="curve" smooth="yes"/>
      <point x="255.002" y="496.999" type="line"/>
      <point x="202.001" y="398" type="line"/>
    </contour>
    <component base="si_DRa" xOffset="539"/>
  </outline>
</glyph>
<glyph name="si_K.halant" format="1">
  <advance width="2"/>
  <outline>
    <contour>
      <point x="-600.619" y="-15.8076" type="line"/>
      <point x="-600.619" y="-100.61" type="line" smooth="yes"/>
      <point x="-600.619" y="-130.604"/>
      <point x="-583.703" y="-144.808"/>
      <point x="-556.619" y="-144.808" type="curve" smooth="yes"/>
      <point x="-104.599" y="-144.808" type="line" smooth="yes"/>
      <point x="-79.2656" y="-144.808"/>
      <point x="-63.5986" y="-133.373"/>
      <point x="-63.5986" y="-101.808" type="curve" smooth="yes"/>
      <point x="-63.5986" y="-15.8076" type="line"/>
      <point x="-187.604" y="-15.8076" type="line"/>
      <point x="-187.604" y="-32.8076" type="line" smooth="yes"/>
      <point x="-187.604" y="-45.6855"/>
      <point x="-188.319" y="-50.8086"/>
      <point x="-201.199" y="-50.8086" type="curve" smooth="yes"/>
      <point x="-463.619" y="-50.8086" type="line" smooth="yes"/>
      <point x="-474.952" y="-50.8086"/>
      <point x="-476.614" y="-44.8086"/>
      <point x="-476.614" y="-32.8086" type="curve" smooth="yes"/>
      <point x="-476.614" y="-15.8076" type="line"/>
    </contour>
  </outline>
</glyph>
<glyph name="si_KSsa" format="1">
  <advance width="920"/>
  <outline>
    <contour>
      <point x="285.404" y="244.001" type="line" smooth="yes"/>
      <point x="285.404" y="256.666"/>
      <point x="280.404" y="263.001"/>
      <point x="270.404" y="263.001" type="curve" smooth="yes"/>
      <point x="155.004" y="263.001" type="line"/>
      <point x="125.403" y="237.001" type="line"/>
      <point x="153.797" y="237.001" type="line"/>
      <point x="154" y="223.001" type="line"/>
      <point x="148.515" y="219.225"/>
      <point x="142" y="205.955"/>
      <point x="142" y="181.804" type="curve" smooth="yes"/>
      <point x="142" y="128.001" type="line" smooth="yes"/>
      <point x="142" y="110.667"/>
      <point x="144.66" y="108.001"/>
      <point x="156" y="108.001" type="curve" smooth="yes"/>
      <point x="164.401" y="108.001" type="line" smooth="yes"/>
      <point x="177.486" y="108.001"/>
      <point x="179.401" y="113.668"/>
      <point x="179.401" y="125.002" type="curve" smooth="yes"/>
      <point x="179.401" y="189.001" type="line"/>
      <point x="247.401" y="189.001" type="line"/>
      <point x="247.401" y="127.001" type="line" smooth="yes"/>
      <point x="247.401" y="112.334"/>
      <point x="250.11" y="108.001"/>
      <point x="261.401" y="108.001" type="curve" smooth="yes"/>
      <point x="272.404" y="108.001" type="line" smooth="yes"/>
      <point x="282.609" y="108.001"/>
      <point x="285.404" y="112.804"/>
      <point x="285.404" y="130.803" type="curve" smooth="yes"/>
    </contour>
    <contour>
      <point x="439.597" y="497" type="line"/>
      <point x="439.607" y="394.199" type="line"/>
      <point x="347.607" y="394" type="line" smooth="yes"/>
      <point x="332.031" y="393.966"/>
      <point x="317.982" y="392.896"/>
      <point x="308.607" y="389" type="curve" smooth="yes"/>
      <point x="302.434" y="386.434"/>
      <point x="290.745" y="379.688"/>
      <point x="281.61" y="372" type="curve" smooth="yes"/>
      <point x="261.411" y="355.001" type="line"/>
      <point x="341.404" y="355.001" type="line" smooth="yes"/>
      <point x="373.217" y="355.001"/>
      <point x="394.404" y="337.696"/>
      <point x="394.404" y="298.001" type="curve" smooth="yes"/>
      <point x="394.404" y="51.001" type="line" smooth="yes"/>
      <point x="394.404" y="14.9551"/>
      <point x="371.049" y="0.000976562"/>
      <point x="341.404" y="0.000976562" type="curve" smooth="yes"/>
      <point x="251.401" y="0.000976562" type="line" smooth="yes"/>
      <point x="232.441" y="0.000976562"/>
      <point x="219.068" y="9.66797"/>
      <point x="214.401" y="29.002" type="curve"/>
      <point x="209.734" y="9.66797"/>
      <point x="193.094" y="0.000976562"/>
      <point x="175.401" y="0.000976562" type="curve" smooth="yes"/>
      <point x="76" y="0.000976562" type="line" smooth="yes"/>
      <point x="44.1367" y="0.000976562"/>
      <point x="32.0039" y="19.8174"/>
      <point x="32.0039" y="50.002" type="curve" smooth="yes"/>
      <point x="32.0039" y="140.201" type="line" smooth="yes"/>
      <point x="32.0039" y="180.996"/>
      <point x="44.2773" y="195.266"/>
      <point x="58.0039" y="203.002" type="curve"/>
      <point x="22.001" y="203.002" type="line"/>
      <point x="22.001" y="276.397" type="line"/>
      <point x="22.001" y="276.397"/>
      <point x="97.4121" y="342.001"/>
      <point x="140.612" y="380.401" type="curve"/>
      <point x="140.612" y="381.999" type="line" smooth="yes"/>
      <point x="140.612" y="391.229"/>
      <point x="129.923" y="393.972"/>
      <point x="117.016" y="394.002" type="curve" smooth="yes"/>
      <point x="32.0039" y="394.201" type="line"/>
      <point x="32.0039" y="497.201" type="line"/>
      <point x="195.413" y="497.001" type="line" smooth="yes"/>
      <point x="227.096" y="496.963"/>
      <point x="231.009" y="469.791"/>
      <point x="231.009" y="461.599" type="curve" smooth="yes"/>
      <point x="231.009" y="459.398" type="line"/>
      <point x="253.604" y="475.202" type="line" smooth="yes"/>
      <point x="278.92" y="492.909"/>
      <point x="309.277" y="497"/>
      <point x="333.607" y="497" type="curve" smooth="yes"/>
    </contour>
    <component base="si_Ssa" xOffset="404"/>
  </outline>
</glyph>
